<mxfile host="app.diagrams.net" agent="Mozilla/5.0 (X11; Linux x86_64) AppleWebKit/537.36 (KHTML, like Gecko) Chrome/128.0.0.0 Safari/537.36" version="25.0.1">
  <diagram name="Page-1" id="74b105a0-9070-1c63-61bc-23e55f88626e">
    <mxGraphModel dx="2868" dy="1640" grid="1" gridSize="10" guides="1" tooltips="1" connect="1" arrows="1" fold="1" page="1" pageScale="1.5" pageWidth="1169" pageHeight="826" background="none" math="0" shadow="0">
      <root>
        <mxCell id="0" style=";html=1;" />
        <mxCell id="1" style=";html=1;" parent="0" />
        <mxCell id="Hh5hC5YUvbBkTPlvVYgq-8" value="" style="group" parent="1" vertex="1" connectable="0">
          <mxGeometry x="120" y="550" width="210" height="210" as="geometry" />
        </mxCell>
        <mxCell id="Hh5hC5YUvbBkTPlvVYgq-176" style="edgeStyle=orthogonalEdgeStyle;rounded=0;orthogonalLoop=1;jettySize=auto;html=1;exitX=1;exitY=0.5;exitDx=0;exitDy=0;" parent="Hh5hC5YUvbBkTPlvVYgq-8" source="Hh5hC5YUvbBkTPlvVYgq-2" edge="1">
          <mxGeometry relative="1" as="geometry">
            <mxPoint x="390" y="105" as="targetPoint" />
          </mxGeometry>
        </mxCell>
        <mxCell id="Hh5hC5YUvbBkTPlvVYgq-2" value="" style="whiteSpace=wrap;html=1;aspect=fixed;" parent="Hh5hC5YUvbBkTPlvVYgq-8" vertex="1">
          <mxGeometry width="210" height="210" as="geometry" />
        </mxCell>
        <mxCell id="Hh5hC5YUvbBkTPlvVYgq-3" value="" style="shape=image;verticalLabelPosition=bottom;labelBackgroundColor=default;verticalAlign=top;aspect=fixed;imageAspect=0;image=https://pbs.twimg.com/profile_images/1235868806079057921/fTL08u_H_400x400.png;" parent="Hh5hC5YUvbBkTPlvVYgq-8" vertex="1">
          <mxGeometry x="30.88235294117647" y="12.352941176470589" width="148.23529411764707" height="148.23529411764707" as="geometry" />
        </mxCell>
        <mxCell id="Hh5hC5YUvbBkTPlvVYgq-4" value="&lt;div&gt;&lt;font style=&quot;font-size: 24px;&quot;&gt;External API&lt;/font&gt;&lt;/div&gt;" style="text;html=1;align=center;verticalAlign=middle;resizable=0;points=[];autosize=1;strokeColor=none;fillColor=none;" parent="Hh5hC5YUvbBkTPlvVYgq-8" vertex="1">
          <mxGeometry x="24.996470588235294" y="148.23529411764707" width="160" height="40" as="geometry" />
        </mxCell>
        <mxCell id="Hh5hC5YUvbBkTPlvVYgq-9" value="" style="group" parent="1" vertex="1" connectable="0">
          <mxGeometry x="125.00000000000006" y="165" width="210" height="210" as="geometry" />
        </mxCell>
        <mxCell id="Hh5hC5YUvbBkTPlvVYgq-14" value="" style="group" parent="Hh5hC5YUvbBkTPlvVYgq-9" vertex="1" connectable="0">
          <mxGeometry width="210" height="210" as="geometry" />
        </mxCell>
        <mxCell id="Hh5hC5YUvbBkTPlvVYgq-190" style="edgeStyle=orthogonalEdgeStyle;rounded=0;orthogonalLoop=1;jettySize=auto;html=1;exitX=1;exitY=1;exitDx=0;exitDy=0;" parent="Hh5hC5YUvbBkTPlvVYgq-14" source="Hh5hC5YUvbBkTPlvVYgq-10" edge="1">
          <mxGeometry relative="1" as="geometry">
            <mxPoint x="504.99999999999994" y="795" as="targetPoint" />
            <Array as="points">
              <mxPoint x="165" y="210" />
              <mxPoint x="165" y="325" />
              <mxPoint x="275" y="325" />
              <mxPoint x="275" y="735" />
              <mxPoint x="505" y="735" />
            </Array>
          </mxGeometry>
        </mxCell>
        <mxCell id="Hh5hC5YUvbBkTPlvVYgq-10" value="" style="whiteSpace=wrap;html=1;aspect=fixed;" parent="Hh5hC5YUvbBkTPlvVYgq-14" vertex="1">
          <mxGeometry width="210" height="210" as="geometry" />
        </mxCell>
        <mxCell id="Hh5hC5YUvbBkTPlvVYgq-11" value="" style="shape=image;verticalLabelPosition=bottom;labelBackgroundColor=default;verticalAlign=top;aspect=fixed;imageAspect=0;image=https://pbs.twimg.com/profile_images/1235868806079057921/fTL08u_H_400x400.png;" parent="Hh5hC5YUvbBkTPlvVYgq-14" vertex="1">
          <mxGeometry x="30.88235294117647" y="12.352941176470589" width="148.23529411764707" height="148.23529411764707" as="geometry" />
        </mxCell>
        <mxCell id="Hh5hC5YUvbBkTPlvVYgq-12" value="&lt;div&gt;&lt;font style=&quot;font-size: 24px;&quot;&gt;Admin API&lt;/font&gt;&lt;/div&gt;" style="text;html=1;align=center;verticalAlign=middle;resizable=0;points=[];autosize=1;strokeColor=none;fillColor=none;" parent="Hh5hC5YUvbBkTPlvVYgq-14" vertex="1">
          <mxGeometry x="34.99941176470588" y="148.23529411764707" width="140" height="40" as="geometry" />
        </mxCell>
        <mxCell id="Hh5hC5YUvbBkTPlvVYgq-28" value="" style="group" parent="1" vertex="1" connectable="0">
          <mxGeometry x="1310" y="850" width="140" height="200" as="geometry" />
        </mxCell>
        <mxCell id="Hh5hC5YUvbBkTPlvVYgq-29" value="" style="strokeWidth=2;html=1;shape=mxgraph.flowchart.database;whiteSpace=wrap;" parent="Hh5hC5YUvbBkTPlvVYgq-28" vertex="1">
          <mxGeometry width="140" height="200" as="geometry" />
        </mxCell>
        <mxCell id="Hh5hC5YUvbBkTPlvVYgq-31" value="" style="shape=image;verticalLabelPosition=bottom;labelBackgroundColor=default;verticalAlign=top;aspect=fixed;imageAspect=0;image=https://upload.wikimedia.org/wikipedia/commons/thumb/5/5e/Cassandra_logo.svg/150px-Cassandra_logo.svg.png;" parent="Hh5hC5YUvbBkTPlvVYgq-28" vertex="1">
          <mxGeometry x="14.736842105263158" y="89.47211452430659" width="110.52631578947368" height="74.42105263157895" as="geometry" />
        </mxCell>
        <mxCell id="Hh5hC5YUvbBkTPlvVYgq-59" value="" style="group" parent="1" vertex="1" connectable="0">
          <mxGeometry x="390" y="165" width="1030" height="695" as="geometry" />
        </mxCell>
        <mxCell id="Hh5hC5YUvbBkTPlvVYgq-179" style="edgeStyle=orthogonalEdgeStyle;rounded=0;orthogonalLoop=1;jettySize=auto;html=1;exitX=0;exitY=0.5;exitDx=0;exitDy=0;" parent="Hh5hC5YUvbBkTPlvVYgq-59" source="Hh5hC5YUvbBkTPlvVYgq-54" edge="1">
          <mxGeometry relative="1" as="geometry">
            <mxPoint x="-50" y="105" as="targetPoint" />
          </mxGeometry>
        </mxCell>
        <mxCell id="Hh5hC5YUvbBkTPlvVYgq-192" style="edgeStyle=orthogonalEdgeStyle;rounded=0;orthogonalLoop=1;jettySize=auto;html=1;exitX=1;exitY=0.5;exitDx=0;exitDy=0;" parent="Hh5hC5YUvbBkTPlvVYgq-59" source="Hh5hC5YUvbBkTPlvVYgq-54" edge="1">
          <mxGeometry relative="1" as="geometry">
            <mxPoint x="280" y="785" as="targetPoint" />
          </mxGeometry>
        </mxCell>
        <mxCell id="Hh5hC5YUvbBkTPlvVYgq-54" value="" style="whiteSpace=wrap;html=1;aspect=fixed;" parent="Hh5hC5YUvbBkTPlvVYgq-59" vertex="1">
          <mxGeometry width="210" height="210" as="geometry" />
        </mxCell>
        <mxCell id="Hh5hC5YUvbBkTPlvVYgq-57" value="" style="shape=image;verticalLabelPosition=bottom;labelBackgroundColor=default;verticalAlign=top;aspect=fixed;imageAspect=0;image=https://cdn4.iconfinder.com/data/icons/logos-3/600/React.js_logo-512.png;" parent="Hh5hC5YUvbBkTPlvVYgq-59" vertex="1">
          <mxGeometry x="33.29268292682927" y="15.365853658536587" width="143.41463414634146" height="143.41463414634146" as="geometry" />
        </mxCell>
        <mxCell id="Hh5hC5YUvbBkTPlvVYgq-58" value="&lt;div&gt;&lt;font style=&quot;font-size: 24px;&quot;&gt;Admin UI&lt;/font&gt;&lt;/div&gt;" style="text;html=1;align=center;verticalAlign=middle;resizable=0;points=[];autosize=1;strokeColor=none;fillColor=none;" parent="Hh5hC5YUvbBkTPlvVYgq-59" vertex="1">
          <mxGeometry x="43.53658536585366" y="158.78439024390244" width="120" height="40" as="geometry" />
        </mxCell>
        <mxCell id="Hh5hC5YUvbBkTPlvVYgq-20" value="" style="group" parent="Hh5hC5YUvbBkTPlvVYgq-59" vertex="1" connectable="0">
          <mxGeometry x="289.9999999999999" y="375" width="127.5" height="180" as="geometry" />
        </mxCell>
        <mxCell id="Hh5hC5YUvbBkTPlvVYgq-15" value="" style="strokeWidth=2;html=1;shape=mxgraph.flowchart.database;whiteSpace=wrap;" parent="Hh5hC5YUvbBkTPlvVYgq-20" vertex="1">
          <mxGeometry width="127.5" height="180" as="geometry" />
        </mxCell>
        <mxCell id="Hh5hC5YUvbBkTPlvVYgq-27" value="" style="shape=image;verticalLabelPosition=bottom;labelBackgroundColor=default;verticalAlign=top;aspect=fixed;imageAspect=0;image=https://cdn.worldvectorlogo.com/logos/mongodb-icon-2.svg;" parent="Hh5hC5YUvbBkTPlvVYgq-20" vertex="1">
          <mxGeometry x="14.999999999999996" y="67.50000000000001" width="97.49828950369292" height="97.49828950369292" as="geometry" />
        </mxCell>
        <mxCell id="Hh5hC5YUvbBkTPlvVYgq-156" value="" style="group" parent="Hh5hC5YUvbBkTPlvVYgq-59" vertex="1" connectable="0">
          <mxGeometry x="380" y="-35" width="510" height="90" as="geometry" />
        </mxCell>
        <mxCell id="Hh5hC5YUvbBkTPlvVYgq-152" value="" style="rounded=1;whiteSpace=wrap;html=1;" parent="Hh5hC5YUvbBkTPlvVYgq-156" vertex="1">
          <mxGeometry y="5" width="510" height="80" as="geometry" />
        </mxCell>
        <mxCell id="Hh5hC5YUvbBkTPlvVYgq-153" value="" style="shape=image;verticalLabelPosition=bottom;labelBackgroundColor=default;verticalAlign=top;aspect=fixed;imageAspect=0;image=https://cdn-icons-png.flaticon.com/512/263/263093.png;" parent="Hh5hC5YUvbBkTPlvVYgq-156" vertex="1">
          <mxGeometry x="40" width="90" height="90" as="geometry" />
        </mxCell>
        <mxCell id="Hh5hC5YUvbBkTPlvVYgq-154" value="" style="shape=image;verticalLabelPosition=bottom;labelBackgroundColor=default;verticalAlign=top;aspect=fixed;imageAspect=0;image=https://cdn-icons-png.flaticon.com/512/263/263093.png;" parent="Hh5hC5YUvbBkTPlvVYgq-156" vertex="1">
          <mxGeometry x="150" width="90" height="90" as="geometry" />
        </mxCell>
        <mxCell id="Hh5hC5YUvbBkTPlvVYgq-155" value="" style="shape=image;verticalLabelPosition=bottom;labelBackgroundColor=default;verticalAlign=top;aspect=fixed;imageAspect=0;image=https://cdn-icons-png.flaticon.com/512/263/263093.png;" parent="Hh5hC5YUvbBkTPlvVYgq-156" vertex="1">
          <mxGeometry x="260" width="90" height="90" as="geometry" />
        </mxCell>
        <mxCell id="Hh5hC5YUvbBkTPlvVYgq-157" value="&lt;div&gt;&lt;font style=&quot;font-size: 24px;&quot;&gt;Incoming&lt;/font&gt;&lt;/div&gt;&lt;div&gt;&lt;font style=&quot;font-size: 24px;&quot;&gt;&amp;nbsp;emails&lt;/font&gt;&lt;/div&gt;" style="text;html=1;align=center;verticalAlign=middle;whiteSpace=wrap;rounded=0;" parent="Hh5hC5YUvbBkTPlvVYgq-156" vertex="1">
          <mxGeometry x="360" y="30" width="130" height="30" as="geometry" />
        </mxCell>
        <mxCell id="Hh5hC5YUvbBkTPlvVYgq-47" value="" style="group" parent="1" vertex="1" connectable="0">
          <mxGeometry x="1460" y="340" width="245" height="210" as="geometry" />
        </mxCell>
        <mxCell id="Hh5hC5YUvbBkTPlvVYgq-163" style="edgeStyle=orthogonalEdgeStyle;rounded=0;orthogonalLoop=1;jettySize=auto;html=1;exitX=0;exitY=0.5;exitDx=0;exitDy=0;" parent="Hh5hC5YUvbBkTPlvVYgq-47" source="Hh5hC5YUvbBkTPlvVYgq-48" edge="1">
          <mxGeometry relative="1" as="geometry">
            <mxPoint x="-80" y="104.42857142857156" as="targetPoint" />
          </mxGeometry>
        </mxCell>
        <mxCell id="Hh5hC5YUvbBkTPlvVYgq-48" value="" style="whiteSpace=wrap;html=1;aspect=fixed;" parent="Hh5hC5YUvbBkTPlvVYgq-47" vertex="1">
          <mxGeometry width="208.01886792452834" height="208.01886792452834" as="geometry" />
        </mxCell>
        <mxCell id="Hh5hC5YUvbBkTPlvVYgq-51" value="" style="shape=image;verticalLabelPosition=bottom;labelBackgroundColor=default;verticalAlign=top;aspect=fixed;imageAspect=0;image=https://upload.wikimedia.org/wikipedia/commons/thumb/8/8b/Apache_James_logo.svg/200px-Apache_James_logo.svg.png;" parent="Hh5hC5YUvbBkTPlvVYgq-47" vertex="1">
          <mxGeometry x="23.34359999999994" y="16.8" width="167.99999999999997" height="171.36" as="geometry" />
        </mxCell>
        <mxCell id="Hh5hC5YUvbBkTPlvVYgq-77" value="" style="group" parent="1" vertex="1" connectable="0">
          <mxGeometry x="880.58" y="960" width="127.5" height="182" as="geometry" />
        </mxCell>
        <mxCell id="Hh5hC5YUvbBkTPlvVYgq-66" value="" style="strokeWidth=2;html=1;shape=mxgraph.flowchart.database;whiteSpace=wrap;" parent="Hh5hC5YUvbBkTPlvVYgq-77" vertex="1">
          <mxGeometry y="10" width="127.5" height="180" as="geometry" />
        </mxCell>
        <mxCell id="Hh5hC5YUvbBkTPlvVYgq-81" value="" style="shape=image;verticalLabelPosition=bottom;labelBackgroundColor=default;verticalAlign=top;aspect=fixed;imageAspect=0;image=https://cdn.icon-icons.com/icons2/2415/PNG/512/postgresql_plain_wordmark_logo_icon_146390.png;" parent="Hh5hC5YUvbBkTPlvVYgq-77" vertex="1">
          <mxGeometry x="18.36" y="80" width="90" height="90" as="geometry" />
        </mxCell>
        <mxCell id="Hh5hC5YUvbBkTPlvVYgq-84" value="" style="group" parent="1" vertex="1" connectable="0">
          <mxGeometry x="610" y="960" width="245" height="210" as="geometry" />
        </mxCell>
        <mxCell id="Hh5hC5YUvbBkTPlvVYgq-85" value="" style="whiteSpace=wrap;html=1;aspect=fixed;" parent="Hh5hC5YUvbBkTPlvVYgq-84" vertex="1">
          <mxGeometry width="208.01589622641512" height="208.01589622641512" as="geometry" />
        </mxCell>
        <mxCell id="Hh5hC5YUvbBkTPlvVYgq-87" value="" style="shape=image;verticalLabelPosition=bottom;labelBackgroundColor=default;verticalAlign=top;aspect=fixed;imageAspect=0;image=https://landscape.cncf.io/logos/e7ec76aed9cec7e65927f9f8cf4e675d49e79154c45c504a5cd6da1fdaecfc2d.svg;" parent="Hh5hC5YUvbBkTPlvVYgq-84" vertex="1">
          <mxGeometry x="20.976666666666667" y="51.50833333333336" width="166.07262749999998" height="104.99850000000002" as="geometry" />
        </mxCell>
        <mxCell id="Hh5hC5YUvbBkTPlvVYgq-98" value="" style="group" parent="1" vertex="1" connectable="0">
          <mxGeometry x="1430" y="20" width="310" height="130" as="geometry" />
        </mxCell>
        <mxCell id="Hh5hC5YUvbBkTPlvVYgq-94" value="" style="shape=image;verticalLabelPosition=bottom;labelBackgroundColor=default;verticalAlign=top;aspect=fixed;imageAspect=0;image=https://raw.githubusercontent.com/Maxxx873/disposable-email-project/refs/heads/main/img/logoDisposableEmail.png;" parent="Hh5hC5YUvbBkTPlvVYgq-98" vertex="1">
          <mxGeometry width="120" height="120" as="geometry" />
        </mxCell>
        <mxCell id="Hh5hC5YUvbBkTPlvVYgq-97" value="&lt;h1 style=&quot;margin-top: 0px;&quot;&gt;Disposable Email project&lt;br&gt;&lt;/h1&gt;&lt;p&gt;&lt;span style=&quot;color: rgb(31, 35, 40); font-family: -apple-system, BlinkMacSystemFont, &amp;quot;Segoe UI&amp;quot;, &amp;quot;Noto Sans&amp;quot;, Helvetica, Arial, sans-serif, &amp;quot;Apple Color Emoji&amp;quot;, &amp;quot;Segoe UI Emoji&amp;quot;; font-size: 16px; font-style: normal; font-variant-ligatures: normal; font-variant-caps: normal; font-weight: 400; letter-spacing: normal; orphans: 2; text-align: start; text-indent: 0px; text-transform: none; widows: 2; word-spacing: 0px; -webkit-text-stroke-width: 0px; white-space: normal; background-color: rgb(255, 255, 255); text-decoration-thickness: initial; text-decoration-style: initial; text-decoration-color: initial; display: inline !important; float: none;&quot;&gt;Architecture diagram for complete workflow&lt;/span&gt;&lt;/p&gt;" style="text;html=1;whiteSpace=wrap;overflow=hidden;rounded=0;" parent="Hh5hC5YUvbBkTPlvVYgq-98" vertex="1">
          <mxGeometry x="130" width="180" height="130" as="geometry" />
        </mxCell>
        <mxCell id="Hh5hC5YUvbBkTPlvVYgq-107" value="" style="group" parent="1" vertex="1" connectable="0">
          <mxGeometry x="140.00000000000006" y="950" width="210" height="210" as="geometry" />
        </mxCell>
        <mxCell id="Hh5hC5YUvbBkTPlvVYgq-108" value="" style="group" parent="Hh5hC5YUvbBkTPlvVYgq-107" vertex="1" connectable="0">
          <mxGeometry x="-20" width="210" height="210" as="geometry" />
        </mxCell>
        <mxCell id="Hh5hC5YUvbBkTPlvVYgq-109" value="" style="whiteSpace=wrap;html=1;aspect=fixed;" parent="Hh5hC5YUvbBkTPlvVYgq-108" vertex="1">
          <mxGeometry width="210" height="210" as="geometry" />
        </mxCell>
        <mxCell id="Hh5hC5YUvbBkTPlvVYgq-111" value="&lt;div&gt;&lt;font style=&quot;font-size: 24px;&quot;&gt;Client Bot&lt;/font&gt;&lt;/div&gt;" style="text;html=1;align=center;verticalAlign=middle;resizable=0;points=[];autosize=1;strokeColor=none;fillColor=none;" parent="Hh5hC5YUvbBkTPlvVYgq-108" vertex="1">
          <mxGeometry x="39.99941176470588" y="148.23529411764707" width="130" height="40" as="geometry" />
        </mxCell>
        <mxCell id="Hh5hC5YUvbBkTPlvVYgq-113" value="" style="shape=image;verticalLabelPosition=bottom;labelBackgroundColor=default;verticalAlign=top;aspect=fixed;imageAspect=0;image=https://upload.wikimedia.org/wikipedia/commons/thumb/8/83/Telegram_2019_Logo.svg/512px-Telegram_2019_Logo.svg.png;" parent="Hh5hC5YUvbBkTPlvVYgq-108" vertex="1">
          <mxGeometry x="60" y="30" width="100" height="100" as="geometry" />
        </mxCell>
        <mxCell id="Hh5hC5YUvbBkTPlvVYgq-114" value="" style="group" parent="1" vertex="1" connectable="0">
          <mxGeometry x="400" y="960" width="127.5" height="182" as="geometry" />
        </mxCell>
        <mxCell id="Hh5hC5YUvbBkTPlvVYgq-115" value="" style="strokeWidth=2;html=1;shape=mxgraph.flowchart.database;whiteSpace=wrap;" parent="Hh5hC5YUvbBkTPlvVYgq-114" vertex="1">
          <mxGeometry y="10" width="127.5" height="180" as="geometry" />
        </mxCell>
        <mxCell id="Hh5hC5YUvbBkTPlvVYgq-116" value="" style="shape=image;verticalLabelPosition=bottom;labelBackgroundColor=default;verticalAlign=top;aspect=fixed;imageAspect=0;image=https://cdn.icon-icons.com/icons2/2415/PNG/512/postgresql_plain_wordmark_logo_icon_146390.png;" parent="Hh5hC5YUvbBkTPlvVYgq-114" vertex="1">
          <mxGeometry x="18.36" y="80" width="90" height="90" as="geometry" />
        </mxCell>
        <mxCell id="Hh5hC5YUvbBkTPlvVYgq-118" value="" style="group" parent="1" vertex="1" connectable="0">
          <mxGeometry x="1170" y="340" width="210" height="210" as="geometry" />
        </mxCell>
        <mxCell id="Hh5hC5YUvbBkTPlvVYgq-119" value="" style="group" parent="Hh5hC5YUvbBkTPlvVYgq-118" vertex="1" connectable="0">
          <mxGeometry width="210" height="210" as="geometry" />
        </mxCell>
        <mxCell id="Hh5hC5YUvbBkTPlvVYgq-120" value="" style="whiteSpace=wrap;html=1;aspect=fixed;" parent="Hh5hC5YUvbBkTPlvVYgq-119" vertex="1">
          <mxGeometry width="210" height="210" as="geometry" />
        </mxCell>
        <mxCell id="Hh5hC5YUvbBkTPlvVYgq-122" value="&lt;div&gt;&lt;font style=&quot;font-size: 24px;&quot;&gt;Custom Mailets&lt;/font&gt;&lt;/div&gt;" style="text;html=1;align=center;verticalAlign=middle;resizable=0;points=[];autosize=1;strokeColor=none;fillColor=none;" parent="Hh5hC5YUvbBkTPlvVYgq-119" vertex="1">
          <mxGeometry x="9.999411764705883" y="148.23529411764707" width="190" height="40" as="geometry" />
        </mxCell>
        <mxCell id="Hh5hC5YUvbBkTPlvVYgq-124" value="" style="shape=image;verticalLabelPosition=bottom;labelBackgroundColor=default;verticalAlign=top;aspect=fixed;imageAspect=0;image=https://cdn4.iconfinder.com/data/icons/logos-and-brands/512/181_Java_logo_logos-512.png;" parent="Hh5hC5YUvbBkTPlvVYgq-119" vertex="1">
          <mxGeometry x="40" y="18.239999999999952" width="130" height="130" as="geometry" />
        </mxCell>
        <mxCell id="Hh5hC5YUvbBkTPlvVYgq-143" value="" style="group" parent="1" vertex="1" connectable="0">
          <mxGeometry x="1530" y="850" width="140" height="200" as="geometry" />
        </mxCell>
        <mxCell id="Hh5hC5YUvbBkTPlvVYgq-144" value="" style="strokeWidth=2;html=1;shape=mxgraph.flowchart.database;whiteSpace=wrap;" parent="Hh5hC5YUvbBkTPlvVYgq-143" vertex="1">
          <mxGeometry width="140" height="200" as="geometry" />
        </mxCell>
        <mxCell id="Hh5hC5YUvbBkTPlvVYgq-142" value="" style="shape=image;verticalLabelPosition=bottom;labelBackgroundColor=default;verticalAlign=top;aspect=fixed;imageAspect=0;image=https://icons-for-free.com/iff/png/512/elastic+elasticsearch-1331550887703930552.png;" parent="Hh5hC5YUvbBkTPlvVYgq-143" vertex="1">
          <mxGeometry x="30" y="80" width="70" height="70" as="geometry" />
        </mxCell>
        <mxCell id="Hh5hC5YUvbBkTPlvVYgq-146" value="&lt;font style=&quot;font-size: 24px;&quot;&gt;Elastic&lt;/font&gt;" style="text;html=1;align=center;verticalAlign=middle;whiteSpace=wrap;rounded=0;fontSize=14;" parent="Hh5hC5YUvbBkTPlvVYgq-143" vertex="1">
          <mxGeometry x="40" y="160" width="60" height="30" as="geometry" />
        </mxCell>
        <mxCell id="Hh5hC5YUvbBkTPlvVYgq-159" value="" style="group" parent="1" vertex="1" connectable="0">
          <mxGeometry x="759.9999999999999" y="755" width="257.86" height="95" as="geometry" />
        </mxCell>
        <mxCell id="Hh5hC5YUvbBkTPlvVYgq-160" value="" style="strokeWidth=2;html=1;shape=mxgraph.flowchart.direct_data;whiteSpace=wrap;" parent="Hh5hC5YUvbBkTPlvVYgq-159" vertex="1">
          <mxGeometry width="257.86" height="88.21428571428572" as="geometry" />
        </mxCell>
        <mxCell id="Hh5hC5YUvbBkTPlvVYgq-161" value="" style="shape=image;verticalLabelPosition=bottom;labelBackgroundColor=default;verticalAlign=top;aspect=fixed;imageAspect=0;image=https://www.meshiq.com/wp-content/uploads/rabbitmq.png;" parent="Hh5hC5YUvbBkTPlvVYgq-159" vertex="1">
          <mxGeometry x="47.50052631578947" y="6.7857142857142865" width="132.57928571428573" height="74.64285714285715" as="geometry" />
        </mxCell>
        <mxCell id="Hh5hC5YUvbBkTPlvVYgq-165" style="edgeStyle=orthogonalEdgeStyle;rounded=0;orthogonalLoop=1;jettySize=auto;html=1;" parent="1" source="Hh5hC5YUvbBkTPlvVYgq-48" target="Hh5hC5YUvbBkTPlvVYgq-144" edge="1">
          <mxGeometry relative="1" as="geometry">
            <Array as="points">
              <mxPoint x="1564" y="620" />
              <mxPoint x="1600" y="620" />
            </Array>
          </mxGeometry>
        </mxCell>
        <mxCell id="Hh5hC5YUvbBkTPlvVYgq-162" style="edgeStyle=orthogonalEdgeStyle;rounded=0;orthogonalLoop=1;jettySize=auto;html=1;exitX=1;exitY=0.5;exitDx=0;exitDy=0;entryX=0.5;entryY=0;entryDx=0;entryDy=0;" parent="1" source="Hh5hC5YUvbBkTPlvVYgq-152" target="Hh5hC5YUvbBkTPlvVYgq-48" edge="1">
          <mxGeometry relative="1" as="geometry">
            <mxPoint x="1570" y="330" as="targetPoint" />
          </mxGeometry>
        </mxCell>
        <mxCell id="Hh5hC5YUvbBkTPlvVYgq-168" style="edgeStyle=orthogonalEdgeStyle;rounded=0;orthogonalLoop=1;jettySize=auto;html=1;" parent="1" source="Hh5hC5YUvbBkTPlvVYgq-48" target="Hh5hC5YUvbBkTPlvVYgq-29" edge="1">
          <mxGeometry relative="1" as="geometry">
            <Array as="points">
              <mxPoint x="1564" y="620" />
              <mxPoint x="1380" y="620" />
            </Array>
          </mxGeometry>
        </mxCell>
        <mxCell id="Hh5hC5YUvbBkTPlvVYgq-169" style="edgeStyle=orthogonalEdgeStyle;rounded=0;orthogonalLoop=1;jettySize=auto;html=1;exitX=0.5;exitY=1;exitDx=0;exitDy=0;entryX=1;entryY=0.5;entryDx=0;entryDy=0;entryPerimeter=0;" parent="1" source="Hh5hC5YUvbBkTPlvVYgq-48" target="Hh5hC5YUvbBkTPlvVYgq-160" edge="1">
          <mxGeometry relative="1" as="geometry">
            <Array as="points">
              <mxPoint x="1564" y="590" />
              <mxPoint x="1100" y="590" />
              <mxPoint x="1100" y="799" />
            </Array>
          </mxGeometry>
        </mxCell>
        <mxCell id="Hh5hC5YUvbBkTPlvVYgq-170" value="" style="group" parent="1" vertex="1" connectable="0">
          <mxGeometry x="745" y="400" width="263.08" height="90" as="geometry" />
        </mxCell>
        <mxCell id="Hh5hC5YUvbBkTPlvVYgq-191" style="edgeStyle=orthogonalEdgeStyle;rounded=0;orthogonalLoop=1;jettySize=auto;html=1;exitX=0;exitY=0.5;exitDx=0;exitDy=0;exitPerimeter=0;" parent="Hh5hC5YUvbBkTPlvVYgq-170" source="Hh5hC5YUvbBkTPlvVYgq-171" edge="1">
          <mxGeometry relative="1" as="geometry">
            <mxPoint x="-525" y="150" as="targetPoint" />
          </mxGeometry>
        </mxCell>
        <mxCell id="Hh5hC5YUvbBkTPlvVYgq-171" value="" style="strokeWidth=2;html=1;shape=mxgraph.flowchart.direct_data;whiteSpace=wrap;" parent="Hh5hC5YUvbBkTPlvVYgq-170" vertex="1">
          <mxGeometry width="263.08" height="90" as="geometry" />
        </mxCell>
        <mxCell id="Hh5hC5YUvbBkTPlvVYgq-172" value="" style="shape=image;verticalLabelPosition=bottom;labelBackgroundColor=default;verticalAlign=top;aspect=fixed;imageAspect=0;image=https://miro.medium.com/v2/resize:fit:700/0*CuYxguE1vG7PLngW.png;" parent="Hh5hC5YUvbBkTPlvVYgq-170" vertex="1">
          <mxGeometry x="30.35804736842107" y="5.1923076923076925" width="159.23076923076923" height="79.61538461538461" as="geometry" />
        </mxCell>
        <mxCell id="Hh5hC5YUvbBkTPlvVYgq-173" style="edgeStyle=orthogonalEdgeStyle;rounded=0;orthogonalLoop=1;jettySize=auto;html=1;exitX=0;exitY=0.5;exitDx=0;exitDy=0;" parent="1" source="Hh5hC5YUvbBkTPlvVYgq-120" target="Hh5hC5YUvbBkTPlvVYgq-171" edge="1">
          <mxGeometry relative="1" as="geometry">
            <Array as="points">
              <mxPoint x="1060" y="445" />
              <mxPoint x="1060" y="445" />
            </Array>
          </mxGeometry>
        </mxCell>
        <mxCell id="Hh5hC5YUvbBkTPlvVYgq-174" style="edgeStyle=orthogonalEdgeStyle;rounded=0;orthogonalLoop=1;jettySize=auto;html=1;exitX=0;exitY=0.5;exitDx=0;exitDy=0;entryX=1;entryY=0.5;entryDx=0;entryDy=0;entryPerimeter=0;" parent="1" source="Hh5hC5YUvbBkTPlvVYgq-120" target="Hh5hC5YUvbBkTPlvVYgq-15" edge="1">
          <mxGeometry relative="1" as="geometry">
            <Array as="points">
              <mxPoint x="1170" y="530" />
              <mxPoint x="904" y="530" />
              <mxPoint x="904" y="630" />
            </Array>
          </mxGeometry>
        </mxCell>
        <mxCell id="Hh5hC5YUvbBkTPlvVYgq-181" style="edgeStyle=orthogonalEdgeStyle;rounded=0;orthogonalLoop=1;jettySize=auto;html=1;exitX=0.5;exitY=0;exitDx=0;exitDy=0;entryX=0.5;entryY=1;entryDx=0;entryDy=0;" parent="1" source="Hh5hC5YUvbBkTPlvVYgq-109" target="Hh5hC5YUvbBkTPlvVYgq-2" edge="1">
          <mxGeometry relative="1" as="geometry" />
        </mxCell>
        <mxCell id="Hh5hC5YUvbBkTPlvVYgq-182" style="edgeStyle=orthogonalEdgeStyle;rounded=0;orthogonalLoop=1;jettySize=auto;html=1;exitX=1;exitY=1;exitDx=0;exitDy=0;entryX=0.5;entryY=0;entryDx=0;entryDy=0;entryPerimeter=0;" parent="1" source="Hh5hC5YUvbBkTPlvVYgq-10" target="Hh5hC5YUvbBkTPlvVYgq-15" edge="1">
          <mxGeometry relative="1" as="geometry">
            <Array as="points">
              <mxPoint x="335" y="470" />
              <mxPoint x="744" y="470" />
            </Array>
          </mxGeometry>
        </mxCell>
        <mxCell id="Hh5hC5YUvbBkTPlvVYgq-183" style="edgeStyle=orthogonalEdgeStyle;rounded=0;orthogonalLoop=1;jettySize=auto;html=1;exitX=1;exitY=0.5;exitDx=0;exitDy=0;entryX=0.5;entryY=0;entryDx=0;entryDy=0;entryPerimeter=0;" parent="1" source="Hh5hC5YUvbBkTPlvVYgq-109" target="Hh5hC5YUvbBkTPlvVYgq-115" edge="1">
          <mxGeometry relative="1" as="geometry" />
        </mxCell>
        <mxCell id="Hh5hC5YUvbBkTPlvVYgq-184" style="edgeStyle=orthogonalEdgeStyle;rounded=0;orthogonalLoop=1;jettySize=auto;html=1;exitX=1;exitY=0.5;exitDx=0;exitDy=0;entryX=0.5;entryY=0;entryDx=0;entryDy=0;entryPerimeter=0;" parent="1" source="Hh5hC5YUvbBkTPlvVYgq-85" target="Hh5hC5YUvbBkTPlvVYgq-66" edge="1">
          <mxGeometry relative="1" as="geometry" />
        </mxCell>
        <mxCell id="Hh5hC5YUvbBkTPlvVYgq-185" style="edgeStyle=orthogonalEdgeStyle;rounded=0;orthogonalLoop=1;jettySize=auto;html=1;exitX=1;exitY=1;exitDx=0;exitDy=0;entryX=0.5;entryY=0;entryDx=0;entryDy=0;" parent="1" source="Hh5hC5YUvbBkTPlvVYgq-2" target="Hh5hC5YUvbBkTPlvVYgq-85" edge="1">
          <mxGeometry relative="1" as="geometry">
            <Array as="points">
              <mxPoint x="290" y="760" />
              <mxPoint x="290" y="860" />
              <mxPoint x="714" y="860" />
            </Array>
          </mxGeometry>
        </mxCell>
        <mxCell id="Hh5hC5YUvbBkTPlvVYgq-177" style="edgeStyle=orthogonalEdgeStyle;rounded=0;orthogonalLoop=1;jettySize=auto;html=1;exitX=1;exitY=0.5;exitDx=0;exitDy=0;entryX=0;entryY=0.5;entryDx=0;entryDy=0;entryPerimeter=0;" parent="1" source="Hh5hC5YUvbBkTPlvVYgq-2" target="Hh5hC5YUvbBkTPlvVYgq-160" edge="1">
          <mxGeometry relative="1" as="geometry">
            <mxPoint x="760" y="760" as="targetPoint" />
            <Array as="points">
              <mxPoint x="460" y="655" />
              <mxPoint x="460" y="800" />
              <mxPoint x="760" y="800" />
            </Array>
          </mxGeometry>
        </mxCell>
        <mxCell id="Q1vvUf1jKi_2m8FqPl4--11" value="" style="group" vertex="1" connectable="0" parent="1">
          <mxGeometry x="510" y="550" width="127.5" height="180" as="geometry" />
        </mxCell>
        <mxCell id="Q1vvUf1jKi_2m8FqPl4--8" value="" style="strokeWidth=2;html=1;shape=mxgraph.flowchart.database;whiteSpace=wrap;" vertex="1" parent="Q1vvUf1jKi_2m8FqPl4--11">
          <mxGeometry y="-10" width="127.5" height="180" as="geometry" />
        </mxCell>
        <mxCell id="Q1vvUf1jKi_2m8FqPl4--10" value="" style="shape=image;verticalLabelPosition=bottom;labelBackgroundColor=default;verticalAlign=top;aspect=fixed;imageAspect=0;image=data:image/png,iVBORw0KGgoAAAANSUhEUgAAArcAAAD9CAIAAAApo8gDAAAAA3NCSVQICAjb4U/gAAAgAElEQVR4Xuy9B5Qdx5kuVp37pskJAxA5ESRIgiQIUJREUomiRInSalcSRYVdhV36+a3W9vr42MfP56x9/OzzbD+/t/LualdPq11liZRIMYiUSCpQzJkEAYIgkYEBBpNnburc/v6qvnfuzNwZzAB3EKswmOnbt7vCV1V//fWnUuI4ZjJJBCQCEgGJgERAIiARmIGAOuOOvCERkAhIBCQCEgGJgESAEJBcghwHEgGJgERAIiARkAjUR0ByCfVxkXclAhIBiYBEQCIgEZBcghwDEgGJgERAIiARkAjUR0ByCfVxkXclAhIBiYBEQCIgEZBcghwDEgGJgERAIiARkAjUR0ByCfVxkXclAhIBiYBEQCIgEZBcghwDEgGJgERAIiARkAjUR0ByCfVxkXclAhIBiYBEQCIgEZBcghwDEgGJgERAIiARkAjUR0ByCfVxkXclAhIBiYBEQCIgEZBcghwDEgGJgERAIiARkAjUR0ByCfVxkXclAhIBiYBEQCIgEZBcghwDEgGJgERAIiARkAjUR0Cvf1velQhIBCQCEoHzFoGoUvPqRlDcER/59eQNuVk8b/v5TFRccglnAmVZhkRAIiAROGMIYP0PEyYAZapgAnAn4MWbMWMxi9UoYlFMt1WN6fTnjFVOFnS+ISC5hPOtx2R9JQISAYnAyRFQwQ8gid9gApTqK3QlvlVxiR/JIpwczov4CcklXMSdL5suEZAIXAwIcPmBwTmCSIEIATIE8AckY9D4V5QEv3AxoCHbuEAEJJewQMDk4xIBiYBE4NxGgFQMYAS4iIAEB0rEwoh5EYsj1QiYpmpK+txugazdOYSA5BLOoc6QVZEISAQkAg1BIA5DjWkKZxTiuKT4AXvr6IFfPLBq22Z2+aWsdxUrOr5pBJpiWrpWo45oSOkykwsJASWOhbzpQmqUbItEQCIgEbh4EQBVD2JfI8NF2CxGzMmzIyeO/d333MPHClpg9nRdcs3W9Lvfw5b0MkNjpsoUgxs4SvuEi3fMzNFyySXMAY78SiIgEZAInH8IwH/BZQ5jZT1wjEIZLMLev/tWpm+QDY9nW1sDRZ3wPbWjc+n129Ub3802bWLlMstmmZA8zN5cZIsvVfzD1nLSGHL2F+Q3FwQCkku4ILpRNkIiIBG4KBEQQQ/Q9KocgLs4BjHzNb+o5IfZ2Phb/9v/taIcusf6s5qpqYaiKL7ve7Z5LGbW6lWd27enbryR9fQwQ2eaTrxChV2I4xA5xwpxBFWZsyZFDhfZSJNcwkXW4bK5EgGJwIWCAI+LkCTSLyAAgoK4CA6uNU8ji8U3Xzrx3W+be/c1eZ4a64iTAEtGPIMUKsxX1TJTYJ2grVje9dHb2JZrWXMrS+VC39cM6CCQiNuImRoSZ5C4RSCLCwU/2Y55ISC5hHnBJB+SCEgEJALnGgKCSxC7fOIMuCLAZyUj8pibYq/v7P/BN5WDb3W4ZS2ImJIiRoK4hKoAImnQuK6cyGTM9RvWfPpz7JIVLNvKAoXpBrPBK4APIYcJbrYAXiFhEaQJw7k2GBavPpJLWDxsZc4SAYmARGAREZjCJcScS0BSC6wwxt46cuK73/H63tYmhjo13QhgTJBisR6rwUwuAYaOga2MRUHY3Lbi/bewj3ycNfewKMusSuVFNAXOIcAeEuUIUcMitk1mfc4gILmEc6YrZEUkAhIBicACEQCjQLxBTHt8iqcIKYI3wYb6T/w//4nt3xM6oy22rgeREepKOKssQWVREJWMtqay559Q9GD1+rWf+Bzb/C5oH7iqoRKgkfMKkktYYBed949LLuG870LZAImARODiRUDID/jvmHlKeZy9vXff3/9dS9+hZr8UqQFUDGRJEOtqZKmwSxBpqtJBiTmzoQaIsVDSVZZrz6eaOrZcZ378U6y9m9lphps81ZpBJFnJPxc6AjKq0oXew7J9EgGJwIWLAEwRaQHnUgQlKLLRkSP/+s+5Y33NnqdjSVfVECEYVTAFuIjg/AB5w6wmBbGqRVE6YP7ImB6P9+fH/QNvr7nr37IVK4k7MIxIhQZCJ6HFhYunbNlMBKQsYSYm5+MdYY4kJ+/52HeyzhKBkyNQa3BYnedwegwgP2CRgUgGxRI70tf/X/4pfHtnZiKf01IahAiUIjg3BGoEywQknP+oJ/eTQrmZQqgk3o/gInQ3ioquExosbG7Slq/u+eQn2dWbWSrNjEzIbC3ie8spxIabTcp0gSIguYT5dGztDBXPT1+PZz4x/TkhGJzPVBJP1tar+tasmfDy6VvppjSfDpXPSATOPwQEkakuyKBBuAMtg8Y8Vi6w0bFj//d/Th05oo325xQIBaBioCMf6SmVQZDga5SBgU+CUFQAAJcQKXB1VKGPUIgDUOEk6XrlKHK1dMazMkOWtfxDN1u3fZR1dDE9yyKbWALKukr2ks/nH6ayxvNAQGocTgoSZkL1Bw9jbsJamHMJYr6CkxcLND1XnTYJq43PU3nuZBWffA4PiLV/JnNQW7UZzkvVHCh/vCsqgcfgEUVpOh9Tm5m8lghIBM4bBGr2BmKiJ9Obqw9YYLJCiQ32D//0B+H+t23Hs1mKFAxECuj4R5FADsAf0Is1dEbh11BIgD/g5o/i2wgBnm2EV9JU5qm6G3QwNvbI801DbuozMFPwQzsT6bqmVEwVBEmscA2S7lQgv3D+Si7hFPqywiLg1ZoJPGXZJlZ7qlyPz0G+mNPrydJeWzgeqJnA9E1VhFCnjlMnI14EUUg4CTlP6+Alb0kEzm8EaI4T+SBjA05HyO8R/gZgERyn/0c/HH3luaVhYIcQDdi0jdG8qsejMFrkv2u3JwkeglcgG0eewCLQc0SLwD1EehQaMSsMjhRe2DFSLC390h3aEqZpMFBIQTfBX1Dik4V2TkqSf85PBKTG4eT9JiQEFX6Ar/G1c42ObK9mUp1qmDw1D/EJKFh5fsl/1XAY4v1pMziZtdW8ay7oSbwuDJEmpX+gGUjQPIozY+u9Ke9JBCQC5xkCOPGZEwMFqgViDPAB4Qq0OGCuw/qPDf3wX0+8/FSrW2oLYxuhD2LiEmK1hkuoaa/gCWJOssR18qWSCCHF+X8Rka+IzpTET4T4i0qZ6Xprh798SfPnPsY2X8GMtli1QPqIDvHcUCv8rZC2ubY4NdWRl+cBAlKWMJ9OmlyvOUNPUgJI6ARzgDuYT5hJyQzB7BK3aCWvrPtiFuE3fUvTLyl10jGJsqBiaicXZ+d5THWupxA/yZv8wBVkNOXmfNoin5EISATONwQgJhTUgC/DPMwiXBEc5hRK9/1k4vUXOnwnx2ILIZnjZLFvTAvBRyA6M4uNEEKFQJkYG3hj8NhPCr2axjZsw5nTUEqEKsVpFAlkkBNDpFpC1pi6yFzOFgJSlrAA5MXaHsSktwObIJZ+cAtxMoNjPYQpMd/lI/w5QqLiGuo9TJhyiRZ77PAx6+DQjBk+LSEvzG4xszADhSyA4qIaZC6k2yyiucoMlU5koW/VvOPrEPwZ9CGkOoSQFSJXHCrP8+YsBz+mZX6pwrhMPj3JG80vB/mUREAisEgI8N2Fovp8XlPcw+IEGxsKHvvV4Qfv63QKZhQQi0DEB4c1mHxHwc9r4FrIWlsEsbuoU8vqjoUIDVESrt9AgcLwCneIP/F0NW+qw00t67/8dbbtvcywmUleFj45ZCLaAqwfwTlI0lEH4PP3lpQlLKDvaP8e+CYmD6YfTkuDFxIt3vwCR6L4MBfSWNllOKq15LKJAssX/NExZ6JQLhYizw9cL/bLpfEBvVYZwcuHk5L4EbVpb2s3kExDNVItPSsprHpbC2vKstYmCm8CRkE3YMZMB7YomJUKLImgaABTwF/nTMzppcqG4PRykW9LBCQCjUJArPcMIQ0YGy9iLQ5//+TeRx9d4ng56CGwxk8KJiscf2KodBo1gGSCLBR4hmQSCRNIvw1HUsfqvgd/viaTZpuvY2ATTFI6cCaFxKzYei5kf3Ia1ZOvnhEELhxZQmVhEzOkscxsFMMmyPeIM6CFOCLZAH5KZVaeYIf2sokRNjIejRfGjg9E5bJfKEdl11TUOAz8MAijSFNV3dBSpmXqulMqzqwcKk3TrLLzB4cQBIHjuaEXGaqlaHpk6rjSsmmjOZNtb9WaWvVLL2ftHayrm7W0k8TCtOh0Fi5IqHIJC5mrFcrCSQIIA/YGM+t5RsakLEQiIBGYhgAmJRkkINgB5AlsrFx+7OFDD97TmR9tcgOoA/jT2L3gGX5NUgR+i/8+NVkC2AJuuMC3HNwUC8oFJC3EoZPK8bRZWrbysr/4a3bJhjiTLuoo2IfGwWa6Bo/KBUgxKc/Z0qlR81N7a7Y6yPsXFJeA7iRLG57EUoeLaatd8jV/JlkFxca7uv3GBfb6kPZDL0BmBPw3pAWDQ2x8gg2eCEZGjr3zNisWgom8Crnf6PFUFJqKbkQRfI30IOZuyQq2+DRRQxHSFAs3OI0QygqNwpdU2AHOHNQmsgaCJABB0CCW0MCVK8F4XlU1xFeNTS20TExEP46KijICHj/XAnsi1pS75MqrcytXs+UriFHItdD6Dm6BftOfxLKBVwpqCVQLBWiiDpwd4EkoPsUzhF5F7TGlevKDREAisLgI8Ck5Y53DDa5zxF69HLCnnn3zx99rPn6w1XPTSuVEJrJdEI5OXNjJBQkR9z44ZS4B7xIVIxJB+gtwCfB6AJeAOyOqP5LK+JdsvPSv/ge2dIVnm74Cy0mINBvHJVRsv6gJCftD2E+h27yKxMkQbrzh9CRvNV3K1AAELkQugQ8Xn449oaFi0qjlSPEBJC6TGzhFrbpIi/USvydcqBVYUGahw47uZ/v2jO3dY/t+3863zDDCfNMwT2K6oAlDPxTTjKx84HE8dwDUSn9xDj1hV2q4hMlRXWVlRM5UbU44iIfgIodQQeQT+gkQgVVR855rpDKpXI5ls93bbmAb1rP1a9FuZtnMSpNIECXyCCtgeWBXoUNHgYaIYjCz8S3xQxwicCG8npJLqHSX/CsROFMIYEryaSh27Xw6Vu5gSkYl5hbZjleHf/zT+J3dGa8IZ0TG4NEwVXFM/EFiLNXYtZIIhhIldEMJSworpZvNK65p+uv/kbU0uWFe1zLYHqnCQ7IRmAk8hKUVNLvlwDVU2xKmEtX8BZeAfR3XiQA9/keKQhvRATyPC4RLEOsdzShccY4SQwrqMwwXG5o8mksJlyCQI81ZCE4VT0OfFzLfZz7cilz6vW+/f/Ro3zu7Jg7vt5zxtFc2glImDNNuTEx0bRJsh+BeBbdRYwFU+2ByyMoUNaGo8pSnqh9mfje14Km1EAHW0NgwdBStkEqVM3bY1pZduabnvTex3uWsq5daqoNfIsGKxwECViLKCjYnRIyqXAKdT09JcglzYC6/kggsFgJ8A12lWAlNw+yOPIQvYK88ffD7303v29PqFHUVvgXcVnGSSxA7DaIfwgKxsVxCtcm0z6FVmblKONjS2v0nnzcQxdmCVANfQO/ZMHO3ScJOZXMhBn68iDZypkmcAAoUbItgrKAZIVIscFisLrrY8r0QuITqmprMqMoMw7DhXIBYBfkfehT/I1IEeD7zcMqqT8zBW2+yw4dKe3aPHj0KxYES+JHvKKGrBB7OWzXgCIR4p4hhSvHJaibAucEloElaOoW2uK5bDjyjKaVaRinvMjNTUAy9o6tr0yZj61a28QqWyTBTLeMseQM2kKY4IT7gDtG4Jl6BoyN4IcklXGy0QLb3bCNAttAur4SBvY1Y60DN6CdgTpEdOXL8G38f73mzRSkZmieWQgOxF+ttTkQsxcVrEaIwxRT12R/WzbHelZf+V/+WXX01DKdVxW7MIo1W81OqkUTwJgSQYuOj7JnX2OAo23oDa2uHspWZ0MzCbhwcFBimmuZWdc/8nuQaTmckXAhcwmT7q6NETC3OdyYJnC9sC0KPhXBMwEXA9u5jBw70vbFzeO++dKmQ8f2058KhiPQIsL3hL5KHYYxzUGjnnegUasfbucElKDWyBNQWQZViDwZNqpJuCUqemmsZCN18Nmdv2NRz7TXGddey3m4GcyddDxU6NE7w3glJqhlK0nrxdOaVfFcisHAEwCVE0HdC+w8bQO4uUGERXA8L5Bv//v9o3rWn23NMG9ZPPkyUkIwQ5zXUKWpxuQQwCAp+olh1S7qRz7TEm65Y/vW/ZNlmZqTJ8er0EyfmwvrScws2NKdjR9mLL+78xj81M3Msk1227V2tH/ogW76UWdBygK2y8XDVAkO8WK2F5BJOp0MuIC6hIkKoAweFLvDYwAk2Mcp278jvfCMc7PcGhnSnDAdFiAr4OWk0rkjwzpOw+hFMOhchRNhbk6i+1omxAVxC/dFbb9ZTreo/XdPgxOJBuEXRDgM/OuKnuhobcPNBJtO8clX7ldewrdeSqWNXN3QtGkkIIVoRId+pBFgrCblCTcYnLbnmWXkpEZAInCICIFUeTbaA78hxBcVpUGKjo8P/9P3Cyy83FyZyMBLE4UxKFKo6aBbpDWv30JVyKxqHU6zH3K9h7w5zKNQBu31cuKbZn23e8LWvsW3vYnaOUfzm006CCCIIQ+iomq+4BfbEM/u+8/2O0YmUH5UNVjD0USu15Mqr299/C1liWZqbzViKCVc0UDAgN4OInXaVLtYMLgguQUySZKrgD0QFZea7PJ4BY1YT278//+rLQ2/ujPqPmxOjVnHC8rx0GEJEpUCwxw2DE+9B8MjMFIGPOTdKsZMUbqvIXRbOaS6BswggGdUVnV8Qx4A/aKOHTYqvpZ1c82DK7tq2reWG69iKVax9Kbl0wmTBtMFM4Vkhf5nKF0gu4WKlELLdZxQBECxudY0zmyiFLCywkWPjDz448vAT7fmCrfomWATaq+DERxNP8I1NnW3FInMJtL2AysHg6klsQgYzqdRN7+v4k8+yzl5mpHjlTy9R0BdOb2MA4rJnnz34L9/tOD6SKZcQLwqt9zS1bKYKhh02d7RsubLpQzeztatA7yLDiNQU2CeyeQQwgpyJ36dXo4v27fOeSxCrewzPXhpUcPBziEWABZ5fYvv2xq++Nvjya8W+vqjkLmlpLY2OGnGcgteiBs9iSAZCbrUH5h22/z6/RsykLH6TMI0sjaGBwAX5MpgRrCCnz8aqh0Ii4KqnIMTYmt16cXL1nZ51vSE5z7WayEbFGwLZwOkRSrrE/VLVyDnCNId9J27NLL3hZnbjp1hzF2vNQOjAEJWhUq7kEur1gLwnEWgkArTai/yq7Dkx9fzABiJoZTZwMH76N4d/+Uj2xFgL6JsG22Iw83gJUdS4RYLCzZFnpNMPrTYjy8kbII++BuqomR5cqJiruoUm+3hb6+X/8//ClmFbn5nj3fl9xVkEWEiGLulTXn1977e+lT28vwfbNbeEHLC981U10uHxYJY8f4zF5Vzrqhtvsj/5EdbWgYiQoZrSYG2FbACVZBHmB/psTzVCgTRb3qdxn4/6ZOhXlqu6SyTnDkI4LAQs8FgApR78FErlJ3878ObO0Xf2pMYmloRhF/hqnF4ycCyl6gpiHmPTTSICDCGo1vAJNrL4S2o24c1IQwu5cocisA4iphgNNXxRk2qcGOdqat16z/VCI74DZyMYBWQWRCAqFCCFlHY+PyO2FPZmLW+ocPQX9zsvHl77odvZ1qtYa5plbRV2jTwCtEA/0fNNIUNnpUGNAEXmIRE4NxDA5BLLYC2LUFnqEY6Nr22w3HNK7J13DjzySC88GmKKRpAEdwfbj2fwU48/OJNN5NsiFRyJbZj50RE2PsaWVtpxWvXgCzvcOmCnMTh47J6fpvuO2cUyxZ8lsSjRa5xEpUMdUZrIhEHWtJzi2LFHHii8+vwVH7+dbdmmtXWTSyYFjCFzbHL35hEhq5WTVGz+/XMuyhKE3JuvzQkjyHuUli7qaZobItAHBkzAymWKClAcZSNH2Gsv9L/0mnt8QB3Pm0GoBS4iHFhhABkAWSDSGk+DhsYKfRLjhA+bGEIF/EHEY1yDAyWVG2cCuLUCT7S40jOUavmD6gPimeSJKX8QHGnGW/yB2pFaO7dObQRPq57IkNgfTk1ikrdUq0Wtw1chs32lw7Fy6RUrsu+6jn3oBtacJbVipAYQQWAqCocH8i+isG7IE84RUyter8XynkRAIjA7AphV3E8bsQ74oQw0QxMPZOzbiOR4DvPK7JVXDn7zG+2F4SwOdoLIgEwB+ISElRQlmBwhPtrkrK51dlBgyLxoCTWHBxmP14LKY+Ol5dPWoY6ma/+nf0eyBBgwLijx5lcTpCW0IytPGCmVnTh4/Dvfil5+o2ncSWu2hgYHhTgOiKwpSgzPBq4OjiD01VAZ3VXSeZS+fO2Kz93BNm6kpcG2IZcBAcNOCTskkLRqQadGZhfUsgvj4fOIS8CSRkNSg5MwJAdkbwc7lYjlESP5cP8LTw68/nS6NJ514qZIM9xQCbj9PhJnHzGieIclXAK/nhwkCmcPkieFWkHMRv5ckmoOW1sglwD2gsqa8hbPdJG4hMkq18y9qOaIqWpNtNhUolSk2AXNGM2lut7/ntRHb2W2xbItcSoNEQS5IiMTFfwBDrDiSMKZckrFq6XJC4mARGBeCGAhBJeAlHAJnFSJ6Mpkj4CpVuhn+/f0f+vb6t69XZoSFYuqYVanLZZIzENI3fEsXA8ni6zReC42l4CNFqimoyMss87szAnDuPwv72KXX8kyCBgvjCrmBUXyECfVgq7AFxSck4qgdgNHJu7+/shzTzWPjrcoYscH/sipOEgSoyBeB5cACKHYVULLU9MTqez+KFj/sY+03HADW7aSZZqwVSKBKoXOmTTNllzCPHvoXNQ4iEWIfAooieGTnKpEizxCCsKQYGycTk945g/FPTuH979thd6SCN4KihUoRkBjBhMJfMQ8UZjPY7VrPFWrZm7O5/W6zzSyfnULmPMmtiYQ2GhwvGaRpRktJb/86987u95u/cxH2VVbFF9XbMQtoZYGxItDhCDUoXJyzQmr/FIiMCcCmPWYQmIhrW5ssYkR1AAMhBHjrLix/T/8fmbguB0GtE1WYQ9YfWTKzlsUJfZAtTSplrY0fMYiQw0mW2AUQjNv2CfS2Wu/9lW2aTOFh19ASCWSIQg0qoDhI5S9KiQnjuM//sTA757rcr0cLDCi2IXkGNwRRb+dgi9nEZCEyBYGZE6Hp1phOHHfz9U9u5u+8Fm2di1LpSFcNtWsCMAwrdA5u0t+uYAePYNg1Q4CGvjoU9IaaLShZawUsDfeHHjyqeGdr2XGh9JuoVPxTZyQBl1EBHcYgx4nWwVax6ct7Y1qQ0NYhEZV5rTyIfMFEsmYUWwB3pCN7t519AcjnUcOWB/+lBo3AdBky0LFJNPxtEqUL0sELm4ExJo9KfhO0ICmE8e88qiCIydGfvJD9eDBaGSgKZVjDrbWIHwiJupZxg7q2jAMVW665KvmhJkeSKWv/dKX2eYtEO+XymE6vaCdZyK5JUw42Ycew4acBRqWXbv6nvhDs+M3QaHhI64sRYKhJ6ayCPTK5B2ukcHHIJ9T9VSxPLHjxQP/78FVt97C3nWjiSi0cYjg9IJROMs4nlfFn4saBwEgfIDC0INDvwWjQsjWhkfZ8Dh7c8/Is8+Fx/rdwYFUEGQ1VYeOCgopMJiJGo4OJCGLw0k7FRpbEdcgaDVcURIRgRcGpyL6I16Z4cgg6lPrWTQbl1AzXsVLye/ZNA58U1FNgiOmj7Px/jWGBVPyn+3DVCZpMv/a+icWG1weR6FeNTo/fsS2e7bfZN3+cba8dUyJLTOnadjNEMsGGjBb9WarhrwvEZAITEFg5t4fd3wEhC0zd2Lw7h+ceOAXSwM3h1WNJmaOPJRVL1aTBU7hYYvE7I7BWtRLtT4OU+MQ1nt6fvcUw2BBALocBrFh5fa7bmnzps1f/zpbsRZuBbAnnPcePVnY8TwkvhTmFY2hiPkUA4Ll+9nR4xPf+r779h4rcozAS+G5KHI1Mjan2Li0ESRqVtU4TBXsCrd2MsOCcVVRUfuZlr1y69I7vsQu34Tz8CKwHUTDsKhISjavjl8Q3zevHBv0ECQHkB9Q8BAaD0cO+i+8dPTpF519+3pCr9kPjFjFEYsaTHeglqMw5nzcYOyRTQ1UUOJYJqrLIokTGtTMs58N8KG5TdOWmyjipEmPQQc4+MTjucJI85f+qGXVcnhkRdg9KAioICfW2e8yWYPzGwHMNb6sYTaJS5p9+IFBPpb8xx4d+M2jPb6XDX0Y6ZNBIo6uOwemHcWjDRI2JTDMUUPPXr55zec/x9qXMD11qhUUSz4AQdwa7lxVGGMFZ/ieu/29u1t8D4aKPP4tmZ8DM2J3sCIkPEYyChIWoYIq91zDIT3gAYhRaLZsveSO79qz95/+ceUnPqa/9z0wsgqtjGbCXUKmeSFwrnIJFDcjpkMW3noneunVQ089lR4faykVW3HCB476wLjBHxi10tDi4wd/iC9EqA1iNTE4EHyYLO/4fXEOyLzwuKgeojCrYKroEGmb6FGl8TGDnceylD7w2rN9Y8eWfuFz7NKNas4AqDgWdgpC4pWpnPxFBaFsrERgwQhwvhyyTcweXJCPA2YQrIPKEXvzrRMPPrChXHRKRaM5FyIQGgKw0xZdCEcxS3F9dhLJ/HnCofaubXkbN1zyp3/GVq5nET9yFl8KH+qF1I5THf4mErw8So7heOz+X+ZffLk58kHkDYSi5iSeb/aqbZ8CQsIeCCoUI/odZKIadjWUr65pQWQpRrNb1A4fPPzjn/YcOZq+7TbNTJPDljw2cn6ddRa4hGoPi9Eh5GW4yVd5cADQjgfM99iBPc7zzx999uWw79gqyzLL8AVyWKlI40rTaGnDC1xQJQIq4eVEbDCD2ZwfFBfzU8QuVKNTc81LFI8MtFnGxMH9+/7hH9b8xdfYFdcoGQRe5QOGgknQXzp3eypffzGDKNsuEQx4a6kAACAASURBVFgoAqBhCY9dLLBDRw/94F+a+4/rQTnb0hrBx1vVMDG5IP+sJX4KM23iYYvgeEFoWl4qNdDUtPHLX2ar1jE7HTgUuDWhA5UN/byrC1EwRWih50OcSRGyHW/2P/lMc6FsmpAiQFoMm0Ry6BAQkOlZvZQUCzc08vKgH5hQwXrCh3rE901VyaiKGfj2yHD/Y4+2jI+33XY7W7Gaa0kQnIqon2gjz5tXRqYaBM6MXcJk1+JKLCtgEVzOy9lYcQLENNBNLPuOw4p5dvRo8OxT+x/9dYvrmVFkhLCti/g5C7R6JScpgF8UnysnfCAr+jqZcySJEKESZ9c4zD0aZg7HuZ8/L4dVBTHSBlYtOcj6gaYddVRoBOOmGXYv67zzK+zK7Th9knHHB3hA4Q2bvI/wFEemgvx5CYSstETgTCOACUTmwDR58OfwwfFvfiNz5IAyNKBhm4TZhA0QJ16V+Uj1m42aCWrVcAqVnNdAbhfQRapFL57IZv3LN634/J1s/SbEdKeDnWq3CtOIwBT+pg6BgISECAgRH4hSSmzP7kN/+5/Th/d3WnoYlmFfJg6FFkCJSAez2X5xoDgAFBWBg0rxYOj0Pto/wlgNaGu6q6quZZbaO5bf9d+ydesgbWDNLWgbeXvxEyj5uTYNB5Lqdf6mM8MlUJcJjJI/XEDlMJiRxDZWJDrB2aUQCIcO9f32sdFXXm8r5lvzE7BPnIosfzsZeXQ9dc6Irq2dL9XS6nbQ3ENh5rtzP1+3iPP1JgxGIbUjMwXNgXZ0Ijb8Jat7vnAXu2YbM3RmqThRG/Mqia8kJmcdInC+Nl/WWyKw6AgkvDgM8kM2Pnz8n/+RPfnbHsfh+vckCQvEWpvlM84lIBwC0T0LZuSqPqxb+oZNnX/6BbZiJWtqoSV27nQyLoGoOVZv2F24E+z4kfK/fs959dVm31URQhdyAXhgCeEBwidRNWbS5GrxCXEmwkXrwuRakMSJqakJlDjjpl26ZG3vF77EtmwBQYOABFXQGULxSC6hTo+erJvrvLKQW0JuQG8kvUghQPj0wIWK8xHQ8TgcHI6wRw6w117b96tHMqNjPROFLCIfSKXRQpBu9LMQMUJmgPOwMDOj2Hfj4YETd/+oO5tmG1exdA4RXkTwSurJKbTgIuKlGo25zO8iQoDr+PgeemKYPXr/+DO/X+L5QRAY8COYmmbjDM4EWJjaWMOh5lfMom7GmzZ23nknxSnCEXqNOB6aiAtFtgnZ2FD0xONDr754CXEHKtMtHNiABpJ3GxIxTnVZhBpqMyNy3Wz4gPNIeZ7ef/ztv//b9f/mLrblKs1AXD1seSwuQ53tvYv3/hmk6UAfP+hrWnigc/I0iBCKDhvsZw8/dPSfv3n43h93nOjr8Z2OVNq27dlUUBdvX53hlhM/R76RiGjWkrItHPF+4sj4T79PRM0rku1IHCqKVrv1OcMVlMVJBM5fBEjZgDXJKbOdrx769SNLw6AZ5lbi/PZzrFWexkZs/Wg23fuFO9iK5SzdRCfDnEYSRz0KXwXap+IAp76+vb/6dRbnVnglp1RgmdM/L2qu+kEZnfWK6cETL3/z77E7haYbXl0weJ9DnTFXdhf6d2dM40AqBm6oGDGnAJsXlh9iY5ghu/b8y7favIIdwpzVR1epoUZxNcBCKgEkTrXStoSdnFXjcPK+ShRX/MGzyaGfvKZn9QluAaRQlBfOz6kBOYnEsKTSR6y0svWa1q/+GWtpdu2sBTMFEhdxxRAPtHJW6y0LlwicJwhgYsGjwS+zA6/v/+d/TB861oaFikLOYw6Rz9HMtKhnPM4sTtyBCF7PmIO6OtjVc9lXvsouu5oZWZIyooaY6/XqOSWrehoHMAeIjCDCz+AYWqYYbN87/f/hPzT3HdL9cQNRdkN+8LRK9H+2ilXuYxtTl+aIm/z1mvWiNjd4S/qq4ajp4+mmS//qL9mV14ahruYytEpVVh25BRKILbLGoaZbyGkRpghwVcAIGTvGDh8dfPCx0RdfWu6NpxBpC9wD7pN8KQp1spRpVCSQk40z+X0dBHA8JtM8UipA8AM7UCEBCoMW1zn2+o7wx3d3fO3PLYS8ogPu+TwkelF3utbJXN6SCFzsCMCTC4qFvuPHfvg9+9ixnBcYtKLRIXMnX3rPIHaBqo7E8Uiu6bK/+ArbdBXT01A9kNb4pMv3nJWkM3r59oICMHiFI/fcrfb12WWYs2MvCQToeKZ5lDEbizBn2cmX2PhEduja/PzpAz/9+Sq7SVuxgVy4asPnzSeni+CZReASeO/PGOvYbvIgo0GJDU2whx879vTT0fBQi1uwbM6RIjIS393jEGhfh7ujagQGnF6nd0FyVOP02/hc9W7A9WyCIyk/qAPczFsKwlmyEAfOIXCCz8+oRc9wBSGYhkyhePzpF1pWXaa/+2bWzN29OTcxMxt5RyIgEaiPQOSwvoP5e37MDhzL5EMbTAOLHHjlMWbG2B2f3iJcv8hTuevo6omW3BV3/QUcoVkAdwaxLZhzRzBVwFBtCbkzCs6gtnXgEn75cOmVlzvR/NBP0UYelhAuEWqKlVc/rOSptGT6O3zTSilIhY6978CR7/34kn/zX7M22FtgVzT96Yv88yJwCXUQxVDxWJhnUDg9/+rBhx8zdu7tVVTPLStxoIqYRxgXifsKZyeJo0RfTeUSTi6AorLlglWnBxZ8C71AWFbe4xfczDgd+61+eecv7r1q9TqWzTCDx4Yja+ep5GHBJcoXJAIXJAJ8oUz8gDhlIy9wL/rVQ0MvPJ0addKqgdDDYgOD37R4nU2WGzWEyYTqaSq4lv60fcUXv8o2bCb9SMoSsRPm30m1zI64prgLvH0UaBksQrn4ziO/7CjlNcTCobWI6AyCvVHAo/mAgBWhvsbh5HWMFI1i+8a+Eartkdq3d8/gQ7/o/MyfsJ4ehsOAZKpBoKFcQiJFoHGWDHTyWA3LzlgWBw/2H8z/9O69T7/YFaitMGqlkFjYg5KXA3EIxDziwCas8aoRInoPXVQ9+EWFK5IAGm9JHIyakVQ7qmY7N2GGaEKOhboI0BTFubBTjEJEd6CDVJaKnbZ8/9G7v7Xsv/lrptOprAs5CK5uifKmROCCRIDixPGlj1rnR0Xd9xQcXvvUs4PPPN+SL1i6qlM4YQqtCKUDyNrUWXfmMCGqCqczEGG4qSt6OZPrb2na9Ok72KXXMLsNTgdwakjo52zbgZr7Ff4geQN5VrkElEPn6eQnWOz1f/Pv7JGBtF+i+GyEAxI4JpJYYBWnDwmFn51yV7eOU9iFSvlTjBLEzofKQObCx4TH3Cmbltaplo8/9Xjn9qtZWwszJZdAKFVTQ7kE5JoEyeLnMwF/BA7zy1l3fPSp3x36xc/bx8aWBZEyVjR12CfiW4q7SVa9WJMwHCqDjPgDLsaW6WwhQCe1JyocCnySVAOdxfvIjMMmvzSwdxd78Q/s/R+geCSIykQTejb6cbbaIcuVCJwbCNDMCPTAV+wUe2vnnvvuaeo/kUWwOFp5k6gwtM8mKniWJhEtqHSgImwRirZ9KGZbPvd5dv17mJqKDO6WXp3fooILpM9TW8XdqJ97Nf/CS90ezDY5Asna0Thx/ywsAooiWkUaDVQCrcY5nK4SOJ3ppsH77+vcfMW5MWLOoVo0lEugbsaiT3wc/qvo+/ExNtw39MCPhl5/paPoakU3q9tKOhMGIexca8KH1EWkwg9O/bLW/mA+tgi1b9fmODt3WrcyF+vNSRaBg0cMHJwd6Lj7FjfY9+sH11y6hi1bB5WDZL8v1iEi2z0rApx3JpM8eGxBaqqoabb/4OHvfLPlxMF07Ok4F+VcSdgMuHzjbjmaecJObfnil9jWbcxKQ0y4oMg1VRpby0WARags/oIrwsGP+RM/vrdz1ElBcFCPL6pIERYJIFUL+fETqI6CgBBwp4ihBHn7rbc6T7YsLVKFzuVsGz5MafGlUJcBwik67KWnDzz6oP/2682u26xnowBGcT6EBGJ1F91xaqNhpsbhXEb5QqobxAwkaYDDsR+P7t3nP/64ccdKw2r4QLqQMJNtuUgREHtVNJ78wKF8KBTzv3zAOnKg0y1xA71zCxYczezr+pCd3vjHn2TbrgWL4Mc4LLqiPl5IZWdpGdrMcxsdcR7/nT081uT7CM4E5/cznHhsWdrwgAcSimzdUh1Dz7R11GVZznD1zrXiGkzc+QZdZcWQjfSNPvbggUcfancLbSEcYHXTCdA3Adki0DFn1BncNF5RFsSqJgCeGm/Bh0U11ZdVnGs9dE7VB7ALCyY4O9hh1BaFux957Iorb2BXZZmF02Nr4T2nKi4rIxE4GwiQJIFWTBVig5H+4IH7hn7z8DKvpCKYkp4+qTT1jNUYm64IWsNMdjCd7brxZvbRW1gqFylwP9Nrz1ea/za7nnRAtAbHTzO2//jAb//Q7RSUlI7YjvXDEkDafNK0ANPFGZwIsqcTcWGqqePAiNjKHAuC1dddVyVi9Wt10ipdiA8sDlmH7m14rO+pZ7pLTns5SAU47Eulo5zJxyQZP+AWYK2DO4tTgwuxr86NNnErZVLm4XeTYjU54dBjj7PBwerZ8+dGNWUtJALnAAK00iksP87yI2z3rv5nf99cGDOgxZs0pDsHKknmiqpjpfa7Qe/NN2c/9SmWypQ1CiXQqMpNyShg+d//Ll2YCNxx8o2fn+dao2qS5INCVRypBSu5CD52ZrZtHMajSy5J3XQTnRIp01QEGjYOqtkGEKyNjzInwEDLOWbKw0kaJjdIpLISXQNnEXCWEP3ILf3pD0rAuwC2+lTLA8kTPzjeW4tAWWIljf4tvfwae3N3LZdATMSpFiLfkwicnwjUH/Lu+DizLXb47QM//4F/cB/CIZDyIQVBQuNp7ynj5qr6gK5vuPWj9m0fZ03NoQYvM7gdYIqHjTMjr8gGEFRvdKBUHoZlO9OmnedXxQRggpNaLGaKzBA0J9ScmCI8srIbFLX0ps/cyZZewkzysJOChNqx1PiRCiNZBjkSQveNFa1A1/ADjwfhDcTlCKRzqAqT5pIqNb5upzyLzuKLU1Zccj0QPziTEXGoOHNwBviDKe0XNaKTvEPPbzGtLhij/uF3ZIkSwnqVGATRc/Wp5lmEUhYtEVhcBJIhz/8IhtqxEGWgMDz687vjt9/pNdIZxfIRtCzbVGt5vbiVmpo7yC/9kOslkY6A6SVdH7XtjuvfY9z2CZZrCehAA5NbECA1ahILopHEZW5etmICOpgcgrKpHAcydRKubVizQx49YpHxwVkAfqS6MF1E3LhBFnZt3cIu38yaWqXadOZobLB0BWOBYivjcOFUKpfLKTjPic4MVLk7LAUfpQsafzwSlyi8VoVVs+DxIN51GAXBYYjBW+dr3sRKZIXJ9laebNSgn4nkotxBdX2uUDOgryFOq8oWUIPoMEYKRkkzkGIq062kgWLKnU6d6seNV+ArBfKH0khsahsQ2BXA8R95c+eKF55Vrr+RKVkK20wdLJNE4OJBgOIioLU078iZEH/AxeP4IOzFhws/+ZfBl1/qVU2rBNkppHBxuViE1dykGHXyanEQq9BV7l7OgyODmMA8zEZsVWXQYrnrrmu+6y9ZKgvSjQMZQUcwfwWppl11lUTXbupq6XZNrcXEr0dncY9/qWlN19888cwLoyMDnTisOYb/pwiOBA007T2wbOM5g84MxtOimFkKm6zZJOmrqYt4S1gkTKsRmBL0BfMVVtDCck9b5jO3sUwKwhNhezFz93oxE7TFaTt6B7Nk6tgSKzfW+KogIdkJzzYAFme+nF+5AkPgxo03IN4Hl11lgLjChu/c6fBMzi6cIeVNlRGhTkbUVvqxIq9/5+usXGDgCxPOs9bs6fxCXdZWIrAwBDAPhegACw8FNicWAdOzxPxh9uC9A88/kykWUx7fSYO9xr9aeerCimrE01RXWjXhwjBupZq2bG2/7XawCKGRhhSBzMsrLEIjCqvNgy/VWLV7l1796U8Pm6kSTqMm+s+pGYkQKrud5KXFWZ545ugCUFdXMYKW1g2f/ChbuSxOm/4553dSi95Zu258NxAXhlw1hvNGI4gOKiPurDXxfC6YfECgYiB+CnGLdEdnLsUvwuFYJaYUmYqfMsKekxGQSAnn1fhunRtFHOZ57OVX2YlBlhGcezIK5n5LfisRuGAQgAodk9BjEXbHJpY9nNRQnGA7d+/71ZPZoXIuguKVr71wG8BJTyII2RlrfHUXgQuamnxHobKCZeir1rTd8SW29nKmVc5ooDqSAEH8NKyOgjQBAewiuprsm7enr7w0n00HcDJQHPxEKn4ge0b8R5Kb1p7f27A6TMkIllX6mJ7puuYGdt27YY6gaLFNwgWZpiPQ+OUEXiUklNaYq5HsSMiEZqoApldEfp4FAXIDiVVfhfrQzBt23tQ9CAWxFpPygbhvvj9JXsYuZZZsFve2GbJc3mE73mBOGToJhKrHb9DNaWK+xa2EzF0icFYRwGjnxnj4GzLHZSP5/gceU48ONrmMDiTGROXi7LMsSOD8QWyoo7Y+0tnR+aUvst7VcGrgR7FQWiwKUtkuAp187LO0verOzzkrlo5Zuk9xGiKfLBkRUSfSI4rbVjV4X5wuxfFBekGzSm3d9k23sM5LYE9PxwWQuFYSremQLwKXIEzYOlrU1gwd5DQpJOcfkp/p9VjoZ5HRQt86754Hi2DQ2SP6sBcEHd1Oc+dEtmXQtIc1vcBMP7aYllXSTWU38gIhToD45iwYTyNsWbvrH332WeYUuTCB1LTCRlnOufNu1MkKLxwBrDAIP0q+g7TMQJBQmvDvfch/4fXe2LSx7NFOGhoH2sgjcfuAs5BIaxkFZUUZSaVGepes+Xf/PVuxnNlcisBD5AsW4fSp6zRazw2a8UPZ409OMUgn09uz+rOfKXQvPc60QTAJaQu7HUhciEUQRwA2csGurRE2XeqEZo3lmi/99GfYshWQ0CqRiAFJ5GrKo41asc5CbzesyAZbLwJfrFJk625oZlMWlnfVnS6+kukUEChPjJk9S6OlS1v/8q9awTAM9LODb5X6jg7tOxgXS7FTalZ0PZ0BEYJZFAXIXqy9wFx1B5dguAVnaIgdP8EsQ2lCjAyyXxDzba435XcSgfMfAYxzMdpB7uj8uokye2lH/1PPthYdHgeY7AAqooSz2VpUEvLdcsqe6O5c87nPsZb2IJ2tHOK0uBWDXgEFTK4CuglPD3XDZWvu+NLhu3/gDxwcKY23wvQdVRRm2o1kEaY3zdP0Y0qw/uab2bvfxaBnQN3IgJIUMzOiL01/9yL83GAuAQiaWMl8h5mq3d5MXnvk08LVYOAQTwowrSznQ8LOIKmqIA4NqbNoOwcJA5bOhgtDhZnt2aOs1HXLe9nyXma1sHUb2bu3paNg+fAoO3TwxPPPH371pQ5dbUU0N4j5Q7j/4tzGxnfr3C2ElTJEhkphwnv1VXPlShhUhgod4XKm6zF3LeW3EoEGIcDnKlazSZImGAVabbyI7di/59t3Ly052ZTu+i5uYovMrbaT50kDu9i0Tvg1TC0FW3TfstzO5lV33sm2bGN2s6JatByjPnNS54TMndIORCBTQ90SKypNNZnRxi6/fjlLHbv3X5UjeyGJFDzVnFud2pxOsTtLuqqsXW/ceitLNzFmU1wG5Ap7EoJrTiBOscDz+7VGk3FimIEynCFNvbklEMJvKMvPkoTtpJ0jRpx4TIyOKAI7Q5ckFaTmEPeNc9JgGUByMxyuGjEbPsW0aSctZENMLsBIJbYF3Pi5QktUaOyibEvrxg2pD9/KmlsYTotBCuBr5bEV61i2qfuyy7qLn2W/e9zZtavvjV1mUM7qBs7RoKDx1AZ+yhwnTw2ppwCqzm9Eb1Cjdls/9MKL6z50C0vnIOCQs60OUPLWeY1AhSaApPEJVruogGp4auwwp3T4+9/tzRezukLWCSo4ZnIbwKOJZe8prbULgg2UikeoqRATrIKqCjvBoqGXujuWfvZOdtVWCBJwggIZMnHf5jgmElHj9Ti9wNNfP2sJAnKj8+HI7zLDrri214r7f/a9kX17mxVPC6Gg4T6lImoChVLgUC8cN/IR4+0gLohaSbCUDXXEsjd95WusvZsZFnOAFo8JTO2XRGt6v+Oz9jd/8zd1bp/OLcCNTa2H2Ive8FPPWIW8ZqpGJhV7wWQvE5+LLhE9KArDsOFr8plKnLmHqAPuuhgeGILQGpJxEbgEzU5hJ+8XCloQQmk3EXljpt4P3qCzu/eGG6yerlLfMYvs88hgeIo/8SlWnqKEwiUECpoITtSYIeQupUdxNBIYg02X9H7hLtazhFk2ORdjIAM9SAtQAcR0Q6QwWB6tWq9fua1pxaUTsV4sjKdUJQw8M6UHkacoCFKCanGv58VEV7ftiVIpVLSWy69iLT2aYZBQg4sTFrPYU0RcviYROBUEQKKw4uI3RQMCJ46FhZu7xcwNAh3ufN7YyL/8o/LqS23lPHM9kAg+C0Bm8A4khHzzgVksPi/S1IhV+P0HGhE3lIUVF0EUFU0fjdx8V3fnp+4wrr+ZtSJUgc/oUEo0gTM8sGfiEQers1VcC7ossKI2VH4WNKnxMKf4SeK21/wj/gtb7K5s9uot7sDQwOBQ7PmGquEBEELamykqtmR8tcf/Kq+A9X/qil7P1oN8HUEpYe0t+CbFcFXloB5d+tUvscu2slwn1UDjLAJViIt4uIWpkC3UNBdFL6jFlaZeEH8bLUsQoEDpgPW1o0eBe4mOCRHiAG8S5kzr17OKIKYuTYDKJh4sA+3mMa00LY4gLddLmVw20zQaB27nks716y/Zsp31LmdHDx373g/SPIxBvWF56k1KKsAz4NIEPdKMMNu0/mOfZCvXMdsGgCIeCn8CjDYGrgobIGjSFIRDsVx2Q+eSzZez1549cv89bn+hJXAzaqQtVpDTGS2NA7hapyEzfPtttu5SNEecJX2WvC5mVE/ekAicPgK0jFTWDr5q0PTii5CFP6Uye/yx47/97Wq/xAMSUHwxojO0wiVpcUV61WJqFA20PkJUYFtFO9V70/vM97zPzzWrYajpCEVM666o0hmOSZys8MAQZALMipKDKVv75z6vZ1sHn3neGx7rVnVYO2E/xOWsuAB/IMI541Xy75rEdM4rCtmEhIKwE3PdIdta+f73sWu3s1xbBN9HvvrPN685C7qAv1wELoFw59vWjjYlbYXjsE3wPQfHq8+nLN6jSVqsvqMNORI22VWJYVyxWSFj5DivxAU75Waa3BWru67azK67mrU2saDIDh8b/Nm9qYki2HPs+8kyuGb+19R8oZdgmEk1AJUGrxHOKIsD3SibVscVV7DtV7MULblcFcIpU5VUEZtQKcvggS2belj3LZdsWH7iwbuPPffkci+CcoRb5CyuxgG1iOhgBzXl+947b5nKrZFqcTmhqG6lkvKvROC8RoAvNpT46oKdhc8wwfQ05mFhgr32+oG7H15WVBEOgbQLgs7QDEhmaZVF4HksFn0TekZOTEhuT3rSlH5cCe1tN5kf/RRrbQeLEEJiqvH92/ySmMqc+iSpSniolPllUvepxGow1umQzKXLmj97R6ZtxeFfP+4M9xuhg5izoHFwkgyVwIghmwGq9vxZBGz4FJjSc8Wrq+nFlly4ZFn6M19knUuYYlQ8TqbVq9oyXNS2rFEtrgvDOX1zPiv3QhqAcQTs8ZtLjCLbCEwVfrChFxgI23wupRCKOAVifdgcYL+th2R5oDqaPoH9eXfPkiuuTl15DVuzhmXSzIZopMgGRo/97J64ry/jhTpfc0mcwH83IsFFOCLCQrkhhKsRGGahra3pfTey3tZS4KdZCqIOURSVC3Sr56Tgru8xi5iWKHDUlMnWrun+4p82L+k58ouH1NBDyCOK4iLkio2oa908ojCERYQa+2FhBNFlYMvB46LwUNwySQQuFAQSk0UsGSR9hHiPYo/Capgd7z9874OpgbFm0BPS8YtFpWJvdGabTxMP7gJc0AF7/mGNgZp1febzrKOb+b5mWGARHKdkWXSy0VlN4FMIKMSjhBY1VAytpV2/5SOr11y25z/+n52qmg4cUEUoTUktQgIF7li/EJKCLsIeEDtC2GQcy9iXf/4O1toF6Wt1f1fZzEyDoZYnOKsInQOFN3rlBvYYmpAlQNmTSa/cvHHvOzuXpmyTNEs1aVIgNo1fOxOQYJhB5R/zk8URZz1y2XgU+Jl0MZ3S161c9YH3G6tWs2VrmY44BQjGhajDeTY24f/0Pnv3fiPwUzBfAFGY1JDRMD8dbrrSZmI9IsUHp6wb1pDrt75rG9tyObxFdDsj5pJ4EjOGdI0VAyq6qZmoQ4D9vA6gQQVMs2e5ffvn1/Vetvfb/yU1cKQTYgZiFBY34VAHLXZGThy2R44rTTj1Dlz/Qib0ItaO5ryY9/KIiUWE+YLNOlkzMIeEWQKiI2BAcXbdUeBe5EXjP/pp6uBhW1V8sjICD0EPzCAMiz0Fkw4gezzNCnwHut5x0wg3XNl119dZSxMz1DjmZ+lEoQ2Tptnk9mdo1tKiIKS4hK+iKWYaJhQMh0Bt3rDhf/2b0QfvPfjMb3t1LRWrmgczcoO+xRatIsKdj5YEBoualco74aiR2fjZP2Hr1iMW9UQpyKb1RICMxiaikmQXNo9RnIwH/uQZ6tN51GqxHmk0l0CdLX6wlDHW3aFmbUi9kjM0preiFuvp3y3qZ0UzYl33Fd3F9FajcrZpxdaty969jV22gTVlIysdsyzaQf1fcFghf+xfv2u8/npmHGfDiznGa46vGzidyNSAdh7wT3DJhWFFCo46pkWnZ9EwnsJmJeIE/gUlbsoLzgW/gTsOmSnCdDhjsSuuXvvRT7xz70/GxkdaQNiE4wN/o+EJZAl6Elh0eKVxNnCcXbKCGEYSKckkEbhgEKCFH//58XXkcEwEFEZXz75UyA7AvwAAIABJREFU2PlGG+ydIUKLAoqhBJaZrJdgQXiWpgB2QVaqrGn6ijW9X/lzlm2GsbMfwcQSknYywTpHEufaQZho7adlGxtISEU1nV3S23rXXa0bVuy5/56WgtKsBthrUjwYnNKEn/klIqcsngiCcSuz+gMfVq5/L2uDxSJrSguFzPxyueifajSXIFgE6mwual6+VM+mooKLUyGrSrpFwlxYG1T2rnPPTDWEJMHIjAZBuKI3d+m65R/4AOvqZi1tUJKEuh6AdcVAxa6h5DPP8O59dPSp57tUV4HBQIQvOW9Ay3NSytyFzae94hRXsu/UWMFkx+EcdPv7qT6ZJiUIcYwrCiVr6UrC6BeMAgWH50l8B04AIUKQfJhdaKrWnGHvu3H50OjRx36dCQoGwwEQlDAnSc6mQCmAfE6/+hwIyjAOIWYJnXLf4RRcrRqQsajvufi79sxM36+cozG1prquY7sznx3PudjC87xO6KA5kZ+2RZn/YOU6Bz7fInhJQ9k3MPL6T+5Z4kyARVAjj9YfmgtqaBCjAGVfY82c59ctkM/7jmYPNy1Zf+dX2WWb3JETlgapAnYQoG3zb+z8SjvFpwTRAlhk40mqaoqxglM0uYQBJ8JAFPLhj29Yvu743T8b3vNWS3nY8hzdRFSDBZQHWufYtnH5NcqHbmVdK1zXVcOiYSEM3eKmWvow5zg8hWqIobvYLZisWKO5hErOfA3T2ZLlQbYtKPSfAhILeiUxSKR1KnmPpPeVLAAnXw7B58NpGMYHqgNWwE5fsn07e8/1bMUy1tTMDJupJo8YCBdHDFdI7iO4PjsPP3T4sV+vsazQcxBUEgMUlrGc511QBefxMHEfOJiBFTWzbfu17PrrAt/j3QNVHPk0oUTROFFyMlJqXC2SvuR7F66OUPw4sDvarY9+LH3seHHXS2bkYXMDlwiyHSbGBHkK86UGDLhEvacoMIPwBgZSPtxE4GolHB3m0fwz/UjtIiGaP/OO4AWxG8EFqBgNDf4bgwkqaeEKS2+Z+UL96htQWukMv9EfEHCCGBL3jFWm8ps6l78K/WziDdKAvqhfmXPjrkC5OpKptbXDulrJ2puVSV2/BbPMxKodT1JENcNZnq+f+dS71b5BK3BN7EIp2PWNf8gNj9ghtOceqQIF4YHDMr1bO6jmU8IpPENFCHViDM8FknKgKsZopLldS9Z//qts/QZEK1Kbs9yonI+300CgWj8BJ1HCCrBgTKDJ1ZXKmlLbg/NqVgUr0GCaIymGMyqLjrbusiV39XoPPdD/2jPa8Imc79ghbW8I30p/8I/4QDmQ2BUyWWKGwMSZo6rhdy1f8cefYe1dpCOyUgZOkcA2KjYagAPfMorBQE0kbJNWcGfXZEpTVUSaHZP6TK3wvKu+fpb4u0XgErhTMFmYaCmW6Umt3OwNjLFogjvcJAiSrcpkOt2JxIMI0NJOiX5Tp2A8YNbit51KuyNjiheZuSZo7ItZeyhjLt+2LXPteykIQXc7I48gEnLhLVRLYxrOTDDhMhDl2RMPjvzhkXZn2FBCvtzxZ2goJPWfrnavlS5O2l7QmydPKWjxjUK5ZC9f3fPBTzK7Kcq2Y+8Po0/IYWbKSDCNxGQnhow783BdaTJM8RVJH0ybBQFb0rbk0x9/+39/vc3IelERa5yCUyQpFCYWPYA/OYZPXsk5n4BwFRFRcji55cQoKzs40GXOxxfjy8mxNNuo4lMav7hlCY0WTAGxNVT9qBT6gW1lqGYUtkIJyyUNm0HPoW4olpjrs8ERdqyfDZ1gA8fCoYHRkVFsFBzHCeHc4Xm1GwjkYdt2JpttbWlRmpvYmtVs7Wq2ZBmDyRgEqjYCZOlBoOjoIwqt7eMcAGiRyX8cZ3GgYg3rlsXAeR55ivk47UFitAl10TsYr4R+DekEEtjuGiKmfvVdMdDxDghvrWE6hnCFkMADiASEqtAIIvBYwKXq5CZM/YsiqvWZJOvVWlRLmm3UTDZDRPsRzDUbLRR+8XC2b3Ap3BqiMkKg0XNUEFWLaKvQF1JNaineZG6nc8V3RBFOgkNLIxzpwge0Wy5mWqyxcnmsc+36T3+Zbd/KTCW0+GAiSsFpc7UyAthZKlGLxbQHUTJWWqI5eAg/fBnBM4GCjQ3K4o/Tr7qDYJby0FekXYVXJD1ApwZC7pFCSBjYj7WbX7xz+QdvHn7hD0fu++FKcGBF18Cp0ygc1+DAQ2ZVFK5YnWPQOISJiuN8pBSXrl8HHDZewQyloOAL1cA4Qf+hmlUXVSGmrRmHlSpOHw+VEcN7UwwCIehNhjF6AJsK2kziwEl8j6YAm4BCViVUhstyGMgFBNkWaD4S9h3w4UAMLmo2/a5Fm7cxwZHepM/0IIceqfHjimc7JS0Cl5DkjwmsMytnr1jnvfJiFE4senMALRDEbxoKdEE9FcelYj5GsIG0PqxqxVy2++qrL/3Ih1h3N0u3MBBoyK/IyzDpF0DuucwCES8Ohc8/uff+n/Xm87m0wcro6Mm+m84cTEd1wZ9p/jqeY2hh+5Kem29ll6xjmVbO+wA2/K2T4cx74k5lXFOTECglgD2jphprVy/fvvXY7x5vNljWMHxXTO462Z7WLRrBCPKglsfyzPNZamYdTyv7Br1cQUiwdGLM0NABIxiBOWQhzvwt8emnaOPjzC8Gu3fvf2NHMDKijI5ZJUdzXNNxUl7JjMMM6RPUZmE7ggEHt6tKApkDncIqFWiaZ+rDz/1+MPD09s72dRuXXXc9W76S9SyFVTeOC6TCybwX3sKJbKdBLT13swFMhK+oIE1XnvgGkbCkzV5MUzH0Emdf2AsjBAu32hdPEmgQ6kFCY6gwlIa7HAn/iQUGmLpu6hj5kM/Q6bT1kqhAvW/mvseJMk4kQsZumb340p4HH+4cG9bTKfgWcvo96XKccD9z53fa39I2mhYS8ig0oWRM2UWwq61daz/8EXblVSyLOCsArmYtSTSmp12wyAC9QFMHv6OCjzOkOIc9mWopQLWbZysazPr054nSIpqyZsNfLs7m2pd2tXc1HXnwPu/EsOl4WVpj8AQdjUuZ4hIxFYjyY9tkTARh0NG77o/vZFdcgyPzCk4eAegmRcyz+EHOVjncr87tZPAAVLQJhfEuqEniQWLe+CCHejfmLB3qh8B5BBlOO4KnSbJgId6GifvY6OIB7iIoYEA2/EIAR40TZZBAqFqXKQUv0ofF4BIqDUBjLK310g3HH874saHTjn9R2lbVrEdwBKYdNLDywWmBvcdXSrajz3EK7c3m2jVrP/YJtvFSTKeS56csCwaM/AzmKQkCcyga2Ju73/nO93PH+9NgI0BuFBzaQnkvUjcgW0g+hlmQvuoydvNNLNMMd15Y9GLdqi0xGSU1twR7M/N+9RGIbSgLQ7c/+MH8i8+nRkc0SyeROU0XonWNTKgHx39ibLyN3MgXY3Q1qL6I2V5tu+LB3IQfmoHaRyw/zsZH2N63vVdfHjt4BJIw3Y9aIl9nsVcsWKpq64gmitC2kOUAR75P5RsXLGJosOgR3IMrGj0CIawfYIvXonotlh6NDbmvvLDj6afN1o7l6zelt25nl14KF3YIGIrFMJNt4d4rya6vQU09Z7LhwxTzDU0Us45+iwEO9AKSmVFAQEhuxkfZiX7Wd4gNDbLB4ahQHBsbKxQK8PMXjYHUpTQ8lslkUp2tML6xulrsrna2DKLBDrZsOQt15lqKZxjpZpI/Q0ID1qPKFPIscBfSG1xwOj6NyotC6vxGZany9LLPdu/c/f3vdJfGe9pbI7eEfuezSbRHrBpT1446+Z3WLdpaoFGRhXitOEURJATGVhNu7Ld3L/vwx9h7trE2CBhoo1FZXXhTqZKnm5DN5NYKC7Obx/k9uVQLuWTPqmMUtZit+JNgRZo6/EP4uKu3X3LltYU/PH3gN7/TBoZzbpmCTGLe0t4aRmPwhcDabJ8o+fEla3o+eCvbvoXlTKzBtCLwwvmCvYBUl+hzuMHVRGhuUnWRLYmZsfNECH98JiUMjQoyZOUlgkWggUKcA7G/WFIIFXK2o28hhyCSAb9PulsN4oNpMsmI4JukO2monQS1BbRyrkcXjY7zORkZKfWS5WXLRhyCFPZUi8gBUXHIHgMEPUITmVsoOpo1pJnZa7dsuOkGdvWVrLm5VHIVK61lKFwHvQKgwbyRjS0HXNjQ7nnrrW/8bdvIUFdTNh4fL+URpszgvg2LlRCqIU5nylZ66cc/Qge5GgYWcjpcDuOelnkxGBY0JPBwMrxJv6NTEIVlW7c6j/4GwbPByDZcHEJzj0OEkV8qFEhwjDDXXMN4LiVujQE8UVVUmKYuNqkOubY6ARsZZW+9ObJzx8Tbu7WRIaM00aroFtgDH/LsgDvPUowNwjUKI9/H9lHYJSW/VQrxOsl4hQghQYGwDAwfWhsRgCf2/QIkxCvMjFV2Si++OLJrl7J65dIb3s2ueVemqZ020MKHhnsIXZBpcjhgcAB2OmieDD40TMC+o+W3dhUP7R15841UYULPjymlogUFBHTUmpbGcCL5DI1qE3tDUJiCGxaHiko4jqNSDdU3lDIYg96lyzZvMa++TuugyDmk3CEqq8PqKOn3BFYx4eeLsdAlJQsMhNvl4vDDv8yMnFiaNgtjI6BsVpV4zzfLBjxHs5jWKrQwpEiCmuVm0+nLr2a3fox1dJGWlFZQcvkDtwSKh8eJZRArFsqvzNlTqgqmEs0Ekr2VR48++sSyy7ez5nbWhAKBNre8qewLk06n4kTZp0hMY5wk2bMiGhvJfuyPNr/rvYPf+s7Am2+aYTkd+XaIGPdonkcmCYZVMPSea7cymKU3p5gKNlFJpTN8b0QVIAZrgW2eBSpOYzGA8ZeWH35BEi+yY+V3sHdQ4z3vJO0GF+M4BqLXI7g+aDI4CdQK6kjIME0Mc9Qf0OkqlOAYt/yATGrT9KqS2IqenX5/sT4vGpfAKwwRqtnR3XnpZcXhIdOfoKUvScmegH9qED0ktjq2QxOWCGUfocC1E27JWL1h5cc/o+IcxZXLiFJE5XSWewmTgpPjjN8KvJ0DE31GNXbZjteO/+RH2cETnUYUF/IY12kEBQNdwMY76bVKI077r5JOY1NSmpgIc82jlrH2Ex+D6jo0TKoaRjEGA0lfaDBw2xz6Wy1T7FlnVqGiqk1eTB6AptfVmm96X/DMyzE2yiRYpzwxdhvi40BzgPctdQL4ZpD+kTG29NxhEcR0E9wBqsnBISxDyD1Yfojt3+8++bx35OjY8WNmFLQGCPQWGJHBo9R5YLNiWmzAIXAegAYvNiZmIlvCyRsVBecU0hNFZrJFINlNBGspEqfrKQt7UT0qlNKqZhXGordfO/TODvt3f+h+7y3shhvByPpuaKRoZ3TGqEAySBb1zyQ0gghAm+BQP8DU48Dh4NkXht56Mx4ZK42PmIHTFoXoBQ0BSIX8FXpmrmugRY73HMLuEtWmeOpKJiadNLFkHuUXjh8bfWvAue/XBdO87Pbb2fXvYr3LqCxbLZSdbCaH9yaBnU77664dqAQ3vKdFD/EQFFb22S8fKj7/XHNU8goTVmzClKRC0ucEMZnF/JlGCFbR3vFSIdeUMTQbVjGjgZK56srmO+5k7ZBOmfD05nBhRhKjNL1mou1VklzzfTJbpr8w+RkvYf/LfFeDPc3Rg4M/+E5+15u7wp91rNvUffsnKBgdvKsoZJNRjoOMwmM34Z1qWeIqKXFGxQQ8U7QPSdF4VAM3lGsmc6vOzs7/7uudB4+MPPH00GuvWcP9Ka+QtrRRtxhaVm7LVRmQ02U9xD/RgKmUzS1VkiIn6yOKnGzgTASqteTSqRC58GjCADimyNwYi6AkUG0f72cH97OB/rG3dxWGB/MjY5jJpPTlqjA+bJPRx/dpyTV4iuUbV1pLutnq9SQM61lKB22YKdV1STaDczuJvXHADnJKyxlcccZ1ffAmG9KQq8ZzCbXUjYIP+Sx39dZDTz2Rhqi2ljdoSPUrmYQU7QwKBBs64LyDAwyaxjRlI1xfbn4fu2RNlGnmQjfYkOBUCUHl8RFtr2CMGQtZmRezgwdGfnGvun9PBwajV6KZDOZOsG6NmNXTGu2OjWEbms5kjkVBetOlbPs2CO4Qm1lYIxI1I4I2SdNOHTOMKzhM9y53U7bip3E2BUZd4uUAXBo11GKgRuso/a/MQLEJEzVvtEfQKeDBa0ZxdUsMXhiFcf/FFw88/XRpz57lbpjzg6X4FqolbAIqwWu5wTQVhCWen3EquoOEVpzQ1+fW6KHJzaqgOfweP+AuIrkahiT2GYFScCBhLOzesX9wJNd3uPO2242uHpZ31Rw///PCSEQgQSIplgCBhpk3NsaO9wVv7T78wisje/b0KHpLuYzw3hDRgOmiwLo0hgheju+kgAYfaPngAh1O7ukT5A2cdUMp4Bcwa7B3ZCXdO/zjnxR/9etVN91sv+dG+FtlyXAM2VaGO7KgwVpnAZ2JumAElRAjh7HdOw4//MtW1wErQ7HVF42szazGtDtR5JspzQndsh8NhZp9+cbmr/wZ6+4BC5ucx1t5oVFTXOQHHGlvB6jHh4d+8fPx555fo2MPGA6+9srzu99q27x53S3vY+vWslxzJpN18yOqbhpWim/MOF2oxwGctLH0QEJVcOYwXIegWNBZen3bilVt735P+NxT7zz/TAlu2JkgtWFN15e/wlpa0bvCrB0CZthGTqr8UYUKgZpPuVUSjK6mIYPFHsYeML2CXhVbx3IBYrDiqy/3v/6GkZ9QJyADG4elTHMUtGFhj+g0YSzyVDxnEwW9rUiIqfxACdxXBgqmUU4/VbAz1rLlubXrOq64mvX2Uis0D1gjWDBWOE21SeEl2M3GdursQDSYSxDzDlCS3BTUALb0OAly/fqwo9UfhEVYksAO8iuaXlMIwIyKir486TIGGQ1Ib9kPhlVlPNuc2bx54x9/iq1YTfZN2EbjPEoOKyyL6PQGIafjcgRSEuGQBNyBsHeo2PftHym7X+rVUG/oqsndGfZAUD7Nl/GfFycxuWZYkCVEEc4gUTs7O26+ifV0YMxReDQ+G6Bm5CquhiRuTNq9xF66ZGioL6upFlgftB8/1ZALp18OsR6UC3EDtNCKlp5+vvPJYZ5lcYcFtP3A3vD1HUeeedYcGsmN55cp8IIlnxjaNXIpITqCj0wQGRo6fGUjuQu+IGMXfMXPAUFz8ViV4FQrUVsbLrUQuUFDgWcjzHMu81QD7IBhZ6XpzZGrDhwqPjYavrO75wtfZCtWsTTE6g2envPBsfHP8CGB2eS6vl4qQGbM3n7HffbFkR07/L4j6cBt1kNY1Fpc9aCRxzxgJbLKfzhTRmSxpl5g4vhIIwzh1gCuq0pG6EnEICUWLo3z5lxfyx8ZfPA+5aVXlr3/k2z7DWyiyNpbEP4c2c0PXORdUzbkFYcP7fvht63xQYiEIMnWYANBWiwSSQrSXVPRGZfzog8z3hI3qrknmVCjISuAJBQ2EY7dFPes6P3zL7OebvLrVmECg5oRRFwDmyQCs5rE/VNbaVA4ghmMDYX3/mT8id91ohzaEbIWWPKGfv6VV/v2H1J6l/b+0SfZmpUW/BRAZEj7WFv8PK5rO732cSGwFLMvpdK5uJtXa2t7Nn7iI/knnj/Sf3zl7R9iuSYXpmeYa/xFYQkOMRCS2B3SWlutz+QFDTn6PzPhbgImRDSQCwZsvMzGxtljvxjdv2vwaF9aibNeYIUQoCN0FcgGrTSkCCKDJToLmyfqNdAA9AsaAV5Y3ALJUb0YTKcdl1rCcPCV50bfeGnskZ/nlq3u3v5htgVnBSzR3SJOyAS/ABkm0WzUeaF4zmzU/O7Mb6bML6/apwgMsk7lfZLOmitWhMPH0SiOVVXFUL2YVwHIkxYhfnQHn5Hih94FfKGVGVbVpssvW3bje9j115NuDNJFvEOB0LCto3dE5yRLGR9qSNSL6LeBgaFv/4i9vTtVHGMp3AUTiK0Hn1ZYGqje1cEzZa7Nq+p1HiKECvmxdFvrYKgu/fAt7Mb3emUHig/kDk6VViNeutg11clgIbeQGyEX+G2rV57YsyMm4SzvokUdZ1Up30KqemrPVvsG3SS6h0K/kxQYLeR3QKQgpcTP4InS808fefqp8PChDi/MeYFJ59lznQG2sVU6DvUSH2l0JD0yoPtkW8R7hD7y4SPW/skq4+uamtQ2hb6hnQSJ0HkmnGgiYKXnhrZuwOkyLIxno2hiz47j/99/XPLxP2LvA6XLgc2tCaQg8hbtOzWcGv0Wn1W1BGtykoiVHk3m2joFLr4T4yw/cuyXD+Tf3Kn1DS5RtQys0EtFN3aYBYUOQnoTCeU4C0c4XtvJtbfa8MoFFU2KdwF7st9AudSXpA5Kx3G6OVcYH8u73svf+afunTuWffI22P3ocPUR29kKSZoxEaoTA3mHpGgg1hFmek7hoZ9bxw+2afFE/2BrLsupENIs3c6/a0Ci0UjZVFh6DFSSn0RqEESxa6dLvb1rEBLgss3wPy+5TsrEQOZDDkO1ImBPUCNwKulk059eqTxPbBnvasIZktdC3n/o/nceuH85fMocV7VtuPDS9tp3lqUyw4cP6Y7zzjf+U/OmjV0fvIlt3Mhs2CuA8UWOvE4CN5FjpTpTxndtPWuqTJdUk4ozI/LR4Aeqxnpazzblbv+jTTCATcN0VYV5woRXajJBzauJEz2eiMWcVgSf+3yLz/VZyaNVszCKgA8zSBoG5YDtePPEEy+M7nit3RsxSxPdEbxNwTtgoSEbpgg6Mp4b+eNP94ConS9UH5RHdYXnJFYi142ccrtXNlOmVxzH5D98+AfF3zzWfs2VXR+82VxCUiKozmP4TWKnnaA3OecmG9rQq8XiEqiSgBk6FQCetZdve9fQs0/CesuDk2hbExzMK60Qg79Om7DtSqY9kQIiyQF2CESwiaJDEchi3XVA4FXTsoYCZaJ12cYPf1TddjVry4AvIXkU3tIwmYh1o3hdJEKgjaHPA6ii5RrWDHyJ+T887N9/j/fG07nSSBacLwPHhkGEzqAhxc+CF1vKSj0F5ZqyM5gywuu0J7mFx0iCQse+K5GZNkdhOr91C7vtI2AMzFQTf4ooJWZThdpxXiopa3Jan4zD4pOhMg3oXM4IinaXNdkBlBrYTosyqpOGF3x6iTgxdBlVES3IT/A6zx3/7vQKFG/zqUIjIjEgRqEYJDRWCGaFOQ7iIIznICt2PfbKS7t+8N0Wr9QWguuP4M8CHh/P0dDgqTLkBHoYJpjDxCsK0qLE2CgkcxJSgZrxWb9fhFARFcSTNGR4d1B9xRLF4TKwIYWLRKTYZgqShQzU68cOH/rh91ZgcYW+rLMZruB4S5iy8jpi5Irq8E9nN6ExZD0j6ke1ohvUIagi3BmxrMLygDsxHj828ci9h557uiXwO3ACGRoOm1DM4RRsZAi9mGLd8DeJZhBmvGU1jGyFXaAvAR3kOniYS/sFnsQu0Euit3g34RmnlALnHUemMjH+8m+PDhxdBhfBd28nrTkWLTJpTKpbEWDw4YMBMTnBIGgknoPsTx/99eCzz/RAIhIF7U1NtMygSNH5tdTg1OkDVWd6IhYBZ9HRaKFhQKJaCAiCUAs8JXb09Fi2vQuNuuG9LEqhMmkEiEvwIx38FELBRyClyQGb3EiG9bRPaAg1nJ6nBZAYMp/cTYcH2X33FJ/4XTeXuOPcGRJZQBQEuqYjGEAxZ6th/kSvZfmvPJd/Z0dq42X6HV9mXZ0sm3KcCdNKqeQ1xmWZaA6NH9q1TKnWjBom31MTeGxcGiGiPRgN6EpOL3EPyyfkC0S6FcMEG0dJDCYORQUC5D9ZRBUXMYaJmODh0PU0ROtHzXAbv8EfjE+w51/Mv/hCcOSwd7yvM/BshWudUBwoDBdrQdTIzQdE7tw0qVoWlTOp95hSH7pPb2mKppsZaBhgaxIUis162To+6v7q0M7fPL7uQ7daH0aY4PZy5Kb0JixcAUi5ElgweKf2i1ZOtpc3vQGpwVyCAJNPHQ6NRtKWyDAyy1eOI97w+CjcmINiEQwAeXxQEg2bOkTFF6Lj8BQuOOZElLmYXGwvIJCPs6kJRc1rSs/27cs+fgdr72TtOeIyYS9ak6gMcBY8EwxmzgIglLCvoV9h/zsyxO5/aOyF5+2JIRuHk9IBzlz0UBlDgpGZznjWFrDAa8oYB5oqmqub+VR6JToeJ1OT36BAIyl7ss8XmH/dx2lE4lSFXBZjGQwKTlQlhpRvszklaEyarDN1nOjCxuRcPxcxNgAn0a9q4bhAcCyFuSG6OIMOx1b15VffeeAB9eD+5cV8FsdkJIm/Ijq6sgjxb0RWfLQlw4Ag4kAlWBEDMvkkv5w9YQgJERg9QqgI0k1Z6aB49Bd2CnQwOPaslhfG46N9v/zl0myG3XS9RmSKNO8or7FDYvb6LugbqhRawNdrSmgfgPLdvIHA+1g7C2Pst0/sevihnjDcBI89BKoSDAEeFSs9HyZiliVWLJw7T1K1XwjvWgB4lPEkTemkys1qTzFE67Miz/Tc0uH9u3/0/UtDl73//SzMe6AUqRzJ5IlVgeuZeKWGNaHbvNuxSz5+eO+vftWBUBmT44cXRdKLxT2ZvdrO6gV4YITvKWrGsJXpfveNzR/6CEM0MDQEVQVIvErJw6c5C8UU4xAFYdkEzfQC9vpLI0/+JjXQTyJXhCEnVR2Jx6gbOLcEy1Piv0sOBaot5yfyhX37j2z+1Kf167famRSBidWTWDTQ2qSelMN8RnjS1aJx4kPlFv6e7oJGGwwOIWqFY6Jw+hTz8zgNAx/L7ND+oft/NfrqK80TY5nA6SLmEQp1SiR3rqQKZajeqLmYUnlxPxml/z97bxolR3Wli54Yc86sUaoqSaVZgJhHMRgwBhuMDdjGBuOpcbfb7r73rn7r3Tf8e2v1z7vWW+ut293X7du2mRGjGAwYDJh5HiQ2n94HAAAgAElEQVQhBqG5JFWpSqoxK+fIjMh43z4nMjMyK7NyLIG7b1CUKjMiztlnn3322WeP+FCkZ844UciSqZLpY6Yvl4GEGlKyh//wuPXR9s0/vtl/2pksHFaylgL/DJQkpD2tyLOq9dved8o//uM/ttdC5dtkKyx8J2R8ChzX1NDo4ZlDB8nkDpcfHkkPpJAO1hG7XLTs/FnQlPHWQHtU4JlUaOAO5DKaVZRJVYkNrTj1pz/z3HgDWz+MjQGuRBKqHPHFAjDQNmaPph1tcrkEs8oZLpT6hurxsuljmRdemHjuef9M1IuG6fTId07nKs1q+dzz78sEBwG0WFLidxWKwDvUDrQTUt5QtHSgt2/LJcoNXyflByleiqTmelfsRk5fVdssgVvzL/SKaYGhYXpq9p03/bBZEiXClxPfogMX8ms2sdiN0oyDYBUl5vX0X3ghOetS5EirMC/WYeU9kAdIgmaPvAKJTXKGj4p9UTY1mrrzt5NPPxaaPNZrZnQzt3B34c254RR/c7Q4mK9EUcET0z3jFX87uHUwXNRXEBEIEhNtun/TEZnWC8gzkZw4fLBn7Qo5FFBwJmMKOCsPlCytr0osfCGfgSocMDm+MRJ8wg/OkzAysOgse/3Fkft/l3j/rYG0oc6lWCqrknbP4YwuHFaAvnAuxAOl7wvv8imqhxIiD2QthhsZpJdkMnb4WBcSHpy+WQkGEISMEHuwJYgIdDhwxlAuKMDOfHx87r57rT27I8icUfBsLXBmTiRlZM4/tMIfqk4hERIAQsoZQjOVXgWbU5G3M+kNey+7vP8ntzNvELmHnTmAdoqQLKai0GARvMLXYr6KJMtZpusT/+gQKqiVE6xjy3/jpf2//413bs6DpGFIOUPYR6PiXc5a6aLf1Cf4DI4ktu2zzIldn+b3jwaWDyO7EY/0I4YHykHyO4ddt0Xbot/CeOlfMWYxYPF74TP0HFdD0tbEgSdZB7sMZyOAH0e5PIueYH9+ETX/cp9+1pdOB3IG5gIROHiUFiQRYBG/9anRDeIif3OZi1gZ2qewKDsfAbajczPbt0fmYxIKC/iwzqBytPMyV8hRXiZKtcCno5NXu6JXXViAPjofQKI897y5d96CJ3MPDEU259R2vd6rzCkpqQxeiCGqe4euuNL7tavZug055BOBysePQk1EcgXCFbRa+E04B3umXuFxpMC0Bg+UDz488Owfg6PHgkjLpakpw9apSgN3oVqaC5QIPy1b1RKqNxrq7bvmm4wMDUJlJAZckK4rAXBJL5W3qn2uxB5058hSB9u3w6OrvdPR7wqbQUcbrdYY0VL59/gI8ToVZe+/deS5x+W9e1Z5FRiVbbIxuaWxaq117DvguckpK3TtxVo3ktkT4zt+/7vz/uEf2Kl+RQ1Dul040I4B21pDnB2RpsQZKvJK5ZEQgmWzbGTfsWefPPH+68vNbI9p+mzdonQROTlEe7HQHNTos0Wk1WiNvgYXyucgJugRv6YZueTU8cnX3wzrqve66/RwGGGMxGpJyYxx0H6Pv0uqKTiYGunEW6/P7vqoO41g98p1tUi/HbzleCSQ6wzAkzOSHFM1ZcPpg7f8hPWvEL43fKiYCRAeX+NuSPG3a++oxwKc+2UUDH07pvWzj8Yf3BqenfaBp5PLvYywZ55NebFLzeV6jbSHmbFdO/eNTWz66U8horGAhjKVMk+RudjLJ/+eY2MAAg1KGDV+zHj22emXX12OhOqmwU9yJPig1A93Zy6qoJYE0MKRxoKgoKTnexgy205O/PEP5uiR4Z/+hJ16hphlMkOh/3ricmsg1tunW2u18FYpCg65kE87wx5aZR8blyyDtg9ieJw46EM5kRWpuUjl2DdhWs9bSITAVF9c92bXrl333R+w8y+kEFWoe2SZrJoqdnjgik7rThvoAW27cAcdqEqe7GBkafbGu3sfeHQY5xu/BsdUyAzQQohDaHvjrvk2waLKmSysJXpcD2z88Y/YmnVM7TZyqAIPv8Xialm4bBZ+U6OXCtbgPMXPRhDX0mkut9VZ1TWaXvxrDmFxWmHKkaR4Kh70IULdueqe+RbvoPKuGCnGVSAYy0SlDiSFQ1xrBskTTzz2yPz294YkVKCxc5k0bWQK6piXNHuVDZY+dx4/5WMvtV/43sXCCY02Mib05tLs2PGjWx8a/r//d63bA288LNeSZrM29CfzTiaT9frI5RZXzJgJY2TTafbu+7sfva8rm1hjIoWJpJNdP6tosgJhGOYGsr447nh4SxxYRQZ0Z6WWOAPu16J81xwtyhwRQkY2BXgZsawVT+AMG1ICmcnxsa3bNngi7OpLvX4lp3kcCz5FNBER48dKGkrAy3Ip9tkn4y881583ghqUVYC0FkhLg3iCiDMy/CFR/QSY25OKklu7ZuUv/p71r6bCRQIiDBOVFLmJGmpox6jrBqqcyvidxUidWgUmQHN4KpFiE/uP3vE/uqan8ijCBG08lc0lZiKUJi5lmTNrBVkQL+cRoqhLRhjnuxPJI7/+p+ErrpKuvZ6tWa1kMpKXF0XjyxiPNolcN78rDrXKOPk9d9ulF92Ko5yZ1VR4gKa8CFKAJ/vo4RN33Gvv3xuBMdoyCaVc4QyKQ/AbmiB6AMI5R6VDKK1darkdXifeLax0KNC5aIijNbrIWyGNebLpuZ07R+eiq27/K3bmWQbSPaPgAFUy5wqRWqMvoqfJPzpvcagKAGlyVCUYi0/t+riHUg/De5FTNKaNnHWrzLST1g53iAXYaWYmdSkVCcYCoYHLr+yGNLp+AwuGLFQdJDdHpxXORmmuSoiiFgqfcYiBqcywyLfu4w933n/fcDLrmYvhnIk8ulBGwP5Ee2hJVVhqpjGLg3v0VeaKPI9hp2PSjOwZuPQKDcZRBGLQtMKdC7ThvFLQSLtaq9JYVUzX/hKDgmC0d0/sox0wrPITUWctDg6IhqIk/Z6+y69A3HZe0VVXOF87K6f6wLB4uEIfv2XJlK0UbUJIsP/ma3vvu9M3drgnkfQZGWgFOQvj0rabNsrWUw0U17E4VIer8K27zWba52oYzbaUXD4aj3UPLJM2rFOgnFVETZjFOz2pd6GayaNcai4BG5oHB97R0flHn5x95ZX++Ey3YSBFigYHHIyG6A3/YLGLiDhueSvb3RfgysF8Dby5Rrk4XaFncjiHxx8MbUjGAEUBDLo5q1fWkuNjnnXQ3HpkOFFSvR1QCDgJZX8jzRsijZBm7cjBiQfuDpwYUxJxnUBaVA/iQMVhrmJxcE9N/XEVn+aacOoaak5oPBKyFOvpX42UADDqhXuIisV9vhCQeRr7Fo5Dldutq0OaDbqIzKpdzn16AzZaKquRZccORu+/y9yzu8uCFsBDweeF84bTMB9vweLgbpW+p1oGSMZrm3o+H1L0if2H4odGwsEw6x+UvNCdgR4o2IyerAZQje8K46i87cZtI3gutoMDJ/m0YYsiNcHBPXvvvCt8+EhvCkVbhO+J2IMpsgbtclBLo3bT4eI0WQnvop+5tZg2JfKqxQc4lNnMa5j5TGb3Jx8PDS3TBgZJJQNyBUtvBn2Ldlu6ubS6BNEPjRHKAF/As+Ui+Q9PJ+PTARIcsVhxn/8vPBNdIBOtI60wljZRv42ohDkbjrM+a9XAqd++jW0+j/l9zB/CBBHj56ROWkNc9Lwze8JsQD6mXMNJ9w1YOuD/qrP9B0a2bRuYm9XTiCxGqDyMGJh2sDBR6qxzmC47FXFXDCubRQaSNWv811/PBhBpjPRlCJiHbEMWPBcOOv4nT4gbm4MkRL6jWJK1lliLPQvgCXWwrMO0AenXR0XPGlml9bsU5OJSt1DDxDX5/IOd+3GIgrvckcPRrY9M7fiwDwEd8Ti0NoqKPCQIxMfmZHD13ZftNF517HygSESWt0Pp1Oizz6/esFlavQHSZKfwWbXXZr+E/s1ErD4MtzhL4az52juH//gcGz/Ri5LlyJiLLwnhGAkiefgsdYYWmgMTk859dbN8N4VQI0tZU4UrediMH/xs/v77V/6f/xX3LRUegUQbAFfQFWpGsYkTs396dm7X29DpW3ktq4B3UObH5iBo5Wl0QZYDIgLBFugDtlEzp6lzA8HVt1GKw6zXr5ejFIOFVgTPFgL0W+nb9Y6czVokG6Umjz18N/vkk37kM9I96RxcUGGUaRgP5C7NW7VVAJaKR72Q6hH0e+fc4HduYxdtYf0B2es6L9Lo24S8wdcrhkDiuQxjZTrNPt1x5MGtXWNH5dgcHOuoqA74N8lhokIvHqR3STTiMn3Hr4I0Soo3QgeF9VGfJF7j0M2yESs7GI/uvvvezWmLXXCpEl6WRIk9J3y/BI4Arh10tvNuM2gBqecstnzVmnMvMBQfXG+43oaCCUqSefmmxRk68RdL0Y9a5vxA/8A1V5/6n/+enXeBHelC+ut0KuEI0W5ARCP8N37xf4FXvlcDW1BjYIUf2L/9N/+U3bsXEduo3APHZygj6PhOCr2lmW8QEgq/89juecua93o2fPM6FFYgnGge2c9zfS4pB4UsClxgR40lvMhAifIC3AMU6G9iqbvxXPVvgW4qRImi4SjYRiezqg82+yUXEcRPOZXwhtCNH24IyJX5wdsj//JPk6++OJSYDyUSPguJZWyT7KY07RhyZ6BpFvqWnucZV5DSy46gENLeA+zPryCWmiOhCgZa6qGJl4rYL00EhwKnbzkVR+Jzduhg+vHH993x+55jR7vSk3p6VoMZ2w0prS+8gUFVSGmcAy7xnkDSeREY29Y0nClMJG8IS1Zy9+czDzyM8CsVGTk53+dOCXlul8yxfXtGXnppUJWhfw54KGxyaax1xbkAALDIYKJhEwVvpKQdDuUDe5JmK6E5T2Tgyq+ziy+FO4LlC2JNF6NLRCsYqSMiNEMpzjRQblD8QMsIFFHaWR1q3Nmjk3f9xt63tydtovYdSk5SlHELlzgyYRxWtj/g7VPz2vihj+/+t+zzT7ETYxDDNMrpXwC6GeBbgKXaK3yXSEGKybKDh/dvfUg+fDCQnI+EEDSNGcHcLxw2EcwSX7xTdA2ECHGBPOtk5g/DhjZgmqHjJ3bf9wD7+BMQggZLK9IDll8LgW4W4KXVJbi0Lgp54SoB6ZrrU7t26UhLIMGbCNCSjEn5C8Sxo7BJI85AVr155AeRlROanD/7/NO+9y12/lkUBO8NSxRry3yoDwZkceGvNGzXn+BGArWEX5g4wLYw3Pnjx+7+70MzB4O6bCWSeBzRxbhXUDdQ4kOXcaGMz5V6qSJMlDoW/IiruOkiMQj7JRZd3ppJJIzB5X5UdD3/TIaIIKooxp/jb5dim0W3ooUaO5ubPBuhA8rCYcrzB0bt6Sjq6lIyNAFfjfbFzSZ+F1AFp/HA0BpUvkY91Ewm5fW2n2mYJMqCwMGnu2B7w7c5KxXATCOn3ssv73rowf5MYpkqeSl2GXwOya6BG3BaRHLjDy551tqQ3HMq2EHZLFfimBsf617uh1zM3N1+tWmgncFGJVJ4VGRBs8tsbfyd94fg6Kr5KdNcFYNzXUhafwDAAEZBb9hcsXliC2FYg3SpOmK7930+ft8DiY8/GsoaPitlKYjhhlUfqj74+eBVnIABMW+AiE3MAv+Hxi7or3RYKAFaxpQL/Zduu/6iQLyaF3VAHmbImkArEdYHyphG6V/zflVdjpLHn33G9uxlF5yDiFnKpkgwZVkmyY6MTTyxbR20URbkS03KoXpxuWexG0I3tSzKH2oByk+lwBUlhkcVoOJ2KXwRmO7PWCrsrcuuuFy58gYWGKISRjwwn0hTrA+3Wyi1VsCuG1XO327+wVsQ+5CYbFKn82CwTIJlxtmrT0XffWuNrWtIap7NIjsstMNYTyV1hcNDxBqh31y4Kcw0b54mGD8UggSfRRSvT2I6wkiNmxsd+8NvesY/7vrFr1hPr+zx2kxPJFMhlEGiJujFyrVHNxbMeBm10BMOZfE/3Vc1ShI9INYzryIDwdjo6J33RI5P6MiiiMrCOYNn9kdyCthYKI+Cw9tp1I7sK9p049Sh8srOm/hcVC2j/ACxPEIg91Ch33AToVUma2YfHJtnZ0bvuXNVRNc3nprPImWwn1zwCTw8RwRSDYFNQLK0UkIJEG4YJsPf4PKBCy+YffNV3cTs4z9xli0jWU5PspXJS93LYn7P6isvY9+8mg32MQ8S5WV1kY5DNC2o01mTlajgn4XJGrIF0KUh4PXgvb+V9u5cns3otijFU4JRmC+aQF5jj4JcnMy/yKQUDBsDgxtu+DZb1pc0UgG9W5xcxIquHEBj7Tf0FBCMNR9PJE9MdqN0NAX+gHjK0N5QOw08BIOeFImgVAkmsZiYtIH3FnlETLMLPQAc32G92NkA5J2JsbltT4+/9sbKTDqcRWk4k6oB8aXsKIfpz2rMYZE+v+BbGCx+SIZGBBTC/VPwpNm5k/X1IYVN26u+nbEBKtiqsJnBfC+xVJJ9+ObIow/3zMW6s5YPPvA4o8uQJCoYC1fSlvZOGhoHojinxW/agW2Rd53kChwMohtnm5HyIUnOIiPkSy8OLe9lazaK7LukYJuZPvbQg/rERMQyDQJWxn5Bq8bxcVmkr3ZuoSfqBfPOEUTsEUFbADuTy8WC4fDFlyjfupENrjFl2KZJLSMw6KxksVBa61/sQKIhYg7iR2IfvPnx44+syfv0nEF+wWTL4OjAM01drl28aLJB5owIdCcpM7Xrw/n/N7r6//i/WP9yWN09QSdhIvCAfipopaluqz5cJDsXBaIb7rk1fWLk4a3Wvs/DVlqFxzAunsqEb2BO7JtAc7MIqApJ/S8LeCuIJg5I3O2E/EbBHDQjlsykjtx37+pf/b08vInmhqAtAohXXCOu32XlE229XNnYIp8hhQlQB8LqV86ze3sRqwDQyWBsg6dDOSnsy7Q8oC9IK/qcPzI5MLTs9tvYbd+lGlk4l5AvXJhnTWwKbJ4jNmuxE8eSj95nvvXqALJhimoyiwDcxi3uRA+q4j/oCdIHXALSVhZj7epffdVVbNMGC0WekAWFz2NxGbTRZ71XgXyUJDl0IBuPaToP8eWXWH71Xm7sfmEPwPQF+7opawryaZHbbScuwhEX+Ig+8Bt+CFkbSzo1z3Z8MPuvv0688cqyWLQrm9GQtZY85OB40RSRdALIzrXBCYjSPwteTDo5wzi04wPyLDkZRvGykQCPIBdsSPx8gs2JlBnm7BiLH8s8tXXszjt7Do8FZud8CIAknCOJLVxSoECCvqGT9NU57LpbQhEey07MpHftYDs+QpCGYmFDkFgyY734amLnp/5sTsJ5RhgsyJVnCUfEc/qCWSGTDxQJVFuGEwB1CnNZ0uNRT1nn+9ENbLgXeg1Mg4a6pPDcqoUXkodq3av8HkYWrCgeG8HfwqqlQ8Uc2/XBkW3PrFfCfmReTqXJkx8KT95vM6sLz1Z/HB6jyDGIopq+aEzdv3/v//OPbN9e9IvMiRkIRjjbF5QGeL9TqOc21oWNAQdplphJvfyn+R3v9iq2F0mQIR9ABYU6w/g56fyEm35IDVAFdyAVTBaqniD3EixDstInKbmPd2eeex7FNSjkQs4hKUABeZjuheOtpIFFPlcBYJGn27lFtV9BX8j4cdrG4JmnRz2+LLTwIoMRxgzJCFn3JTWj6DNe71jQ67vowqHbb2dwlQ9Fsigvi+qZTEfBmEbGK6jAQQyGiEqvo0dnn37y0LNPr8H2jCNuW0hrCA3cpsifpMWvJE1zXvPEu/q1q65hgbCkBjgIdG7AU9VJoaF+GnsI1hYzm96zB8p5eGEVOuyoHwZpIdGwhE1cCQd4cWobmt3G4GvsKTRJwiRfz9mkhLre0flD//PX8r7PemLRHsTaiU2UI9QRvRtr+Ev3FMUKcjWbkDVZPuzVM8eOQmsiznNg17yW8km6BH06v4H/RBxGq/knH9rz5KPe48eCybiMuBII+uTgAykBGYIp/0erjLWjNLMohkgIMzNB2xzM50b//CKVAE4b5C30/o6xV1/tTaakWJwhvJb8eDjLXVpBARiD4xRK2+MMW0QC5BYdOY2TA729P76V9YSzXrgVcdlAHC+KJ8ZFR1r3Jt87uYgg+FFqjh3ee+Sh+z3Hp/X5jBlLUWQzfJm47NIp/pmH06iNvAt6RFV6zVz//NzkvfexyRNg2dD2AxxBcoBoCRi22CVowJT1Os9tTLs/3v/C0yvtTLcHXu0wy2JPgmtTh446deeguQc4SsiCg/KY8KrVBqT8oddeyn20nU0dQ2Zhmw7e4rAKNiIG21wHxadPxvhF/CgXji1KbyDbgRuu/WTXR/Kk4YMY5A3kskkwGEX1w+YV9Wjx1ctPu+m77LyryQqLMh5IhxAJw7MI86l5kO+LlCk8PHKxi6vU+QE0bZPb16svpZ7941rFp2VwBp2n1KA8u5CIcF2soRbuwQzuiOUg8iwFT0jM07d8zKNv/uWvYLDPSThpQSxy1jcp/uuMxlkk5ezTvXDqMVZAtHfP9M7tAVTQIOoRGayL+0y91xtBAhkcIfVJqXxu+JR1xEsIwHoDa6Rl3gw2RSgmrBwyq+MsA391KrgyfscdwcnjHjPJs2rjP8QWUwwT3sARsfVRLfUhuF77XCPO9ducSpC+JpWMhuET8P470sbNGB28IizUkSPz40m/YGWYmJl9/KGxN15cljN8MA5qwuub8I3jF2aeKzubRb/reTF1dbDU7MbhhqdAlhQbCeePvBmP5/MnMh++573mWrb30LHHtoGuQrk0/FoQ/gBLKbli0OGMk6KDcmGTLn7oxESQ9pG2LSHjKn6fkUpPMSnZ033Kz37IVixjekCXvMTyq1vrSzDUxk7xTukRclTkRiJ8BfcLYmCT40fv+p3vyKGebF5FdIdK7JtK6xSyIxS4V6nHMrl8weKrSg102iX9IEgmh4qsanR6fsdc/B4tdPvP5dUbqToBv2i8zdNTCbKCkFGAAf+KJvEIrSByRksn2dzc9vvvH0rHYbW0MrCdURZUeoXmvfi8u9XKv6uOsfKhDnzmnIF+qCiog/ZcChlWepjx2TNPnrNhA8qUaKEe5zH0KNRUrXZ9ssYFm4/QncFeoHrgnXDB97+X9HrTKJ0NPZbiN/XgCSadCEV8F1x02i9/yS67BDWiIFLYio68zBARMFFiZTcShwoRQRT5ozIz80gj/+f9jzzcFZ3351DfjzAGLiZ0ua3irZH3SF8IdRDIP2XnJ5m1GcWsh9cwLYg6EzzVLvdDwSUo0JEZGmm5+WdyWXvHDl80SoVNcRAput7VYcSNdkSUSqIRWEi+q68XxXlpaFAkdG5QwnaBfEnkzBWdYm+8cvhf/zkwMRZGVBu0xDxLD37KWFWj4H9pn4PGgDT95ClmZoOZRPLwIcp/h7WAE8TJFRFyppGBMhNHrtGxyXu2xt7dPmzrQ94glM/iKpqDoEwC2YsYjS8tZl2AEbggoWA2f/jlP6NkKHvzZXXsiNeY16UspcbF7gi1DiiZGEdhtEsxMLBI0vmDVaIjCrgwk+nZrB0NdW24/gZ25hksghqh0DSQiO+wr9aF8IqBoOQY5YmgIw3UvQcPjN57t334QDibgRRVHGvH4zuooA/V/uY2HWaFfVRCPfXR++YjD7HxGZagEu64hOqc71WdYyhoGo0J3ottAmLByy93TU+HssglkxX2PsqIjuFTDC3VKf1yXVyaJF0CEScp6SUpEzBTvbOzs888x7KQu1CXS8hH7RLtydAlFJBLsIJ3QGkgdfeqV3xl2Y6Pk7D8Zex8Kh/36PM9oY033+C54lLW12NTGl0KZBBKe9AH4aSYhrTehDl1gPFGPMree+vwvXf0gt/mTAlqcHLcI3qjfPn12mmDLLiqB2lcYGeUWVLKBzasYVduYcuXkz6F5g5SKhn56EcIhuJv0eVia6E45eUSHnGx2vBOTY3t3NmTiKmINYJfNC+UKS7CMFnB273MXA5aaOS5618xwHoi/FC0CECLdFd9JMh0Y2YND8oeIe/yhx9+du9d4cnjKjZR2W8xxNZiCKQchC60EKZfngdrkQ6/dLfKVrWYKckyIePOHD0UzKTtYBdXl7gvQUP4pvJGhwaX1xCoBrFv566xrQ/YBw91GYYf9sH5NAKUVDLlE8xcPjBzSLdDfkiOw+DS7qztDQ9ZFJHbnZZjXg8ilnbsGNu2debd15Z5WSaVwbKQKDQPKiy+uDgbcomh7TLfStgpqQDKC1JuSvxItp7NyUrPshVf/apy1bUMpb8QYEz2CC4iiPXLVxjgahUUQS2kp8tAQ2fZOpKSHZ9gzz2fffeDZXoOxaANZK3jJoYiYTkYcJFgkZlUjqjeZ25TIw2NAp8tNKgqmp6X05MT77+1atOl7LzLWL+fhaEoFBcPaKZ+W2Ms1aBB0/jBdnN8Zvb197tn45qH8utRvXZ8DdAgM8lIg4eDFTQbQgXr8gus1uRSf0dTQbYQDkaJDCBcZrx5BEZOzr71Yc+lX2VnnVvybm2ZQPhgTqaUwDukcrvYqgwp3BW57Ud7p34TnZzJ5ayV55y14tqvsdNWGwEPPAcgSMOTuxjeLuQDx3JWkw+WdheSBEH5KFl7YP/UE490J+eCfm8WAiIFGnFb75Jf5C/Lde75jKLGfOFNt97K+vszluGVUGWVe6lXcPqGKN9ZL/iH1hbXl9Fgils+PorjDsYoaAimehwC334jPXokoMkWXMz4GZQr+jqIBaTJTyPaNa3qXcsHYT7i3bSHZwzS1QCIQcGczs+Y77y+5+Gty5OJLqTVNlB+GIFtRTLmfKSAjQ4O7wtuCiH+UB6Ylo5yfGnInHDTAWqK5obODljQWBH1fBoQApeMs917Dt5xt39mxhOL+iVkqUM6bJ2UOwLnFGEoHP1EC1wIXsKrPeoqAMbTLdOJFntRbzYde/mloIR0gwr3viWNH130m8RerCoaW2fxXY4ii0ceIWOBKXkSAWGFElgAACAASURBVL/vtM2hm7/HepfxpU4poejx0t5Q/nK9T65JdSyCBW94GZWDZBypp6bYa69Ov/nySsnUyJUMqWYoLpOeLpwlKuijXp917qNlwi70J3beSKZRPAp5oqxU/Mizf1g9vJ5FkM4K1SIEJxC6nM7MO2cu3L6D8eQM8/33jNEjg5qa5Yn1iCq4qyaP4+UGoKWc9Do4WnCbNE74DzMCGDlgnJnD3w75RDMhLTb6zDOrNp3CfBopdEnoXNBEM1+cDCmB2wiAdTG7+I20Z9zIt3bDKf/tv43++TWvlY+gqCOXH5D5kwvu4mFCAL0s1ql706gySGJnHB/8FIPqru+9v//fftcfmwrqtgQTI8xrdKvwZnuIq9K/6yvE2MIjBuk005lsQulad/1NbPU6pItAzYkStTk2SGdsZQ0ugK0AtfMv8AJaxuVeMVy9hIWN4w9p4EmOQF5VRDx/8NaJp7cNYPjZLE0FalbzGeGbKxBG9saFp4FSDY7Fh+rctXwhX1qx5ryBrvMupcQYVBPDDV1DreAh4YBCdAmdmcEzzYKTodA7rJQnJtlrL+994uHl+XTANGFjkFCXAU6xwmCMVxyFcIl4Gu31y/XcArwheYJCGfByqQw7+Dml7IQzb6lYbZGBLXix6XFhEYlwL8yAnDezyPxKbSBAZscHxtb7tP2HQj6PzjkUPYDM9vBoI62s2NvoWTKzkQhD67G8f7G/uL9b+A01UE39UG1ojYv7DmGUg8PXAE/DTyI1dkMrnfFQ5jOMGxn7KV6flA0YKTonLQLfwMW1sMHGgamEovSZeL2syxL85vQ5WzXWb1z2Vz9h5AsMYLCeawre1bCzsBtOJ9Btgr1S9W4sHQBNh1II9UYi5c0a7M8vHH/msUB6VpYNC1WwSFfHdyPOggWXoNwX+OjaNRea+RqDB9Bw9OKiXDGyTk65aN7vl6TU2CfxFx8Mrf4vzAwgMy2fAqC/OAMLWOSCL9zjrwYPjZtkLwBw7MTIq69EVCudR81SlcbL/+Pdweak45wu8nKKNtsYrxuoFv8muDjSSMAqzAK8LPMsiLkKRHxUM2PXdvbmK+yaa3hd6YUrsbmuT4aUwCHCOhQDEmOEcokcFHCuXnXTTQyV+qhIj6PXo5VCr7iWZEODopfQhIaTlpFiH+2c2Hp/z9xkwDYQbEkQwA8JRFig72p001A3jTwEiRimhjTKzMDTYt0m9bLLWTDizNZCv8tF6Xvx7uhV4BU//JSDf0teTRg1MoTs3z1y3z19yZiXFGnC2RXLo0BchOkOYILAQAVeJs37vWz1ap5yp8Vmndnnk69B0iBpCyc7mx09zN55+9BTfxzKmh4bCeExWsrgiZSWpfg0MSyOz+IIF0fgl/Mu2JAzs4I24LFLZMNZ6vw8T1fAGWoZkltEeFUMcL6Sz+YML7y6UInjo+3pB+7Tjx4ZooMepZehi8+RiI4TjRAx0bxwSOhXa+ypsbea2pVJIi/xEwGt85u3w6MQi7YqvijEeYKftR2tGyViWtpLxHxlLMUT7DP94eFbbmEoEAwLYT6hyDzLUEcumj6QE42cvGBhM7LyXihPPvxo4vnnwrGoolCWTzkP13E4+VNYUbHbhRtk2xCV6Jbn4yfk61a+lyVn9n4Ygnmxu5d3gXs1ZrAVCPjQcWHDQKbFHR9q0TkFNAB5BDYf3OH0IBywYYrhPZTgbKXDjr7DSZaD5FA1MQcejoGM2kYoGPSg/Op7b2oXnMl80Oy2C/zJHDlfe66LeA2JDgjARpZsOCkiUTEX6jkJC/bofn4xGiHaopdoI7Sy7OPPRu7dqk4eC0DfD3ZauCg7BvkjOBzA3Xhn/8bQFNVj5uVU//KB625EamoEeeasjOWoANxYKIy2bMCAueqP8yKexQZKZd84/ooXRASUV6MvZdQ9irKxvSO//U0oEfcYRsG4554CmhESnF0ttIgHeIBbcsqWu0/dSK6LOGBWmcCG2qYzbOHBdALplS1FzbB8jL3x0qHHtvWYGaqqTMcg3ZR0J9V3UxtGQ1B06CEA1g5sRZJwtWNE58knF5EFcCTs/IXjMigFQhn0A9glUGEwy158DlQ0vW8fnNeQanFRJVPlGi8n486Du9QtkmLBmQXXVDqsWRj9iiC4F2zrcGmaDxmTRsz8ihtvZGeejYlGEQqUXqnXomAEi//mbWAr5mdDnN0h9SBVFCoCQMWPIMCRRx7yGUnLhEMGSmN55DwqK/D6VrSX0k9RRADHIBeKwk892Jq+D6atphOedDJ7eA9xOrgJIA6FZ+xquq2aLyAbg02xDPHZqfc/UJIoJohcPEVBUMwmvSw4ZGdmtyYwLdwgVGBGCpNCHynuCUOgeoX5g59+zPZ8Tjp11w7YQjeEgdZe69hbdDoCuzMYyjICFkwFp3PBbISs4N49FxMUCElMQdDj9MyJbU8EJo5riTlYTU9KaZZKfNDMefxxRQ+ccS674GKGSE5Vy1GpuWobshhnZRuLfQbhYrFXiAiQeOmEDYUJKMOIsbH9c3f/ri8+G8imfeSpWQd5i/VX7x6UsfCojdnqyvPPI/GgxNTEjNZ7v+w+T7eGi9z4s6RFmDtmvvbiJ0883J2OooYQ1Nw44khInQmDpTDTNtX8X/jDiWRCjIBH8havElNrc3xCP8EFMVNKw2z37id33Rmem+3zglvDBmRQVYz/sFdJ5qsQEVrHCLREdHiBTwe52Mgp0zqRZ6u/cQ075xwUjEVWeQk5uTtzcSIhEYdmkHgseAiOzkYG9ZcmHnpAPXJQy0BpgYdwh5fawUW/l1yJUjE+wKV7/clMGineWWoWYCNPDnco7NCGJUgYWpR0CvWBY0cPReBVT6Fx4CzuDaczeD9prcAzHQ412WwG6dfyycThD99hM1Oc8beFt5NmcSATYCWy+BeSplFAA0ZSvC82U86uBCNsaIh4K4FI7vH4Aw94RkZ8iXlsI4UXnX/dMCx6JKqEtNnPOVmFY4Lv1DP6briZ9fZRpA9i3iGek5IcgBaGugAldToq8ueFjFp8A7u1yqMA9u6ae2Jb9vPdKDAq4quw7osvCTx0QIVQANeElOD1W+GgsvkMXiqe+07W0vHWGSRHD8FqaXCpmh/LPfPsyJ+eW5ZLIK8ivBFUWdMpTZxQB0Jc4h0txORCFNXt9y/hgQwyXtBSsj1qsUCGi6LaHgIiHjXEKsMIiALrzz177LFH+jOpLq9u5Xj2fjJOk3+oiCSv6K1kyKIJdAsxbYMlGmhHMVP2bolc3GzJbcGpB31HN04OBDhSyjRz4e6uTad6b/4uW7YcLkaIG0LVTeh1cEIsBg01xA+roFwwVD4yqsTBvS5yaRZPzv3r/5T27FluZqmSgQy3frrysokzPT+qig6FRkG0y4dfbzrc9CBeW/w3PGL5CldRzG9idlrdMBw+7QxwTh6miXMOwMDPwqW+eKuuuxU8AYbhvBl7/10tFdMsg0IyoUIDfy4cvpvNplNG/22A2fB4qj1IzJAiR3p83rFPPlkzO021xf3hwl5a7ZV63508KaEmJEVsYgrFDx5tdh3gXIWkaUZm+v4Hk++9N5BPeaCgosR/9RZ7TbDaumHI8nwwvPK7N7Nlg1jgOcpbBtUh7Omcw7d5FTcFd1NQP8OggWt+gn2+4/DDD2ijoz15C9XceXoGXM3itAkoTVlG9os155/PAl3chl7QBzTRRulR6FygKyBP/tgse+udo8/+cSCVVHIZqBVMSgBM8eQ8BSHPKXvSDzotjamjLxF6RXKxjjZLjSF/joelYxQf9Nqro488FInOwQxoGCmqD8YvfvLteL//sRuknQk5CEl1Jq1eP/Cf/zfWi2xGpsaL9nAbELkRdghHfB7hYwGmAB8XI2M/9ofYB9uHDGQ3N6mOPVcE8phM6O3akPWbBJeSMWDhKyQozM0n7OFNq755Mwv25Mn/zhFVWrZjVoclk0ZizanPP/dbBtXyovRRyNDQER5dvcOT8G0+j8QJUAdZHhi5o1Nzb7zWvWoTyspCydBy762/2XKXxRfdGzjxHSHouQSFJnZ4HH1mo9P33Te388M+K60jCQadnfnoWj7RtjFCBFT0fuUydsaZWN0W9wPH1kaiN4bUnjTMR0Q/kAgEfsBIHNMDBIXYDHvt6f0v/aErlYloip3JUSLCCgm6jXHVehWcZU5i/RddxvwhWFHJ8NnoRiKAKz0NXkEYwkY4Oc3efvfw44+F4rOKCREBgj95hTp+ezDO60nYjDXKB7wkZCzQ2yHeLCa+Fv5qfi+MjlVwiX2l9G1r0nDV8SH3mSkh3vKDdw48fP8yKYfqoUbcCPg8PKe+OGTWhLZTN6pC1kLjwqWggzqzFmCo+wrkPeQagW4G2kZv/7LQD25m3UhKRnn/qGIJvV9Zl65um/wBQR9YX5W0h8/gHlSLATUjXnhp9OXXBhVRy4qL38Si8Mu0FEpfSpkSSgykXINSZK31lAqNAEx7G8wu0CUgZXNXrxcR/19BlogIJCVAg5wVnXQnE7hBKfB0dm7/vkgeneJYQpUsq6y1RqD/sjzD55byPCAdoRnIpab27u3WPO2ICER/X5bRFam6sVkqET5EP7grGpnEYw/FdrzfZSZDyCUKX0ii7CKHx+Mn9YLqyXf+heRl5kXNYpTIAwBw+0fGEEeX4B5lNeBKexP+qjw3OrwDjeGEAS+EPKVmSBnsg48OPf+0Prk7Eo36cCqA5zKt3g5tc+X4I92aONHyXd1QZBNpEtas5Wu5SFTN714itgfRGVPjbO/egw892DM7GfHDYki6T4CAzZGfaSlgmCf4QzaWTnhf1qYOMTslSkJxMoqwp6ugYKSPYjsnNuNctFApHrWjFzWI7C6QihAwVtY2PrQiDJZGh7fxAxHBSufeePnwg/ctTyXtRMKj+DAOVUWQGlVxXaKLMCnAL3hjYTwOegs4LLrOVcj9RTVv3oIzK3LlgTZ4wu4i5dOkiNDNJQK/lWYLhEKzmAG/0jTD6+9D2ZoNG+GOYBkoeOdB+XNxJiBsNNdJ6XF0xClFfIPVQz3DXZxBFvzw3b3bHlmenbWSMTIU8ufoF8XPFI4heK/TZOweijOtvAvJ65ufn9N6+iIXXMSuv5F1RUSSBi6b1HfgdDdb928UuPQgSnz8cMTOKnLONvM8cqjD2oqFYAhyddgFv82x3pmLnG1FS5zzBz0ByRdk8wlT8que1vf61t9sf1iV2BFk7Pq28gGnSxJ4uQ828EuqFTZ7zHr5xYk3n+tPZWFQBTuzKGslLq6Br+nhWaN518BatjMhTR579Al28RZ2+cVIyUwHYNWLYvAQyxAuCKQXZXJo10ExBZZRxgsEfHyYEsshGspSvM585aBQwlEDmmHI+dE5tmdP4o03j3243Z9MRRRJs70UUwSTSyFZGMbkHm2rPhkEZol3YwWD/6KaucyymjJ8zddZ33JGnlbuAwe6rcXfnF0NjUKmI/9i2qXwk0LsNvv8I1RMXzE/7YUnfwoI8MPLFb3TuNAptSorlk4KWfjzghycxlyT1+SfvNHKC6uOIKM9TFAUxABsRYjo9tnxBDmJk04YylvIakiCTRIrtCC6X02k436PP5/B/CD5L1kKm9UYcxfe4t5ZsODYan/vamZS/ZNqEj4nlvoXJze+AcHiiz91vAVCxLhOTLGP340+/qB+YtTnDxHPtA0PPF2sBI55dZsubeTUQd3HXYCKqccXNKOF79EhTStvh/YqLqbgdAs4ETgNsqOMYdytjRRmNFc5I4e8GpCgsOtCnMLEgUHkJeRTw9zwNA78qkksLlKtCb2zZYolW/OpQlfV/8XLPIM1IEEIg6wEg8cVZdX117ObvsPCIVQrkTXkCaHs3C40EnC1+6u+yqgjDoLoDGiUmZZKzvoRbPX57pmn7lmWHfXk0l4NS9BLCgw8SS/APO+sYq5IUBYKiI1IwG56cPNSDhFdeAAuTfQY39WMWCwVDJtr1gdv+RGy+IMYik7Xzu7Nibb1q/AuhkgrCiU6dr8bZjFErSNpLCBAWlokYanafm3Mlx4vp/8qzRAS+HwQ8RbDZ5ylXuX5Fr7C6YFIC7lSJR3xrGs2n89UPw6S7ez07bzbwhDqvYIJqj5HxRedyQJP18Di4J1rJNl77+1/5pnlmVQASgWaAVp8nKxpQr4QfaOeN6e2f5D4/DP17VdXXXcNu/B8zYdSrzbL2GqwGyBizwfbouxSBRtvVdckDMKBX4chEZ6P8NBM4G0P0hKk55XJ48auj0beeSt/eCQYjw5Z+ZDfYyWNygXccZsLMQ6SD+AiIGlqyjbjmroCZyCPnxQMxZSZYiYWnXPBxTBMPjbYUeDTjej8z44+/IB/csKLrFBQcuM4CwkLK4wfCp0pJsw4CVMX7aH1m27OCLKzKf4wj2M1tEOGkc36QpAXsNQpQw2vhAnRzbaMoMpiyflgwJ+IpUOyl6DmgmBrl4ABSBV0D4lMXz7EqzPzFJOlZmtufDX7dV6nhpHXQ4Jf9JzBPvt4+qH7g9Pj3X6fJGKosMnSfoFpaIRP1uyt8RtiV+OSWWE/58OkJGAyZMYcSrBLpqGqGvwjTBUCGk6BJlK1ejRd96IanGlStSJckDJIPKDa9Dg81OMsjUPY/pMc6RTRgH+zsjxhGr0XbdEQ+tjTC8ZGgin37OEYF/gACbmF74ZA4KtFkAj+5I4I+JGZX9bZoX377/59ePRgVy6pkNqAasXibnEvJ4f/5ntsCKzyh5x62QifkeVEIGitXrP6539D9W6Et6Kb7Jqn8UXgIc2Jnc/OTapmBgoWcuTkOF/yi09IywyhQfBAOfCgTweC7KzzmEf3wg28jautl9vot41XOXcTy4xlptibb+y59/7VWAWQl74sF6k3w17VDyo8cOT47+83Hvnj4Jln6OeezQZWsSEvDtyoKIEjEUwjGA0/jWJMVXcS5CGAzAlOiP0SNW3TNMT4PPt0PP/GW7GRkZlj42FIRKm4H9oKZIOOJ1WwHrS0JErCwj4hUpbCITmZtnU96vMMnnM2W7O6mlKw6qBKaxH8CU8QFZLKB0Xsk2zP2OEHHrOPT1K1EnQI1NDjX4DBkHIKckUCZpNSe5MlxU6buSR80f3hbP96fWh1//ph3+AAG17BUglrLori7nMfvW8d2m+lUn7dD/cvAE8MF4NreJN16JhjDl0LQYGbV5gBEFYsF/haQOwNd0D8EXinVOVCostnkgoSkR3cN/LgvfLokS6/R1XUdCoB0ZR2LN7T0vI19ME3wXKyFVhzcAcMwAU/r2DtKCaycUJzQEcmGrUKGcDMe8TZmzwBMUKnQg+SAsk4PJCMAGGucRQtwG6nv4AJjfQcOEArurb5vL7b/or5Ikz3UlaCasdZPMxBaGgIeFQk0wC9FFg8kMKVlsDGxPGZOx4N7hsPQMkuK3A9xtdwU6i6Vjs97sr2eD4bMEw5qeixwVWn/OI/sVNOJxURDkIVV+fg40ikeI7o9IyC+j4FUd5ZepUdt/25QNZU6ITTueAqIocN1nWxX+dM2Pq5jkbGC16T6sx76mls7TpWrK3Z6jj+AqUELBSiK55++OOdex5/dDCT1dIprCyhEv1ClAcV+MeS9kB9Z6Q8GbnbgnJ6Ihadm3/3bXnZYHDd5u71m9R1wyzok3oiFIchrmqsgR+HvCwWY9FJZP/Ijx6OHjs8c/iQOjm7PJ0LxtM+GJJR02o+4Y8EEVht5NOUgH5JL6pchzSvSESBKFbPfN5KRHqHrrka7jLUbROdi6UhNgeoJUxmZdjk8cN33CEdPCglYvDJJQEfDSIDhBAUlnRc5Y3D4xpbKCWXx4Ij3aAMBycUm5qX7L7NG/u+cg3bvIX5u5lfZzqU4LSX8mKb2b7LLmbbt889/Xx65EiXnIcPEfkQoPGCxb3BQaBTQcn4jeJuACCnSmnKiVFg/GiUS8xCjGqw2dJjwKrKkzwD80iwOD564Pf/ph07MhAISLksRAT0SyX5hNDJ5ZWlu0gEcfFKdGSipjPlcSciwd2MKqdUdQ6z0RXx9/Z6wqGe9espGxvwr2psbCJ59PjkoVEtmVKRyt6mED4ZSgVu66FGCFFNn8WXbrxiUFC2wyQe9egbb/spW7MeWwhMKUiXVY6JVqAQSwtI5fwdS4jnTwQSUI9jZnbq4UdTH386LCmgKhtuU9zVByojMud9ERc0ZBmOh1O+ewsb3kBeVl6oDzsnFCwclFg4pp2ZT4TgvXXyBu7IA+iROCUfIv4Q31LIOtyvoNijOKImOGlxfGgWcifahmImqaqrLvsKVG/MKxs50wMbVqtX62+22mOb7+FUTfo4pMJgB/fs/5ffrkwlfFnkJkP6dRwleFb2So7WCrpbg7Kor6PXzRyqEREB5BKonqclszigGalMbnR84s3XQAaQ9SLLetWuoLevSw0HWTcsEYUL3BvpoZA/J5WdPXwiOxs1otNKHvkT0zhEhSTDg4rv0LnmeZL9vNQb8pPRFh4JsMMs1CKIb1qXT13IwILi2ezFupJ8etS2/WecwQaHiGU3evH9DbwbTJFzKMvMErM6MRl//An98EgPdN3cqR5rhg67tIfUWcfOMmsUgDrPYZXyqGlJ8evZxCxyu+cC4WQg0n3u+auvuIpq+MLvxBNB6hduEeerHVRGW53KIl3sgi3dgxsO/dP/UCcmenjxEOpPPFanZ7otuAYGje2ClMFESmbOq+Q0LTDYz7pRPhjfcc/vAiN1eE9TQho5InCwoKA6NDKx7RF59Gg/phcRxXYeWgRRtZdMKuLqqPW00Cj9WwS++CVENKyOnGR5/PpMdEYKBabyknd4w+D5WwKnbGannMaCYQefQAUgnIsFVF9g94Gpl1+d3/7eSgTDxOOkl/KDV6BkE0YpXBzc3bb5d1tcBUPOmrbp90zJ0sYbb2Jr1+Z1L0wPGArEhELMaWl+OaxN9IiJxdP0AqcfUmeRj4zKosczDz5h7dzVLSPwL0vzb8EOSs/y7HMLp4K/XrwW8pby+81+Qn9p0GE4MKcoa2/8HoPzpi9UWErNNtbM81iM0D3PxfLxDIr8gDgEQyvoW5ppqtazbq5b4L0Qe4V/EpVayKFIiu71IkQL9VlSXp8PuksURqHMTqQLcOaiBXEB1XqijPWfe6566qm5ILziZFIwt3H9pUkJmF04wEMfdfTQ0bvvWpHI+hHYDTRzG4TQzbaBjSV4lXa3PEKAoQWCswKchpDQDmsSJx5AOz9xNKMps8iFCvdGfgkIRFgU0rLChcmbU30I+jNxdjckOweKQlgvaFoCH6VwOG5Lo/0pj/1oqS+uHCOCA2uBUx4EVDkQXHnNtSzS7QptaBAKx7LOeVmezUeTzzwzt317XzbhNSH3IVybTvC0IXLdeIONtv8YtiiOV1Lazc+nrXAo4fWuuOCCvqu/wdauZ7qPIYeuz4Ps7sTTXf1Bxwvzgubvl9UA8/auu/7b41vvM2FBJ+Cbnhu8gNeE3AmpBR/hb9K1epAFdKGcd3oWz7UwbBxW4ItgptjxsZk/PpXdu7eXST7oQ2GfFhe5QRFxiWW1pCdxMbtisNAiQAWch0OdrsCvLDk0IPf1n3bVNez0s9jyFcwXhFdOFvWegdVC/h+7B4khVbblkv41G/pXLJt44U+9yZSOoFw7BmEL+lenOlULWFqaV0DYGUWaV9ShK7/Kvnk9PBbT/OzYQSqnpohb4h/QKcKg4MKVMf/84twH74XmpnW4Q0DBwPkNZCo+yqZJlL/V1gU85D36jC31X3gJu+566MaLQc1F6bStDhZ5GcNFrl4sY6hTuMpq6ZkMRWxk0znJ6035fFENyWW6DE23M1nDzOqUhgT6S6w/ZxdYBPZat2ipIpZZV4xwb+Dii1lPt6Uim1/xNFHrvTrf/8VJCTz98Mj+6fvu0vbt8YEHEFkRK+OY6DChN2uLLTxPKxROB84qFZMu5BhkFSZLM22BMBOGUK0yD684yzZ5KqKCxBeLRjVNhZjplT0yEqKRHkpo3UHQCgyJNKvkzEWBlZAt4M3FO6HhC57eQXbjpiA0TlV10RkFULC4nB8+/1y2YT0LL6/G4haSu2vt08bHwYSYN5s1Xn7zxBvvRWJzGizOSP5WQAV6pBMWPUwYFVeZzsYNXyf+RuA6oRSnWVnRuwZiw2vXXnstO/9sFvCwQK+dSSJUUEV1TzJmOgABOAwCuyvNKmBQ/AylebZcGHjt+cz+WQ/PH9HKVRAvVE2DpIkiS6GN65gPBSzKPBO4jrE5RgCsGooJcxXLzB+/7+749h2DNgJoUBktK6GYEyh3SQiI6JPPXcGtnZ+x0BV9iT85vcDQACDgEpv1KMmevqGvXRfYcjkLd1H4DKWQIysCxDhY0wX3w+uqVrBhLw+xb12lRsfH//TSGtEcWoQil6KMlnzfqTrFglYrOoeO3Qr4AxtP9X7vh6x3ACiAPyoP1cAl0h1WNuZmbY1MDq0uWjgcqwh6hED75lsjTz7XF4v5bDhtQKZFh+hF5J5rpMlKkNr/THgIdqkrVgS//0OKkCL/AO7rK8BeuhkDTtCLZUORgAmCaZGPhf8WEkPbY0OzYtLB7Qvu5HJOUlPeQDockNb0B1f1h5b3IZVqfOxE9uDR7nhKT6QACWSF8uTrTYGCAD+UP/b3nHseu/gSDEyjWHEu4beBzBbZV1OAd+hhvkxQ5HB+5sC9d0gfbR/GKnDylpIuAaEsDpvpUH8tN0Prk152LzyxxsmrkbY9/tuGbIBsKijahKRLCmLrHQ9bbFAejw8blYQTtZQWAWhOJIRg3iQYQT7gewNchCmHBvggZ7iczy7tRQ7kJJNlFE/UF+7CCTvcm86lfFqoyJYbo0iMAi3liIWN7B15/jnf9HgE9ZChK+IChMivzfcUmlj6rwMXEE9nZZ52oWj6czgw9hIgEN5jWiB8fH5e6+1fdv4FwVt/wiIRFtKZpiSNJLQbfvIGEgp/UtbiZbTIJ50WIuQ1KhmDn75I5IKzALW4DgAAIABJREFUZ47uVUwLhoMm2TAe5xUgadCo4Ev2qTj2wuF1JaibwkfxYc4soF5GDAOLT07fdZfx2WeBaDQY6ML32TzCB9E17NUEsJA4+fMdQL2ricIS4fQs9lGHO3MT9bzXGw2oay88f+jab7I1p7G8znxeBL9YOaTvpVz1sENxFaKjVUmhdqXmobag3+mJ9N9wXXTHrvmpKT+epiJBhMwvjjkQdQnZCH9glcMdIampyeWDq7/3PYYsI2Q2BCLIvsTh7OiF9pCMAUv2g+0H7t/aOz8fzOcQ9CHiip3NmHp1lkBH+y41VqBk2qucvZOoS45rerKvd82tP2JDw3wBAYwCbTTGRFoEWMhPUMbSpky/0A6Eb1x0p0PUDjUWYvIFhAgYAV+La/7M4PCKb3+TbTmLIfo04EHCo0gc+ryZ/FPPzn7yqZSe95qmBmG9IGQsPkCh2eU+xoQ6SF2zyJ46uDZ8/U3Mg3hpOOPwUWFE/56lBDFhNELbSEU9M9OJe+7p+vxzLw8Xt+2cGDs5bRTmg6O1tNjKptx9RCp7nmPShUcxt60tWect0b57brjEKkQEMhSiWqui4dRKkizPHo67wr0ZuVqFOEkrRsQvi1E5dAzGhxswR9A71CjZ+Hm3nNMs3YXdhfgzvMY1FgsEeq/4Olux3srk1UCIQK0kRD4msdUArLK7+KBRFCtLs092TD76QHhmX0BOWwayH3gtJ8SRtCsYC29ZqFKckblnSnzV4KhJREC0CFqVdDApIXiAQZPsAB2JotF+bKv7owlz1frTbvshQ1gKCtfC8YcHA/g8hbo7gKDQpfhXDI7+xqQAYohvmOOhnpQmB01MJ76pfkasNVmljRn56IykFunzrzuDDWxEGGSFaI9OHVZU2Zbra1B+cVPFH3BXzB1nzz05+dorq0wlqAVZxjT1tKUg6QNgd5os0qpomCaisosmPrtXYmHbQHscMOzlNlRqeckXmtak+bXDp91wg3zxVxDqzZ0/8ENTh6R8RX7nRoIf6RMEDiTFUDXP8LqVF18y+9LLspH0U2EwWnTOvtgEvO0/SvhHHJNDxLS+6awIMXPctM689Va2+XTufw7ggHFCLT93Ur/OonHxq+YwXxSBMfjcHNu/f+TuO4InjgRMi6p6FlkfP2Vy04NYu0VSWtAbh6r5y02BfGmAfcDjxDDVYCCOcKH+njW3/JCdupnpmGIOCy4Cz8mP0HyPDb8BRbyCPLGkmS3SEl/WLfkNLtqt5PPhNDSVTOcGl635q5+xMzdDI0jDFF11dbHAkPxfL+zZ+f6hh39n7t+9gtkBZNnipgdgpWIyxDqiVJGkV6MVRFIzic1GmnnjPRs33ohQ0o3w9rI8HtAWkus56hnBpBYFterNL7EuQawQvsJy6QSyTHqM5MgfHvPs+HBZEg7wKvcFxYGcEyJ+LanhtCry6n5ZY1YEIxD2BcooWOMx0bx7A3D+5nIDbZyuSzD0uhC1+QCFntk5WIXnPX5lwymhy69ikb5sPgupFdHWRb8Ksbs7GwC6rMZiTANOgTI7Pnl028PK/t3dZhprlvQs2KUo71TZ6LAYhA6gTfjpdY5twYXxW6I0CNifkMDCzpiSqWgJrz9w/llDt93G1q4mLShS+hWU26J3gmzBlPHtzgGaGoeaC7/JcA6fEy7NLXhl0bEIC5rgmPCFCEykzeHzLmKhHie1hIBBNMt9rmhQ1VosOE/yzRicBASHErlgT2++tfOBB1aaniBle6A3EbdLUlmBrmhzxQhcm1a15pv6roghDiz6KhKGIsfSptLVNef3e888Y+Vf384GhpjiwY/Nj3hlyFtIToXboBNT1pBlzrd2TS4IA4oB2QwjookWScCagrczD/NEBZSNAMVvc3JP10gmterqr7Nzz3UclumAQBNIW9TCobUGQ2Fjyccm5Onx+DNPKseOhOHoTkfUatJquRTeWp/13gIGaNLhLKj5vTGmRIPB9dd9i511Djn8Vl5LzNCBbqAI/gg8jxKWA2294qBFU1B1JVWC2MRnZFxT/Z6e/j7k7D99Mx08OEWj5oJohFwUs3l29nnrQn+397f/Mr1nXyAcZrOzdFZUqnuFQ5QH0QBQnDNzGfiu501kagmHN37nFnbmuczrzdvZkgaTD68JgMsf/bJKCRgUHxesZ3AKpWCB8TH2xmvG6290pVMQEVoecFMvuomlQqBrqp2T83A5hAsJvQMjALFBcQanxelg+LRrv8U2bkZog+r4uzlZYjDYEj2KIxK+KrE/8Rf8Mww2H0vf9Yj26eEgzu82jt5gIQQkzzcjoC29JnRrApMtK0ipgiRpEdAHBdqTAygs1iLaz1LSsmouX9F7wXmB73+P9fdQXsV82sZBtpmLjq3OEGlX1tAHrgVqlgaa5DNIAoaaRarecEQ/7xzm41tO8Soimi+WBRMMcRIyEALLENRJWWTgJKrAXREhxB++c+CBR9dKQS/Eo2yOtFJIB8FlMfclTi34ZkHLZY81+IFrgDg7JuYGwYSyVAnDmSF78j09Ez7/8M3f8V3+VRboZnoE1SmzhuFD0lL3kBftDHBqJGLm2PDKHLYAjAjKIwqp5Xvwou8uwU3ynScPXNodcxisHApMZA1782ldsDWEQtSjQyulzoX8Kj67/27wEATMipVvmPmAmZYN49hj27K7dvSrqgytDGKgSCTED7XHZwTXQl5Rgqe9v4ooJ/mNi4b4UTOmnuvtGbzyKnbZ1yhcBZcj5zY80+2B5bwNCbRwcRBgve1Iu+5GSAA3YVaFP51qe846HTmOCgyyhHayG5NqQWUbzz7lZ38/99A9qUP74bOGHGFcqiujXMwamaF5jWvSNFMwWN70ehPBwHKo3664kHXDcIvhICae45OfKtuJBD5J222LuCe/EhiQUclp1n77nbHnn4lEZ4KKXjyzVm22Y/J41db/431JigE6DUMjjCM3nCe1lO5TNpzGzrkQwjAIUJP92IpqKXPwgEPj9Bf4JcUuUI7FbDb6+BPR994fMuBYj40Ap29R0n4JmTkWIhkaCiDRyYr4ggZXOMPnSwcig1dcpvzgFuwteTI+kBTP9QDNXMJEiDcwXpTj5GdIdMOXehPsWMAG7QpCn7PB7hXIoQbNpJWrdbaoBSJ6hbKEGApmCNsmIhyPHd3/6IP6+KQPtT6wxMgHlnBCIiCXNhZeBUQtvNPMN0I76HQB7mniC0OBt70G+7Q1uPKUm7/PLr6Qto28x0iZec3j9wB7zXQhZhZcWVW8fp+Sj4rZKxFhc421+zR2HcqNS4olUqHHmWX09W34+V+zgUEkml4oIhT7E9y92lQ0BBK2hwBVkE8mn3rc+GiXNzoX9AZzMOTJYJ6oPN5QIx18iMwutAvSYiIPvlDYe8qp/m/dSCVzKcf5v8OLGAtXDoEGwDaRYR/BzKwbEbyCCUBFSYoEoVEGc8BpAuEI2bihn35u963ZI//8/61EqgOcD3j9mopLCNz8S7I7yEjyFggZK1dot97Ghvq5yIVeaFWDw6FlgNHOnH9ZpQSOYtuwkWmNUiO88d6hBx7qZUmVEswQuwN6hOasFE7qYJ8wV3b4cNn2ynDt/r5ce18xJUv0EbsvqKcIf0FLT64J7u9r9l6FeGo+2+4N7h8AqJAYPKvpueUrNiFVXE8/DoM54ssABSE8VXZ3R2LDfc6n+S86oLNUJv/EU9FXXvdm4rpHsdPUAgRC4WzBKVqspeZo2z3vhXNS2dAJRL5uQUR4mCrzIv1znsWYHV8xtObG77CLL6XeAz18ZYl0nnzsfLeBAFAVk47MTqPjD4A8AX46ww4c9qGnPGKgCxaEqu8v+BJwEhUQnFJCUSfy9plf+zq+yqHwEr/jvMHnZZGLsnuSS5OUk+ABaEuJOTZ+dOKe33pHDi6TVGTdgPzCZW5HfCEEUt+LNNnGLVJro3WOLfIZY/mQb9bIxj3Ip7N57e2/ZEMrclIuk0n4fJrq0+CGTz8CHgFSPcAwDBX+LhDLPB4D5oZWVDhtDLDKq3TmI09+2ZNEqtJIZA0qNQyvYYEwt0kXxsPnsTBEItJ6A63Sk/gKL8OGRmlC4/PpF/548A9PD5tZP2Y5mZJkeNW03HCx+WLXDs3UBMV1g5T63J0G9ZWsvr7osoFTfvUrhlzjFep0GvpJvHQ9m83Skdx1UabmarxjgdKnAThB4lxQwCq2cOoI+SnZiU62cnHQhYggdBkkQHkoN4reFSBV34YzV99029RD9/aZMRLvF/QNBZlFuhkcZ7BJSvlgJNW/fPi//ANJnzhX0DITpO+MjdQPDcBb65Evq5SA3cigKopsZpptf3d82yNrMXdGPpnMyH6oYQpcstaw/tf3ncUAKb4oVtNUtWgosvbmH7DBFeA48B3lMwFOLtzKqs1LcQ+inRYLwWbzSXb02PFXXg/NTupSzqJAD7ARZMbSsXVQsEbBh6uzgxCtcUZENhKsHDuvpnPmHKIa1q9dA0eEs89iAT8lkYS+A5ydE2DTq0swT2j6NU/6yDHdNKFL4HntmjgUU9kKqNHsfCZrzrJs30Vb2KpVKJPRbNEWTJmswKoAYcFA8Qk4LY49+nDq011r4Y7Jnf9JJC1guUy2XgrUO23yGaBQTDafM6PeQO/ZFy//zs1s9TDzBnDUhFockJFvGe14LcEBDplKU3kHTJ6Yv2oHspaabuUlSAk5WZ/3qsGzzmbXXUuBskio2gw91O1VEB1hFoFRIDSUIvvovV0P3LvByoZyBpk8kBWATh8i+rFue51/IDoXDXb15kNds1rolO/fypYtw/yg9FTne2q8RQ9d5AXlEpQbf3uxJ7mlCXwG5wWQMFgNFX/BB/pMUdZ4F26s/GRIBIpHHQ8F/IlcorBGXfHVrpH9x197tQcRPtAgll94L2OmAyFoJvSoYXvWrFnxi79hywaYx1vm5s1bbkKaqzGkL4GUIBhBBTOGhsRE9qQ09869yzt7DCJYYhay+DJrAcpqDK3zXxfZaMFJmPM7ZxbE353v9AtvURgaQNCIvDD9/pVfu5qdfwEMnGbWlD3Y0gtVZKpup1geEIZxC7NMqvg8yyTZdGr6nke1Y2O9kKnhdEMB+lgwqknFk8iNB0+CstuxHNGyLCBOTExh7iCC0Oked6FKSKeNdKg7vWpww89+4mgRkIhQQRokbPI6Eq7QuwR5lc1KNFtl58ezWNS6xqanJkdHh1B7CK8j608mtchUih5KZxichqGQJId42fYHBr9yCVsxAEiQjpgHINS8SrsFfwTuS3QWkZhuzLPpE+ypZ+ztO7pzSK+IPMYafEHIck9B6k6DdOaoOo81O6x5ww0JOsFzJAsSyyRKwEQjOXEmFBk86+LuH/0StZJ5hm/4gHi4goqCQuCA7wDWDEhplvWBiOIpCXlI0CXXZ6N7Iqdm2qk5sBo3iGJLt8hfkkfJQ+5Fomg1ruj+Daf0/RTFGgJMxtmeHEE6wcAdfLqwzdfjgaPH7rvvHMlGgnA7BykVK4y0lkis4mj0OrB3VCLCgUHQZ7l2FsgPaB4s8MOWcvq3v8vO2wK4s4rpYV5+0FjKiakE0/XZ7/f5/FhiFIwNL0Y6C3UGFm5poqaKSa8x4ZTqkqQER0QowCG6RHR7AQkIcQdL7I5oP/5F4shxz9EDC6UETGKkjwr4TBkSSo33//XP2OqVOYlXShUmVc54xbUYv1gEOa5b7bfQWD+LPFWaGM66Bfnm85qUYaN7P//1f5fGj0RQODmTCWg+/Asd8SKNLdEtoKnESeEUyxkrrzIKgP/dXmKYGDuqHWYkFvP558IRDSnSulC/AMWxSQdAGlUgoPYyx13a/PADJzr4T8XTsQcfju3a6UsjByUoGll8YHmniF+OSr64eOhay5fYa2mhip9iQ2iTA4uMDJT7kqlGpDs1NLjhV3/HzjyTGXCWgwUIWlly8hMsT8C0EBLeysKv+Te4h4Mi0j7s+1TKpSgSBzt1M3svuraQNTAWT2Utyx9B7Q+2+TTUzIDSFvgqSRI1+sfXaEHAD6wDHFowKCW6fefxF17onpsL2SjSDYQrOGrTPlqYO9EyTUTt2azdZ8Ud4a+HRNaAhLBVkkWIFasZBbnnIv7Tz+v+3g/I30JD7kRICeCjqpkjTQ6NQkDSJDDIZk2Z1lIpNAe9FMYCrSyO1ydnpYolI3DBU5jQPGRUdSoQXPb161nfSkrsTYdXfF8cGOGnjYsQClTRgc/IUpnc/ftH77vTe+K4N56AAknRPUgPxvGJ82rhyNpGf4u+KjYphysUKRECtxruPWEra75xLbviSuYLMxU52L2J/PyirS3pTZLdVW+ABATBnWqt6JagKK4jtF2iPfrg+CIsaLXYvST5glT3KxzZeNPNcNmBJwcpETHDMF2QL66Keo84o42ks8oZp638u79hp21ioXBWQzkj+DFwrIsAJdEH8b0FvTXzxReqSyhC70Rr0ZbjJL01Emz3u/vuvcOfmuwNej0ZZDgGA8FygkJFFM9ZOMrSYitjcy35HFQsXD7NXJfD2RfxXsRZgPVb4Oe46GyKy51zu1mzSLPPk7fwYlebrIdkINpTebg5xp30es3V6zfc/gvWP4CBmhARVIyfn0+E3EY4KoJU5IC0LPA/P1oxNp9gr705v+ONFWoaZnLilZbt8UHPTFiFHxvK9olGClJC6axebHGRQYt5p2VCG4yDAZotvmzoAixQveYRXafnNH121cD6v/0FO+/CbCIpKbqKdEiUEpqmWbxMnZZtL5U456RAD4mVSe+ibeT+ih45/MafAnLG0jEuxc4abt2+ewiFFpzv8DGH06AkB/oH5kxpLCed8zd/zzxI5Uh6eGyAyBtUnFpH9hBD44grzgE9w4UtRHgqgOeDD8fvvXd5Ko7IL9vUkNgHQwXdCjzDi5FGKXyhOSACe23srNBiZEg+QNMizyiRE6XjYhr0Bb6Ux9N17lnh//S3LMjTJUmEeowAr0DHIXBBKij8OBPnxtnCvx2U4J+Q5mepKBsdUSwob0hQFGauUlD8wrfb+6ZGQjOK4MijsoqizeSlTT+4lV10MdPCdLLgAam8z+JMFv9wvqq4jUfdlFd6mk94LpVBplamg3QllIWbu/9f/COfBMwMTsfk2Y5weaCSSlAudlU40lc8WnjXDUWN1qBsh2BKYhBs5/zcDM8M3XfMzOlnnx247btsANHFmGLEWqg+OVijlaX/GpqDjBHpH4rt2afB4adwMiF+7tAcuEUjXKc6qMTxxB2+Yau25MVckMOI8zVvvMac4CyM6UJJiy1bwn/emNnzeVjxkqHWymcMZKdBAubglBTUL9rc8+PvsxVDcLACon0etcTo0HWBLTjwNbSOqo/lC5USiIKI/IunGb4vGVQgdnTs+NNPIBOzH6pb5GEXwPN9sRMHneq4qPVtmSQIAFTFklF5Uc6n0+QDR4RUY7JrtfgX8z0JRraizhg5u39w+LvfZ+vWM81rgO5V/EdnVL6PVtG7u4YI8uRH+GSKYvTvv/cUlvSo8PlFAjh8LVBHPIX/xUlg6S5wAGQ78gQysmoMDKxHQNqGdQDPDobAUiHk4bYw7HH2QGe0mhe/VQar2NJyCDVMsY8/Mg8eVJHBSYX/IIYlNL1VGhMtgIpAZkRpXJzCHpsFb41E+s48i60cooMFX/X8kF2x+gtt8r0Ato7SbfyFTEQQEY6OjG971D87o1D6BmxTSChAyhTyqSwsqM4vK8wjAQvGBbRilMAr5SBGtepjuXz4vHPCP/op83bZmorjj9h8inyVa8ULlzMFjVEFhLRMDmlkZg+PyEYGfmIF4ZvmoAr2O/FVUe9VZBT4A1666M9UkAvPHLzkUv83rs5oKBhfoCdi542NqA6EUjaFihBcWYVVeOjA8W1btf2fBJNzOvR2EN/5wWuh+1udVtu47ZwHCNvEFuCSw5gnoWj6pg0rfvojNrCMBk5SC1YGt1d+IRetcp6KIBwybNtHh4MOkwdRRWG2KZcWjKvpLEtmWB8JH1xEKNyuhgF4gQE3kqZ3f+2qQwcPKgkj4A/aiQTsjzEkJ/WHll/1ta6f3obwLOTxBHeANOzkgS626gKgWg9NfNcRSm2iv7JH+XgoZIFzRhmKFNRoQBTTXOz4vQ9Ed+5epvn9OKuTJzYZKfEkKUiXbrnXGIfQHYneyZ4qSTFkgz37dAO8DyKeLaqE13j5L/Vrst+TgVjOIWOuPbxx+Pqb2QUXQV5FGitY8mAjaGRkaMKAozoQlcmw3R8fenjrBmZ6YXGHH+9JuRachsktcVayD/g9ffBF2HIJ8/oTKBpAWZBBhni8xh5cDm2Ro4CEHUSAjPGDrcFOowR29NmXu2fSsLEjfzbKYgm6rRixEAsqIEQDeo55TdgmtbiirbzpG2wZ1LNwqETqBRupOot7Uqk1sLyCchtfuhYIinEn2MTRPb/+58zYERQfpZOl5GGWFxEPVGGMXKzpp7NTwceF040PtQqwF5QOqSTmqBOy6j33/PAvbmf9/ahlJplIhoLa26UzVnvAoEyqxKYnZw4cVhMGwlAJXRgfnV3ba3ixt6GJEXkgShIzuY/YnpTiT69aGfnu9SwYQLIu2hlIPBCmlM6gHfU3FI+fhMOpsdizj0TffimQgcV/CUdbCxOl8QhJm+JsQbBeS/HnIr0rvnE1O30T4LQgygoRQtiiajW31N9jLWDp9nUhBz6JyEuAsJLUiFWGImYpg8US6KmuiFAaOjTW55zbc9EWy+s1orGolD+uS9lNG0/52593/ez7LKKbfuTvBXGD2rjcU/fCcmiIw5U11BlKrQtbrQe4CpIfswC6lQdXRUbr+G9/J+3ZE55PdWkBBTZFrCxeZIi0h0swl7VgW/i96B1WdNS5Z1+7KuMPoEId5IYOHQsWdvhFfkMTIstpXZny66u+cR1D4ccgSh0GoR9uUEQQ0GOCEW/EotHxZ58OzJ3wJuZMhLa2ocprBCmkExBHc8yNCFmmsxbMJPKEkZ31Bc/8+e3srDMpIE0Pq4ovTbGYjYoIbgBo/bj95+HywKzks8/mT0xDxtVKy3axBVwEFTHUPECOciSM5tIbvnYVef5TQLlj0SB5YLFF7vQCx3EKYchlEHk2ufWezOefDPg0y4BYi2Mc348Xa6QRBNd7hvZI1FBw9n6utMApwDPj05UzNvf97MewuZIvAhkVAAt+d4gR4UCRirH9e3yGocO/AZ4XUMkokNKqJRysN4gG7zszQkPmb/C6KrChIBxr1uPfcMvNZDaGLzYfKn+GzkQNNl73MQ+i8EEgyfncG6+Mv/byilwOUjjEeKQ3qfvuEjwAAuX2FBIUYESHJ41vRg/0XngxO/cCoCYjnPfI/LQEnTfbJEzYkSCkBNj4AHPRj6TZZqo+D6ooCfT4O59X4DQAXQJRe8PbGM4uXb1dV1w5HQhNhrzHwp7IZVuGf3gLQ71Hj5KG5zfxCxghgU3IXMidvyR+J1+wxQFrBan8SNQHv0jOs/HJ7Asvzr7z9vJsWtM89sw85Wd38UWB946tsKrTW+XLAovn8S1Y/3JXkAUC3TfcMPniS11ejwK//X9vl4yQhrSmTPr10MWXSFdfwbpQ9x3iHDYareoKF9bZCjSAP6vxJEsm0w89mHnvg36LMl5IOD1ybzKXlts1pXTaausSbRWN7JDtKIkpX5uzljEf6dnwrRvY1VczL5Ip4dyOx/NeHGppVLyCVuFqXCS1chkhl5DK5PO9h59/YQV2aB0HCPgJUgY0cCF54ZG9yCsKnSJJFcKjUoYx51G8KLZ50/UsMkg7KC8FQGtEHEUrmQwNgZ8kSB9CIgJKq9s5NjuVff7ZzCcfr1Ukbxp1pymyAEOEXwYfK54voLqywbbwz00faBtQ0aCdWQ4EJ820vWnjwA+/w1YNMh3iphgUAYFdBc4YLiIQf7opYSFVlB4v3gMvZpn04bff6MaRg2MVRxBateihaLhsa3BVXiZrEQZL4xUaOHombSvTPn831G9nn4dS45TxsygKkTa5zk7hQkVlj9ydx5Foyek3Y7JEnL394uFtD67M2EETETpZkgNrJotYpO3Kvlr5TFICj7ckt31/wtaCWy5Sf/RjOKDkbSh66Abd5ZZ3TFFDOslW4Kj7DqSoPAsH08ivwbPwCCrCQV8WRRQrG2hCriE2whXk8BHmawFpQG0vEBPFTtHQYnOOUSKhy8ZN6uVbMlPjZ1y5hQ2vZas2QcKGbQ0rnbdFgZXYRgE/5SnGMWDhWqkcS3Ofv2ApgQ+Rqh8SC00l2K5dB555dnk6riOUloNWtBcB4yKqpPMG1IYxJrYQMMF5iISJFLv6yiR89SfGQzkF4YINN/MX8CC820xFPSGz7osu6fnpz+CxSNIwnQ6aBN7KaVbWfvP1Y6+8ugzZdinBDLZsrESc7ZaQP5BgWVjUoCwSEXjVLCju+i6+VL3lFgTW5mUdsjc4PGWPbNLdhRhtkWlAoBI24GiKTcxNPfFUfzqTT8RNXo4NT6JyVwFrVRg02XFxWzyiyCg8EPOy3MreNd+/gUWQxBfdFBap6LHWFHDpCroCHp6hstlp66WXR/78Um8iFoRsx+mTu37AtgInSDzUaV5SSRp0oESH6FxStKlMNr5ixYaf/IydstEO+kg9yLcIzqoBduMiWWU3ZZ+hQRkfs8ZGzdlZ0kHSmZ6j19m3quB/0eaavElUx7GK0EeYJlcO9t10A+tZZkkU9OIQDKaPHoO4JmS+Jrvgj2P34Xl7OSlglDve3/fktq5kwoudgm/BNOqFUmkrXTX3DuZRQV0jUhWQlXzGSKVWruv71vVU+BuO+oCNxyHTdAB8zDlgrUXPzfXc/NNwUcLCDPlsn4YYLqqzAViKi7r59sreKM/4YkOZBRcD0PrYRIlvNNKFxNI55usfGL71FuTtZF3kp4cYKhA24ZJBTUakhOSqVC+GEAtewddTR68ON1cfNlohpaf4MkbRH51NT2ffen3kkYfXMAsxvuC79BC3y4rkAAAgAElEQVTXs4qLRATIYqKqcP1uOvsEAYP5gOOuODIikAxHFuZX137vBhN5uQvulZ3ttcOtkUYUOsCCAZVQK36q9INYdiiHBy+9vOfnf8f8qDAk55iB2nEU+NDwRTZ+ZLx47+3DT25bbuWUbAZiuglEapqlUNGAhltq7kG3iCDeJJaK6txebfkpm/ogIoBd8XAUD0pSIE0fEiBBeqEow0U6WoCrsi8UlkRCSZZ49pXZjz71JVNIxSBlTRokb7PQciX2wCcRTkqaAr4uZF1LqHZ+Td/qr1/KztgEdDshP4KZVtfTFtrk3NZZJjGD7dy99w9/6kukfcioRK2TmgHZKXDQtOUkU9JcM7w0F/Yt2qAhgyGRDJENeW55wxuQPhbV/wI+EliAfe4whh8FTn5OhB6+FT/1ARPvVs5KPm9v/1CemoQfh+pRswoFjACLxYmo327rTwhvTZpH+O7kI4FNt3LfWMVPgoogLUHyBDQXkpzBtrgQaI9Feo8P3jz06FZPNAEaM1QTNEfE7dbLtD6i+m8Ct+6dFU5kfMOCGMpQDXVmZffwz3/A1q8Xki45sor8FWhY8PMyb9v63XXyCdpkc6gzLgd9FDVH/jmFk2gnuiG0cMGd3NoQZyRJqMWZGD/hUMLiXRSFJ3AnrI8cgjbDLNzHlJDJAli6yIELZq5YlNIeHaEbiAg6aRf4ohavV4hfxS+bF8tOoi5BrBPCXQFDfKPw5pDiJWd9+MHI888PpeN+BOdrnGGL5/mzi7LvxfHdmbvcF4mmHLDD2KwjC0fcYP1D7NyQtPb1+Of7NSmt5igzJuaMhwJ9yS4316BzDEEIxzo6yHI8Ey9FiBx2cRmx7GrUo/dt2eLHyQ/KUs1Lvun1BqSIcyOfXFKXQU6H1n3kwOiTj/lOjHugUqbiSWiICpmapukRyqJ6zbZxn7ISYYliUMiDgBKx2WB42Te/xYaGbIq9NFOpeBCxRhT35FBkhZoKmKl2wi24IRAl840BK3M+yoJdbNtTE6+/uNqnyfF5Gi0PRCtsBtVJgh6hAvdgIkCwjQTMaZ9H33i6dM23mTdiMS9McfGMESpWrEZv6Bc//ODg/CIc8V0X8gB5hprs0O7dj20dyKeCuVTeyhX5OKRuStkMx0XiLOWFo9pA9MJXqawtj4IDpWVkOeHxDyMz8fnnU10WCb6KbmsHbALka1eXwMp7cQRz7thEtEseYdwVY/+br69QpUAYmW5zdHKlqJYlt4KT0UHUwKBQGdXo6kZcA5Ud90AK5ZyDSwr0WHGojk55IfIW/4aTJNdgIy8ROzJy6N47fcfHpLShI5iUgg+xrL+YUwtGSS4SxGpwjPLBJ2P1N7/JrvwKTZHG1eLiKuNFiw92Se+CMGR4JqlaULZjdCh32EDHOqW9oNhm/v9n7z2j5LqudLFT4VauzgloRCIwS2IWJUoiJVISqZxHI41mxu/Nemk9//A/+6d/eC0v22t52fNGI40kZoo5E6Io5kyAIEgQJHJsoNG5u3K4dW/5+/a5FbpSp2oAsn1ZbFTdcO4+++yzzz47IiY678b0hOsSg32w8pZXRM0cgLfGEJBrhkNAYB6R96LRpQWTT4O9cO+H8GbgXGaQ5MBt93GupATN2gC99IGeCEAI6CaedLnj6sDeg3fduzaVC+fpH46MEWQaRe7RMZWomMbNxIP0Xs+0OkQsOd9AXQuLOoH8d5bd7fKYI5MG4rF7N3T9x//h5P/+v3VOnA7OztBdSzZ8XH2Ff10QB6cl1XslYYuAgZeY4DSij/X7AyqTmYvFkfkkHQ5OsejRV6LYcweCyIiHHDxYbMmcSPTzmHkl4TlGh6wQak7pNWJ+GKty5sh9d4XGRjuQWQhv0iYkAAPpEJOEsfFLXBoWh03yYsojJr4UXMwNYKPATHf32h/9VH3uGtZkgyzn8gRDnVxB0C9NXXiqNKvLy2oVfPgKdIE3A24UZgA+YM8soLI798FGofjonaehMonPMgAEcKJ/xAkWRFI8uEJD+wru9ORgApBkAYFg2ioYay4a+Pl/Vf4+pUKG0H4UeRtxkIFQG8BZU2Em8g1vYAw+9DM5lZhCjsXpR387MHfUyMaL0GfAuYmshLexVLe06TQowiKPasbtnFrRP9gimtyf4b3GhMfTf8tX1G1fUQN9FuqDM/MyMYRrEKvxBX3QZyqvFC5RLZpqaaAyHA694UnwEtG6whUjF1fvvxtIzfkL2HhAq4C6o8QPHPlKLaO/VUNaed9KvwnbBoyoDW3FfL65gYHNP/ulMiIZW2Qip3vSK41+AFwZxIZvL68czlVMG5wS1gIPC5/KJdSpo5P33RuaOBvOpuECAKunEFzDHjbpdfW4l4mhITh1J2tQiZ9Q21hFt88dyaYLiWDPmutv8n7vpyz/7WcVVr1eAgVEhjb0ASgh3fNywJfZA//ZtOU3ur3WGGVaYkArhBqiq0xFS4YXHNQNEbaQmjh9eC2SeaCImcuby2T8QZii8FId8IVpPp9JADOy2ElMBI3vAbmBqkGRiok6MjukXKT/HsEiiQnwbcVqQ3QsGQsLP6C7VPrriAjoUiSkTpzY98+/7puKdYHEgEpMe4wW1KFVO3JnedMzoK39Xxjy8h0itWEwoBIOocZXLE7PKAxPuGPjv/unMW8gYQSq0m3rSb6E5lf7Vo1DPVf1Kogz+IJdXzGP2uZFdygyaxhHlbrkxz/p+c73kNOj4AvBO4Ghqo4OcyFqQesUAlCv2MRadfL3v/OeOB5Kp1CHTmLFIPTB1xzMlA6p1Rmo2t53AlKiE8QLjBXtwRs+r752q8K0ROoRmXT6I3fq+EK9NM2DhfipnHYeodjuQgomw2cgdQYKlk6bzzx7+Oknhu1UhytngIZLmkb9pUXvoHLw+gx4OBXswnQuOxPpHvzlv1feLhXqFG+JGoRT/OG5iiVOOgkIIQHgCzA/Pjby+99Yxz6NZGa8hTS26dxeluxEpe6A1zQUWlpAurRLjK4sIq2S2+zsdm/eFkFeiu4eZabcrPmu0Si2a4ellf5d/EtKgws6wkPM/I3aWunUyMsvIZuQt8hSujYiWmzk6eKklBFfxUPSqqGsVtFEKYo1Gzb/5G9Ub79puYJu+J/jkogy/J8iJm9d4pIsoDvEQCnbTKn47Pg9d8V2vxdMJ4LYp8JEjUrZ8/X/q9jhEjQ1/ISnXb6kL5geXuP91u0qEEASLYoIZVCYsFZ+4K8m5lWFsknjGAKu+ZBi3YFgpBvhNxwfmUdVsDZ5eNGnyyyI211w26JppmbVxDgtHRCfnexhJAdNHg0blvS+8+6BzlBcIuXQX3hdL081HKNhk0s+eY50CRSzaQf1Sn6JEk6QYPHUscR9j22MWxGUNE0mEMuNe8THSgsJpUwRS+7XKjxQYTQ2FprY7Hgol1ZWXiFFzeaLLvnJ3514/FHfxIgPZyjlgAxWZcCW0TFZ58ikKlSLVQIqeBGfuQ0roHqez+rpnI12feFXf6c+fzPzjaCy7VIOJ+s+3gEXqsRY+vUdsV07NyKjIXbgzCLvgbKHIsI5OriLBT/C3Mx53OHLrvLc8S2qeUJMT7TYQ/M2GXd6lXONJmPDuAp/w8qUVGNn1BuvnXjmqbUFMxfPBX1RGzk/cDjLQDUNNKQH7blQRBLWfFf/ll/9B7XxYtXdVSselCAG+uDHgAN7B9EPlIiSPC4Hx72Z+x53f3gE2nakuoDqGxiAOEA1m8BDfJSeKCmWSk239V8vimQYUI1YxyzXdT/7hRreDAt6oYgtL/MmC9gicfOlZNXy8ob4mQdWFfXAYMIeIHOtBwISHLsg/+36ZOaD3T0URMS7j2YI7vHn90y3sfC75j+1wC+sfXYmX/D5Eh29fV/8qrr6GsCFkhvSKxELdF9rgVmg2RKjLCMHYMONJa8mR0b/8PvM3g/XoP+weZeSl+j55eSCXPK7FgTGuaEsN8/jJxgQ8hN3yioU1g5t/MV31WUbEDVNwqxu2BEr5FSFoy721W28zwdSxGqNYKKe7kpVsPa9oNbuDEGBVriiOj2qtlwCu7WbKcmBHhlT55iHqmXCUmEJVdOF71g+zS9tJVgm3PKYIED2D/iWMpFJVc2dHbn/ruChI3346Qe1Y1MHk2k11lbywnY+yxVCr/rMuor6XlY+Mc0Ue9g4hoIKXiQ339YzNj7z4hOoiRxAONu5Ww4X0U2sEAK8M70r+xgYET1m0Z5D+dFQON87+Nn/+l/U0Fom9fUbepfWovUG9VUxsuAUyI5wdP+pl17YiH1yPOmDto2BDUiORfFda89aNNueS3SxNqCagxY07gtsuePbqrtPBYOYLIvo13wQsMLKf3pxAx4dD8HYrBo/nXvxheN/eaEvkwpiPfaFkvF4AOpEZ0lYuCtg65l8Oo+MxR0dw1/5KrM8RbuUb2H2KbOodOAr8ljGZ47d84Dx4b4BKIaYlRejTR4txgznqGbrCwO3gjvou5i3ppTnym//UF10sUI5ykAAhFAFMb8um3Ohx1BY6dGksADdVSYx+czTG1G0wEL+GtgbhOYXRuQKOln1KCxxWcvKeAPpNZvULbfTSQVCApaBfEr5xGC08gOEy25DNs1PPfRAdu8elP8KQ9SHa9s56+f8XlSp2cDfueDB6zkWDffeeK269rPwxkc0Pz4AGrMHE78Bx1g5WpbZgpAi5gO0gp2RfHnRAcFQgl1mo60fg/YUBunC5IQXtiF4J1RE2PavwiWptDVEi73afviavRmyG3Ju0YwA+d4woXgZ++2/eA9ANQoLkV3MZWjBg+oXanwYrbmSnbtJ3gzm6vOaw5LeobGGShPJWw59ymKdgU46Wfi8Hd/+Jhjj6Osv98RSfSjMY9EgcSEchFxvJUvUD3EfG35/KGh5jDlUiFk3FLoWFc2/q4Y2wFcRy12prlgJ/KppM2+qV0mrZMipFH1o9u+de/zJNTPxUCaPzAjYx3KJFbHpHIkIwpYwJZO2Belny223qe1wrccwYUAWWDccxlfuL75gcPPFvMuCfQFppaE9LSQz3rylTp8e+82/WqMnutPJKPsHF9yiEUQWvEXYL12ufI6VHTzhQNpjZPv6+2/+jvrW91VXwPLaHrj848CfOmAxQxwnBQKCldIqMngELiCzuYcejn580A/9HJQKVB64TdgzEIAlegSt5l1tgjRNE16brB3q9sS8weGrrgt8/VvMsWhQXqnSGdR1TBPaErmzI/BRN1lU7+8snj4djCc8QWqvICIwq+Q8Z64qYm33tITvizvSFQt3XISi6pCz6ZtGhYbyYb9YcktY0UttqKtJnJNzxRf/lH3j3eFsGg5S6LnW0um2FxX92EzHWX2+spFoAHRZ1iztOoBtToxMLn0W7viXXLL2O98Qf0U33CihW8dgi52pdvYLSTQ/qomhCb00f3iBK857QSBu29fTldKMgXxy/oPVeNAqbn29JX7mNzGvi8hlMfbJ/nXfgZcxqljwRvHgxze03gwZTTpffbrulvaunedMStDkIlsgfGBUe+Du7Kf7ojNTATcr2dC0iN0YJ3IJWXU9X2DkV/Wy5FOiJE+osNcuIKODGj2j8jkVIgtm+aD1a/p+8CMonFNv7fQnkihfyxwv7TjmyezS4BI3hQSDrs+YBcS/h30J+eN+77hpdl92xcA3v6k+f63q6ICrEbIm4R5Rkzaj2iZdQnY5GGFHju+/766B4yc701nWQqV9+lyLCBo+cKhYwXQNrFVfvx1GYko/1EEDD0vqF7LWkAd6fUz748nGGUGQzNivvzH+px2BiXHDzITgjWfSS9+S9AB6sFoPEEQEH0y2Ss0WrMzgmnW3fcN9y20IyrK8UNW3AA+DJ7OCqwP/dUMKcyGvZTz9wo7U+7si0+MoLgIFinjOIqRE8l9RPmsPHTYZ+MppkDzkT8gKcV/QXL+WESUd3RARdMylpGHG0WRiL05E4CSUJsBVnV5BRzVx5uSfd0RjCT9yFXNzfY76W+55AcTm93VfdbW67gYa4wEfQcA/lYLAC2Kv1Q1gPNBJjI3bL/756DNPbcjk/aBDNN8El62aatM19M/J8oVphdrLHpXx+VxDA9t+/F3V3akiHcgFrnkIJ0WbXtrmZmBXtfL+/h4nf66GspkU1Y53G9hLoGjTzKwKY/pDowAxHv8wRHSedrAd72pjG6sqJZTnKsORIGyyfCmi4xKz6pnnsq++2Y9walEXYi3Rex2SE9iywTJyfjhtL45xtBEdCzfFdEBwjUINMXvy+JH+dEJFOl1YgbgMu9wdfQP/+J8yLiP27nveuRnQxMINNr+D81CvOnV4AD23Xofmtwr0IgtpAfg0aNaGW71l+j0jLnPrt28L/QjpcvtR9t7MIZOVn0Nlo0w0zL6o1FezYmmINDQ1Ex++OVkVm5p94O7gwUNBC2HRSIrA91L8q4O/eafbcwXklDYzuWAYnphqWJIcMyyxFPu3eIAwhxFE7fHCE1DNxaiN+HDv6GNPFk8e67VTAaNo5Ux3qEPlgBnbK7RBxaqsES0GyAeBDKJHOp2ORjpv/ab7tm+qoSEUufcg5pmP0cjBuYCGHDTPx3kZ9zCsToypN96YffO1QByh2BnLhRQFiLTBvPa4TPoluIr50uRqD25rWimtBCR1ahEKBWDA29nJuIZLLtFYYN4XHoJ/Ar8UgpBH9APa5VIEBRj16P7N81Y+89bL+VPHWTt2ctrfCXUOo23Eg7IG2NX6iVon6aGhoe9/l/YFQMnhl4925l85HOAkE6Nq9+6Dzz46EJ/zk5+KKQmbWgyx+MATrVTcnYsD/UOEFPmJ+DZDRs4EPPEO38bbvqiu+ozyIhsYWCKT3uAjioSFBDcNeA1TWe2ucHRcqr+PWl+8GoGzCDFdzZdiuTPn4MA4oYYHoOh0u0Mgjcrat3I6WR3gV0FKKI23XiGBf1T/A591sB+PqddePfbME+usvA9R4Cgjixr0JA7W49MHsCY7Kt3A6vR7qa1KLq0Kt4VjmGUlzoyoTAo2V9tAXDs64VUdPSoRC/7N3/ojoaN/eq4nl0V6Pz+Dm/Uukz2CfaWkGOQEw+GsWVXzhFteuYS/i6HaUrIj4cVAZpGZW/m4/BXEwtHdzXQIPiPn9uW7ujPdnZ/50ffV9dfBJzkLzbTl8gUgmGnu1gL5zqiiOSwAEIAdng+XvemJxOMPJz/cvcY2fUg1Btc5eG0gQ7O26xOQc3dgb5f1B4evvlZdsk1X1HVQKkguy6QVgJAORkYD3eJwgPniLz+2B4YwK++aHlenTk6+/FLqk/2hqamImS1kZ1FQDoGQ5uys4aEALPjGg3RABgPFG5mopTSUEtVM5ThuSiTmMm5357qNw3BE+Nb3VHcvbEAeajtkHdWbZLqDcnUFxuGrKONaWmzJ0eQHOM7HHx96/KGhLNJ1ZNxIe8fa25w/6IVeR+W5VT9EVkDf0Q0PMs+7Nm91fe3rLPyBQDhZJBY+AGeJA9TfrMmOc4GjIyQNHsGzWfDdU2+/OmjnCyg6CmwvXQtW/7pmZ0gb0M1gXJBJUINBHZI3YYQuQtrv7ZdZeWAAsrYDZ7N2Wp2XDpZwRpTS+Qlmwd27Prr3rg1mqhvMBnWDIANRRGgxVcsvWRT6W4HU6JrDroUUUcQ35fOb64aNb96ByK+CF0qsIix14IokZ3m8IaAYwApw5dHXzzhafYp6RHmZjNtHz9IsRpHBalA9ilCpCa1Rh9txDntLC5vkuSl0ySpYSHbPoyQEt+MNq9JGu6UE4BnMC3NVZ9DhDg7GU4SKooStX82m1OvvjPzxoX4r6ynk7RgkA0PPdckLIQiDFIq0E/gX3oyr0uUlN1pexTWhw43R7TVcyDc8PaXeeVv9aCtLJ2LS6PCUaAS5cNw//snGwY7jL/xZHR/tyljd2GShFVCglYf8in9FDGKYvGw8S4YYjQBckZlQZkPzuKfmIIIa3oA/IHaGe+GvkDjnLVcKXGUeVMYXILTEV8zYpj9yElXLL7+k7/obB66/Qa3fCOU5q9WVnHeEGmD4cValiuObMzNLExQRX2SOzEeP1L+oSqam59Rjj3nfebsnk/aCTTNREAfWkGzMTfZ0q8K82AMsHR5vrL9vEJ4WfR1Il4uqRzADYr0C8tnDypqjb4fCgK5EJF6yfsgYbkbWwckA3mexUbVrZ/KtXeaxM6F4ssOEcyDUXKglGcVOnhnb/HDu1vIZhQIZDrTF2E9GQKH3WO7dSGBPpEBTZhvehNuT6h8c+sEP1De/pdyAy+dx5Ixy/iouiEgsjeIw+sBvvAMNl6RG1HvMqTffPPXIA56zx0PRoMSRiNc0+shkk1i4xZRapRCqtiItBvta1iyB0OhfyiRcrGmRo3udnfb6TrkC1/7w56oTtoayiIu3gdnrFqo1bJUpTrtsib7q34S2eZGTxbloJpMGrC3B/NHf/K+hyZEwnGDgLYgK4KBIqhnqiW4xPa5/8/wzHFy4fbgtb4DJxvNp5TXiltG1/XPqy1+HO4In5ON6Bjjnva3czYVgIOXwjVq+t3IZ6FVVPqnefmv/Xb/bkEqjkhMS61BPLXfhtvn6g0r789+/0HvR2BJs7cK8ZCAgWyPSGKUQCl19l/ziP6ruzfCc8UIlBlrQY0ZInbfjHz16pTFkX8HsSUO4S5DGcmkYPv7G/0UUqQfKdUkOvg+t4XRzOuE9iz4oIsBc5Ud55mg2hYR+JGWWbS8d1GxXfpShXvQL6m70FAtB8M4zh1TgawaDLPAuaszRtCybzuuajlaZjtByNRL0+XloaROOpAvtlhJKeNFgi30UmQ9MCRh2qz3vnn30wZ7kjM+Tw/i4iyy7LBYHIZXS4Wyl2tnNuuFa3gloFPgfeZDXzhvQ0R864Mmk3d4gncyldh8WEMsI+7u8vpu/fvHWy048/NjZDz9KzcXWB3wgkUw6HQhHHO9r8XVopirQbKIlmMQY8CtKzfIEFOrhhHcXEK2OFIO45oJy0JcLhGaNwKbbvxq65Sa1bj2rOyI3S4dsgquJj7+bUqnAQy4vtjSsWLaHibBS+Tdezr73VnR8DJe5gRZuwFYqWwB59Nwd9vZtW1VvB10lMmMBX4hZDk1sbxA3h3yG0kH6yDt9pYBXyLts5LeFREuhTyVTat+HU5/sHt31UnRuJjqT6wPvYxUl3KRrw7AV5OItIRwtEjPOflev1s5fCMl5OvX5vKY3lPD7YsHA5T//hbr2CzD0sC1yxxJqhFmTcYgiAV84nqU9I76z/Uxa5bPFt96a/tPzPXNzPp+vEIsH/LBiOP2h2osSC5sqceZS++3+l3tK7uCZFBhF1d29ff3XfFFt2MRq18SQhkHeupR1qAbMCjNwvtmUQFB//L13sh/sGcjlDWxF2uUE0BpF0l8J+0esfXAqV5gLR4duu135QuyyQ/bVTVRhoHXL5avyCo4lkmlmEur990489fhAhhKqoJGju8iWVuk20akIJKgJ70UQb/f6L35Jbd6G7bEXoqqowQgi7hGAmx1C28IodINSYMThiYW4Dd8Ldzjg92vRoUU7zdpf4DzwWwBr9EHgw/YA4yR8YRUPLIjIo1yYOuvNpmw/7JcgYgpJSyeRVQSyvul2SwmajQlZOE1jhBEOk4+rT3YefvSertSYKiZJ5divgQuCyjgypdG5INHl7KhKsHE7AX0atqa2e+TIkU2wO1zRw6UFvbCRSoERGiwREF2vtq/d9E9rEu+8NfqnZ6fnJo1kOtLdWcxJLjyiiApDzjXOFdCJkAo2B0Kv844G0wzrCpEGOQOKfTFhaK0MNqPytO1H4nB4uRf8ASscToWja2784uAdd6j+bpWJq0hfzswaMqfrRISad1f/JNOX1QuSCbVlbhPJ2i0oVFipAZoV9mW1J1oL8CqXgoXC3K43O5OTrs9+Tm3ZitgN5FpEhToqFAL58n6cCdLph2GxsC+Y08yMmjirZqetg5/OHDs6c/KYUTB7XXbIUiGIswgLkYFwhP86QHSsLBkj3FY5pkL5coAZINHbTDY/5w8UNwxf/o//qODppgvfAGGamVYapElEsy1MIuCZUwmR8fiLZrEc5rPqgw9PPPxoYPx0HyQfK2yB/OjJ6DRxLkdBmzbQQVRsM0MdsUBwy7e+rvoRCljpz4q+1bBvbF7FgV75imp86vRdj66fK0YpT2lmS/Jbxe6DvCWpi1HMQ1Edi6Vda9cPfOEmdc2VlD7bcmD66nFEAmaosg7tP3Df/V2T0yFYZkvHOfM/aNkhJgOG9ijv9pobN3lv/SbcVL2wmlUzrwaMa16TDrPQzE9mgRsWSjsFuy322W7D73dlzHjGQJIxRw0o3ijtPUqhquTF3Nu3t/Xa1pCZfvL02TWxhLsb+zSqGYV2cbS7X7VvXv7vNlF2FQB6Eyw9xh8gHpnCMsg3fviu34XOjrqSM+CyRdZR1RRSuyAuvyur/KQGVLg/snFDbSysO5UuHjvs2rhO+RGL72WOQWbogHbESGEtRTbztZuiXw9ffMm25F92jO39wExm/LYFk4okSoO/Atvgno/Z45yjRotAGYV7Fyxn3CDiJplNXIeAQ5Fg9FrEpQU/4VUE0big4G0QSLv9/du2919znbr4YrV+A3RryhcowhdEFi2ts3FGqfT21v/yjXIHli6DEr6t9n507J67uybGoQt1wNOGj9YNrfJV+I0WZuNT739gHjk8YRb7Nm/xRfu6OweMaIdaP1itQSskUzNzs/l4LD8xUYzF6VsUn+2FqJdMbMgjcx9KlkLR4PHDqgL2pMkaaiP2XHvmVXoC5NOsJPdQ1JPbMWDgpNDK5oO+Ca+r96rP9//wJ2rtsJ0tuv0BhABD7dmA79FuwYZAZORaZeIAys0ctAgQEQZTCfhLMjsFrHkoBlMna6wyjtm8FmiLMNgY8It1z3gDW5Dgcu0gc3tX8iLPA2SpE17fL0gtvQ9fMF2mp1PP/8U/MRtF6WSttOBNuN25d95b2/gDe2UWEITDavK+qsYAACAASURBVDHr9yG55Prbv6E6Ydhylrw2vIrTDHattBod2/+HuyOTE+FMTrJrXygHDaYgddZ8UchIve32bzOoAQEmpNYlwkm2Jf3Cc6R1U82Nq5GRU2/vjE/PdW7YtP7GL6n1cIb2cUFtb/EX+ArpBkUJh/3CKpMO+QOizJMT0yqRUVH8ALWi/ySd1X71Skin/VKChkbrIWFwVXZSHTh8+ve/7zx9uiuXZVhUsYAFj6ZT7peEQC5spUtZPiibaVmvAMZPJJj2Fs/ueX/ttVcxna6CbbikB3AVwlqnAEsEOPjWrZHh/27r8a/Gd75/9pU3uuIJf9IMQH+IHYmnaPldFtwWXMg6zwlGbR5ptrTk6CnkYIqCArK+MtkxViL4vCEqU7JRAYf4Au1fJhCNY1vZ37/2iivWQz7oX6P61nDnjz0Qd3xQB8IAIVjHMkbP/yXQpzAACMDwNcnSLr7/4PHf3zWUTPng2c4BvTAOUdX4XH6uobHMOrgmHdgP2GZFZEeQB10mqjotw4q4AMSA2BGkIrJsOJyizKtPVAAO19NS3HxdF0W3+cjTTeE8PgaaFL8FvC7pKU76/Bd99/u+W29X3WuQ4Z8ZVnDZEfBqhoDNiBGCAEMLCwWVYF4cUF5/4/g99wfmJmAfQfwC10voOSjBVKNfbncOftc0XH226oaVfQ0H7bk4amen4NK+cZO66WY4YxaKsO404y1Lg6Lmbss0kdFaxZJq7/7J194YgoketXS1Jg+9pGTmpQdn3VFtb667uNgTnDJQvzEU2sq43ImOyLobrleDAy0VCQ2AafG+QqrghX8iYm4P74/f/8Cm6XgW0ipMD6CJRhOsafnHRkho8d6lXoLPZt4bHLNz275xu7poOwYddE5araHE5u2iN04soCMJQjBKqakzuR1/OvLiyxFTddnuwkeHPnjlrav/5/9R9feowIAWzp0p2bzlxV6hXIBounB/f789ekZWJSbtLD/e9izy4AWZdMaAtXcqpjqzYpXjqOr9x9IIpbqTS2Dhi8VN9X3NZvJy2sIzGG6xSZMLc6uamlGx6ZlHnnQdOtab18WwYYvxYe8hUftIYoiHuFgt833n6jG9TddLC0baCz7F1MZwtLTHjxxCZlyK0iEwKdi8pUc4ZPD5cXsLRhjWL9dlXR3rLur48tcQujax+4Ps9HQxMeN3FeALZfgQNQiDhcxskC6XfmATyz+3pHopknSz9OnMmyhJ6Qp0d+WsYqZQQMFD2+1zef1glwjDX3vV1cNXXKkuuwSJnlQ4KpYBPCgDLfDoNQxfOEY40YT7NEat7hSqZmdj6uzpM3ffaR85YrihWPGrfKZmyWzcwjk4S3KiOylyv2lXStmZU3MjmhDiuOzHB5gFwzoTBoHDMLBKuEOSFT32goDzrcAn1bD4C32sFyEHMSyY0aA5NHDxv/8VByXSh9TR3BI55CHymrOIV97Adko7DMe3K5+gTu7Nt84+/Gjv7FinF+k/s1JJEh/95gUBXJ0b0kmIrZAZx/KFK6F7D0UQ0umFkb6uU8t8fZlpa1aYg8GloCaTU48/PZDNFPERl1M9pEREhckv84UtHpNtAD13If7l/L5U/0Dwq19V0TBStSMZGQlrhQd5i6USKUyuiQcfNj7dH8ikfOCUFT/QFb6gPY/T0Fl0T+Vy1kUb1dduV/2DLJTLtou6wlb9axqyeIyVzhIqtXRNFZ+z3373xHPPDKYzoSI4JrL1Q4mXjT33dCdzvgVsF1S27cAzANUipTBVmUQwE8KfAl/Ieevhb8sZtO5n0nqXNTbp2Xo58cUpvMqL/IpBX4GUoGej7mDlO5RxetvlDgDVc1bm4R3WgUPDLlgSYQKnrhssG5GBEBFolnXZ2OQ27sVqzvbGb2x0Fp2oFhH0LdweynqA9Gfu8XG1+0N1xWeohtddcXBCBZaOr2MsA64iNrCzi57zf/u3Az/+vjpyKH3oYOL4kZkjR/yZlB/J1MCAQKlY3qDBhct6ScVNx1uAATsH0IbNqcdd8PhGc0hjEjE7/WYw0L99W3T9us7tF6sNG2BTUNFuUl48Dv8qAQkTAtUlHCaGVj18CSU5fHDd8Ziu7b6eKo1YH7ZuM1Ojd/4h8+nH/QTHb6bTyFsvDoG1R7MJ16jd2meX/ptvozAHhEmOI405tgNdC/pLMWzemxmxQlEMOp3SeRYcKTAZPqUNmm/wdJXcINYEgaxGKsJ9oG2JOmFkFcrjnTVd2f7+NbfcFL3jG0xaZXQi+kJF4Nsswoi8UICEJKBRV4bN0V9rmUOhYgi82PbsOfLg/e6TB9aEwirr8oArI0qTh5h+sD6WZtI8tYLcsWoHTDt58POU1w6tGXZd93mGNmCmw89DV7Jd4YsxjlV8BvRvIOulGZp+5LnZfZ/2hl35Qg5eOVg3MIJ5YWYGA1AwY+aN8gqhKD9u2fAOQFU6FywsuXDk0u/9UPX0QBkeEl15Gw7GPabVmVPTd9/jOnAwVMgbBoJtsazAOxSj7Li5LPlFK96G1fECO4sk9d7A5X/zd8w/a8BJRA8UFegVX6eSnhKP62EsC8XOqGKR1E/izmxe7T0686eXB61chx8ycBKehcjrbqR9p15++crPXY3EBjkvKrpKG5zg/Jd0v2R01DzgNCAmXUorK22v5fOGz2/Y6uzxk+u+RAc2MqvFH0u6efHNLnTnCqQE3XQZpcI6ddZuj8ozli6XTz36SHbXB8GpOEN+ISiUFyrs1WQDJ/Z4IZSVj/VCXV3h9fIepZoFw/69PtpxYteuTXd8R62J0jkODIt9EbdCbmz0/JIOYj3yICoPHit2MBJRnw2Grr02ND4+OD2rpmfU0QP5M2cmxsYgpc/FUzaMCcjox3KFDmlAvRCJhEOhcHdXV7Czp3vjFtU7pIZhUOhV4RCypkvgmTudMz2mSYOI18dcBXgaaHfWPI0DPSsq86vRTCuDXWK4Mr5uSBsQd2bOjP7+3wqHDvVZZocnmMWWAsuvVqOsEMtLf1wD77BBEcs48SSbE5YKDlZpwaACC7aiBsSGgSl7g+J+JgjnXZzDkGULuCoKgmqlvizJdcxXCyLARdYbiPnCwe2Xb7j9dgWDFMJM4AjCotXC2DBQMqpokxFQ8p2E4zA9aiFLygyRAdIZ9crrx554ZCA7Z/jxcD47lw74kLS0NH+xAdVtLB2BK3kC/cV+L4n86sGOzdd9Qa2F7h1VcT1mPGlIdqM2HEAyNcPote2GEwYYx45n53a/vTYMQ13Kj2IBmCmAA5lO2/CyBZqA5ScHRZrfnw+FYpHudTd9GXJ/GgGKIUnSv5SjDC06R5UqCRXxNVk1efrEvb9TH33CvCNwT4B9liSC/cHqCD6LhhmLKEOEuUGCn423EIkOXnKFuvIzCnXnSbcYIdJxmU/WNKznKU+iBWEmeophT8/S3uj42OiR//bfBhEBh+RGiBlj9UzEjVvBgrXOjubeett/5WXI9E0ZgU/yqIw4J6dzcin/lBoCCJzxegIupYEl3kvm40UtSGt6bISpPrAfFHYA2Fcs6ywRlKXcvjTKbtCyxrOMut7RQBbwFDNqYsR65dXY68+uSWKpg4oVYkNeqkITHeKv5Xw0VZVEqsq4Y31s8LraU6uOW74AgJS80vBL5knlMOBnMTWT37nH973N3ELBQYE+BPwrKw+Jl+K1EDH+BH0ledofZRqJ3nWqe626yFbXfQEunev062IxZyZwddfkL7wSyV9hFtWesSzbKEoK7ftCmPB/MQQvetyJgZWVrlSGkfeVgSbqpRdlSbaCd97EDbHutYyS3G7ZSSuDysjq9IEz992b+OTjTd4gXDWLZhb8EWUrKnO39JrqNmu23WVIVviF0xodQ0f1KolNJRTQ0lHQXOMQfI1OebHuvpxwGIQeG8Ek0eOBMyhYmAueeYJAMmqqeEqoo/gAG5BHkvLaeTOds/z+jrMFKznUt+kbt4WQMYkRp9hq8nkZnwo/QHMYXRaRpdiAy2gdcwg3IZZMeIhkcVXT49Yjj8V3vtU3ORkuZhGEixsD3R1FE5Io9VWi04BAiGcclGsHl2rcCkraf0B1CkfkvNuXjfZ5Pv9lQb7tgXM68ik56Tv4Uh3IpIHTkFR/bwUW5bACDG+wzRvw4EMH93549Il/60vNGfArBXokOBBcFjofJOfA96rhnU+S8y60emeLa1ipQ55w3DYmfZ2X/83f07yC+lKRADVzlYFt0YBzCTeXRwtwIWeSy8z4rLSKTabvv6vj0CeGSoOWIdOSMMSRq7QtZwvNfBGqNzClONiFgWl+B/HpsAiYRVk8Fo5PngDUNm5vvHPdpm/8SIWDCrKv8H7yAJkZFZ2WMxoO9eE644Ok55icSAciD0Dyy6kjB2bvvLMrdRaZp+EUmZNQByAFKmgMtCuVPr1r98bvf987HFYIO9dTqQy3bhM/lzDEehcncwfVVAYH43hatKt0AWJ8vhxouXzUbQmqri32K96Wnpx0D/SlRj5W5jTr1opHW+2h31vVncXOl9qG2vN7BVIC+jB/eJx5AgMqSs68v/PEM09uyKWpSUVeBDIKUeFqKYEBtVqP3p5urGorzihWU0zV+6BkDtquU2+8s/Wyz6mt62l1dkaXzzWgAOdZXEFie0lXUH/AFb/BQdcanK6SsepvKg8JmiccFFDkmL8V0VTH9bXh+s2hxNNsAHOGGgmIAx0YwbnJiccesY8cGrCKxUTcjwUUDBKpGfiGJgjSr1+1v4Af4pCzGxOEc+XWkC/2pQ426m6XrF9IOcEVmMoDTfLSeFn3C5fHYiptIr416/WkPBFvpGcz0g7e/Hk12K+ioZw3AMzTwMMkVLKoVzGzavKQ6SNUIVRTSKS9Ga/yFNQrr8bfey9wdjRIOVtsFXK4yF4Eck1v5wf9SE5dyPlD8IZRfUO6mrODJg3lyv7Cuw09BBaCCFeDtmzPnpEH7ulMT4QK8B0MiObSOYg1MeFUr6Yre3mjpyHIhTqTqWTo0svUZZei8GPZwaXR3a3OYSA12SGjhx+SKGCfmPr01//3wMH9nfE5r1P/mi140CUkDz5P88vpA0zDiAcwgqYFFaeV9nvDl1+htm9H+tGMmfIZrNQndwoV1x7zT2oWJRoF8iZIQxMz6aefLBw52JnPwms4iz0HHXYLHhoN4bBFA2Akk5/58ys9P0G2LsQEc/OlsVeaDNWzqvb1TX7Pa4CslcsThPY21fBs8laPD/tKMwwmMjnCQrV/DcfypAQoc7l/05sqTR74CTURSqW606ni2+8cvPPxDXm4i4tOVHNUoXXN0HgvnweGKt7mzokS1srbXN50njhg9QjW075eX3NmAetA8tNP1Ltvqg0/RrShqI71Uf/QwkQBcsW6LJoU/q/tMZqlAH8SbVjC4sKNNbujFrD5CObEhPc8EA9lBbgYwxkKSSRaGP/DnbO79gxbxSgiLVMpVqBhwnyBqEmIQ1kKcTb9JYjKOMKJWmiaQd3oPOV/EYT0NgUzHb9WuFSUQCXrg3UIjaNBdAT1nJjGQAITsGf2YONhIamiL2t4R922tWlN1+WXb/rWD1RXD+qJZ+mrQflYpDWhfQoa1ZjmBfAkoEIWG1RF4uDif/7oRP6G6cIjT069+7Z/9iwSkdF3AQNBMbTBtD1f88U0VdavQtd+Tg32gAw4FKWh1V0laRAByzvgfSHZykCPE6OxB+7rHRs385msnQsye0+JcPQXvdtbTcU8lDQFJOXs6R3+0o2qh2k9AYH0zkn8sshOAjN4CmQE5NCLwp1Thw+N3HV36MARI5uGiKBVgNjXVljmIptufNtiRqB+FsoZ8mXmp3fBJSMcKmYyBSNo9A313vpF1WlYuTQT7QunKiFe+6XxUZGrnTakLVGt4ptQBrxXmBdrei7z9LPj7+3tT1vYWeMS3gWlEac1btNA5fMhj3X23d09N31FdYYsuFuxVKtzkbHngsn6DsjLl3JQkbCU+5d+r9dv5O2iD6zg9JjaKhNe1LolVLVqsV08s9U7Gl1rwG4a3VZ/jqSgFYn6GoY8BCUpzEv7Pt732FNrUnkVj7lCojvlXqy896pvimdWeWgav7QtZ+G95Xd5N4b8I2+8sv76a9Sl20nmtAIsSLSNb6AXgQOZ/lf/1TcTm20Be6FGHNj4D3xKsgl19tTpe/6Q3revN5MLgCXmrACsSJAMHI3FAu1Vr2EL3LrEy2X7fXkJJuqBp5WRlAgKUqeqxPz4HU3TnES+DtOs5fFaPl/CCBQHh7bdcG3g89eo4WEVRmZiKV6A1MtFA5yOwnRLYKRBDCsVIlgReTPSPc2Mxh9+JP3m+52ppMdGyiLG6BMW3FTKnLFEVLX/dtuFTA09of4htXGjbMWQwQEgam7mECp605BkG1P/fBjxIJP9mii1NZF76on0vr0dsenOToNZNBfgKO3vLFqE5cmOdhsY5e1b4Z1QkugWswbPgwf9IpVyD5VX6N2+/ROPP+k9fBhjHSgZvWo6AKpYvUnUElkiKzOXlVLJXBbpR7v6fBjubRsKYY/X549nk+EA4ruaHkL7GvYquwy4CqKps1m1c+fRHS+EZ6aYkURrgzhlYGgAfshf8G4UpwsW7b5kWn3wgdq6FvKhRWscDVC4KvnH4AW/GIJqCqTotrXqqvk97biCkkZFyzIwwZE1QbYzFG5XBns74GrVxvKkBDICxy9PHBKR+q2Ym2Oi/P0HJp94tm9i2ovUfsFgsUhtrVQZEMU1GbmQU91eryEfaQX4cq+5sDOB5hcOBO04QMdMjQd1YC5uzBbyr73mAwfBnrCjl6G3pZWq0YZgGXSh+W3LBYedouF8MYe+rWFzAI5+acqVTc4gsbSamo499Gh278fDcKbM215aGBiXrt8izhEiF+FsVXN6D63Zh3Pr4gBbDPDOq+nlx+STsnaKURwVM5A2GfkbPIhXbcJxSy9ohigNOdpklB1IBdZh1mH2urNZ5kEqukzUiXAHUNExeNm2Tbd8WW3ZojrhQ9pF+QDgyErvc2tDeclnl9ohrKMaBfqvMzfwAr2tRCZ5aCtUxkRR8uk7f2Pu+yiCwpZej6ng2Y8y2EiTAc0EHTD1NFo8ovSd1aNT1vEstZHq+xEAMpXJr0NVrc5O+C1yhrdYLqqedKi/mviqaEPigGUC2QVWZ5iasv/y/PFnn1lvpVBx1zJzOn9XLeQttQht6TuK2I5b5laUu1y3kc4fGC7O8YZzqBa66t/ovsfKFzMx1kQ7eXrizrtdBw9HrXwkgAS+WfRbJ8jgXrx6QjV6jxPKI9ibh06xTupj+WONCCC9gunRQVmzYN/ZQGjjV7+G2sdFH+rD2RAR8N6y2qB+iuszMuJUQhPKFIqkeNXcnPpwz/4770StsrDPQFo2DS2ygMAJgooEPIn5Rt4Cj52MMWcef+6Jzbdeq4JDHhf01AwnhohgMpqSfHj5i20mA4qCF2rE0BlsHfJ0+ICDxCqOvUgqd9Bf+Yd8k34mNqwO6bOToQJM70gyqLJpMxCSHlyQx/KkBHQFCESXyQ/xA1UfkZxTjZw8ce99/kNHI+m03w1lNdL+cN8jGiFohauwfJ5wgdUaemC/H1lz7HZlzPByywnJUAUL7jOvvLz50ovV9VeDplnFR0Soth6N+MQiX1Cm7JbMVDeGEaPbVDIRgMFx/+GT99yLvAiDlicMrbed4z24gx/MeSnzo88sEpL23gaU8MOc6DNFzHYvdxluFnBYQEZYGAxEbkAYAiNHxiXktXDlwx0mtjz+YM4IbbzxJnXDdeqSzdwLdnZBC4oSEWwSuNAglWUm8gb51B24gv0LgofxGDQzEkRWVHt3f3TP3YNnTkZmZ8JMoc00Wki9QP6CFtDTFVBBHQgrOoG9tbe3XyEE1xswiXVwPWEL7Owi0I/bmvRFjGtio5k8k3vzteNPPTuQzSHdJ4qfEMVEQtsn18KoyHvc4Yu3qSuvxDrn6uiudoxY+OHqO+wCyrAykPWjD4898FD48NFwMhlAalR2DmG0lrOvaIKcpb1rxXdTwCIBI97CnoQ+ZesWdfF2pGOBUIgxAKPQHrj43ojG+XoZKvRNvqI1ePsiofuBQycffrg/m0B9Cnj3MKkJriI6iblNxY0X0rAeZSygRTPosgOZWPGNl13f/g48fgoQJlz065L9Kj6LoDeBYN4hEJuUElyGT9dtX126QnFqINIw7fTkbAiFKoA0OKa0K713bffa87u1lKDHlW+SbwyD4SGYFeu7oxxn4FgiPvvHx1wHDvlzGcRq0Q8bIoI8hmxKmOx4tlqcl4bO9WGhgGFHRzGXw45T71dWCAGj6j0W/xZRJM7unJ04c+89wxvXq00bV9hyux/XE0laJWueNxMcLwhecaY5BxpfkQJh70dHf/svvtEzvQjiND2TM7MdiGX2oAY1BxTzktNYs7TzxdEApyzMWSSRumzLsbHT/pnMkD/qybtQq3Flhxs5MXM+d9aD5In+uNc/ePlnw+u3RC6+lOU0oXAOIngbtB5G+Q5BnSiP9D5XIxIbIhpYBQreAoRV5hTOAXB8mPeqaHuRLygxo3a++/Fdvxs2c75cwodaHOgCGSZU+ZiqDNEUZFeN5sp6uMKnoUuwuzrUtovRjjBpzHMSBeCc188WrxG01RyYm84yiTQ7b7x08olHsd1EQlvaXVzMEYENdNXCg6dXgbOX54juC23z8O139151pbpoE4upQiIC7M6M0dzQGd1qaCp9qe4k9HNZpI/84Nhvf9cVmzOstBFEiiwfRERq0JvpuGrxdC5+l5g209tkkcwhGlpzw9VqoBc4h5MhhVqpUAkOiLFHx0vjXjP+QrHUTMgdoOpjp8buf9B/4lSYYUSQwKEI1OsL23AGt9plE6XrXCYUSUdeenHb1kvUdUNYdDC3qJ5eFhokzMIBMpVGPRp3AF5WiLBYVmuLf4hQu1zw+56enu1DcAsOdMG3vE4s/rUrurO1lFBpWiYyECiSoDZGO15WHHLPzMSZZ54wd+9aU6CRiCICB1rGWgaSrFIWlXN9cKojAQGYCvLkoMBYNI8aEpdvndq7txNxq1VKuRUCxiWzaEdtK3tmJPHUU1FU/Ovpd+nEMiAAzCOHDDQRVrORFb558Y9X0T9Zs7MlBShlLi3cSeYztH+zcfX+rhMoTDxyfDCAtCmMYg4HYYBkslhOZekTvpxHAnd4hDgVzgW8Q//hn64A8EdG1cETh9973yfegBwabG7hEiVyKjPk1x2a3ZBKxcypky6g8ZzbPbB5c/e6DX0XX67Wb1Y9g8oXpFkB8hOyU4iOECYCpIvA/9RAE5Wyk9aMnvBpgav8SmJOPjj0vtj2ooAsygJkstbTz46+8crFCJQ3k1SGQKpgyQDEWqJpLzdb+EJVLJ8tNVJu+Tx8EV3CgAqHgbgKTZe+1RNG+Z7qMag5ySGjCrmAghoIkDv01NNrsplO9B105/XCmuTsVc5Zd4FzN/gaw/8SPt+az3yOBX9RzBMKRHr2Vsai3Cl8YacwUNwf6bAuDS6TAHByIU3We28euPfu/ulYD5z8kSYVLBNZ0xBVK9aWC+dAB6Q3fgQuZuCHMDQIKdnOFdyYCBRqKsNeDXPJZa2MEq37EZ6DDfT45PgjDxeOHxsEZSMLA+0KLGGqA0bmtahnDyQCzk3ba5v+yZmpHX/u2/oZX6QXcGGZxf3zDDOLw50DIQUd6BLSiFd2QU2IAnhFB4zFNbOcu9BfCEYGKDyHgrpwz5VItwtr2Of1azFSAkda6F7GuDK/4Twi9SpmR2efeMjz3jsI4PEVENgA1ai2E0N84JSnk4kopYXg9CEokT9aVnW4ZtWKs1wZsfwK/cXtCvQyb11xBoAlPYHolVepz2yfPT3ihxVqxYIj8+3Ag0teRWWJ191VNAvvvMFF4h/+i+pBQrGSFztXDt619EV1MeRTz5Br8IAb9OBxHER8LZ0oah9hmZsu+CzH/BGPSifU838af/SxQHy2JxhwZU0LLiZYHqGTIxcrzUp5rXa/0BBUDbEDgJ7zpfGtgao9P02PQsygH6rg9dtUMKIuukF9VW37+6RC2gm4CM0l4qNjhXg6PT2di6dULgdxwaHjkhUGfcMy4O0IR3q7/F2R3uEh7pYGeki8gW6F/EVIHcO8UVytyRnR2xIzYxwIynBIHQ2ikFdLw1FCtu4nkCBjySykUAzAppsxM2GKknB4Pj3zx4cSu97vRiAxMlOwkiqiW2hlEI0NnuJ+i0dFytFDqNuW6bnQUT86Cz2xwHUgzUA0FxKi6JheUZ2IAUUnIi3hoa6ZMj0QaN5VzFs6JMRjZk0jYFAj/dYrxx9+sGdmxpcvYAGFbyeDQGRZ4lwrfWHbVXbixcyWOnAanKAKSPJ1EjhWPlSzhtH32WvUwFrlQ/F3dhKjI9f1IOELjej6tzyGE+JlCZCdkGdkCUiqySnrpT8ffeaJwUwaKd5NWD8FY0jBjg0NUdiwD1Xrsb7BgY2iZoNjfhsL00aDJuQUekDZ1A6Z0Ki57N5NF6m+DW43VtVKX+mPojHBJ+RduKg/RCPdWi2kZMJt5qyaPGve96D/6N4OlRYRgY/gr4M7/pRD004VBYHZBgrublU4+e57fZe/pW69Q/k8ecPlNSx4ExDMkoC1CGUMX4scMCzOF0tac0mG40E8cFooo7QKb8v1RSh3SH8BARtIue3K5ZKTsKapoUEoZeo7W/tUze9z+3MxUkIVRBgKPWycAOKEkspkXnslteu9zvHxcCHPVEh6csFDsDTA51r2n4/BQjqBJITpnD2DINwNw9Ef/Exl5/KBSCEDMbQNPozVGU5AnfDYtKYn595+u2vjpQrVVLErQtwOBKXFcPHVH/syd57/KpwWETCboYXs1IkzTz3uffnNQUhRKL6epSOCBGWhdBVmPGU+55DN93kcX7JLAQY1nPLc30dMT4cHsrmnYHncnkjEPbwBa3gHlMMF1YNNDKK5oCsmg9eYKLED0GoEuY9QJAoaq+nvuwAAIABJREFUAjhEoRCLLM/MJAhnDCoNSkJAFd+aj0TyJk6Q+TfIlMFrNM4E0W4k4sqbCXCoKK4mY2r//tOPPuM5fmIgkwhaKBYJrgokVyu0S3DOf+N5/wUPvu4166hZoazDxQLcurWdBz0pY6Mafh+cXhAXT3dFF+t379418ujD/bGYgaoQjvkCbpuMjmu7rNMEjdq7gqHaBXiOhjsR+Lv+s1erAEwfHFPtmVX9bHlaOF9k6PlBh4EUfEknVSqe3/HUmddeHUino5ISCoczgyQQrLGI0ATE1T7NDKYkZwwubD1e1eGPXnYZKqRSicCTDlnqtbTyV89KYsFRWIL9MRYJqTNnps88+Edjz+7O1AzwSpxQqQnBuhIbU+kUrwre5F0wbkK+D+TM9aHQied2bNq0XV15eYQJZxEuW8CkYYzQUg5Uy8NzamTUhbKi2AdBbyfqvdU+9G6bXuFzU9SZmZakzb1wj0VJCZq1OZ2QnFmkmpRkeHvrzcknHwtNTSMbhuRg1lOrLNadA5y3RK6rYCFfWCicMv3uTVuG/vHfqbVDKhkO+sIuaBdW4cBSQTf7+PSZx+8bRsb+L9yMdLqIlxMuQZstOcISqXnlYAprdt4sk1mGFOsZf0hpKViCIRPAqHDs8Ik//Dp3aH8fREB4L2O1DYURJI376j05quWDc8W7GyMDiweDrSVZAvvkNdzeCHkzZj4LBkLc8aigwaxqyFjlwKqJU/4SFVoBhrJ2RXE40CoBUjoWdS0LYnAbm5kbAzXvrF47AR5U5qblDnoiSFSF8jbq+eennt8Rmot3wSxbhOqJ8IjR9IJmHLpvlBGHBwmpk62CSib4WrbARynXJCeBXlfYX9CgBddAyS0Bzd/rfzr45BPdqSxKB5VXzVIWUWcdLT/b4l0ruAQVd0XaQT6hRDZf7OlVV10FuRnNsot69ugBc6TASofYTQiNXtRIRJgMB9aFqL+p6fgj9898/JZ/ZpyBxH8lB2wBrPiKIqQIAUBKZpqPmRevPIDoqMNVKB8IbylzOV6BPyYSTGbU1OTMfQ+ZH3wcyqepQwCxIEOSdgGlaRiC1/z1QgRlaQpJXnkDXmllMkGPX8Wm4k8+3NHzK7V5KwxzkCSDvNcRzxbGK29Efh8wh1zmwCduM4uoN8fXpUKVCzez1DvYB40ZWqhVcmomAtmLRU8EnRfq0VpKQKccI410gWxUD6MEqRfVvo9GH7y3e3rCZ1rasQr3yEjPH+zz13lxJy3EXIXpaHTLF75MEoc5LYOUspH6LLbtApMaBVXMjJ86cf/vNiFV7WevghsdAvM4g3TyvBJ6qpSI7Xp5i3bIgUtHGQJqB1yws8JUlMtbLzx/5Plnu8ZHB00rGAihSi9EBFllL9gDUilMiR6UfyRXrzid67ko2ayFrRP3yOkLfibsRI4yT5eLcJ/HQ5LqAFQv+X8114HPVdWdzrNL/gcuBkA6JUVozvEvcP7px4mXX8q98WokNg3TAr1nRI8tMkwb3rhkEJf+AMkI0JY3cULiDuxNuB55ijxU3UNKB1lLIb3KxEjulRePPHhPbxqLAerOy3rMoTjnh/AxJNDFTtfweAOB0ODGzSzVptl5k97VQ8msaMgUmcioeOLUr//VdfxgIDbR4UFuLGcOLlIVB2npfAni4lpToMUgHFF9PZgqkMZZHa2EBGfx45DqXSKlXN099g4TEzq8qfGxP/4xv3t3RyJuwGMId0JpRq+1kr6hHneNzgQCAdvM2eOnp1NJNdjdAd3w8PolK2AwuNAswifAzGVOHvGKUgfohXcNAF5ya43gbHZODzdegTU0PxMXa45oZy/gGd9aSkBP5zHIdC4b8vvcwC8MuQcPjj3yx+Spg6B4H+phwmeR/mEyiRY9hcqoXCUUgVrtUGDG7+n+0peN27/JBQNrhC9YiITppr9qBwzPqO1rT549c/e/DP/yH9RlV7s7URKwKInkKlmZqx3p5oPTZr6ICS0WD82iSZUMt0LkeSYbgNgEV9ujB888dH/hwP612bzfRBI0eHZyL2WlUySCKuCqvy8ef6uIa4BXRBiNNz4X70RN4XQWcUWwcUq5BREIuMxQQyoLNA7yvFrIcS8U3Rrr/Fsie/0AxklErBb2zmaXoHugDgalPkWlWnCb9N2ZnVPvv4vgb2P0VHc2a3jyeCczy+sdlfxd3LH4OxfX3jLuSiYZ7rGYlVzQ6zj8yYv0SMA/E/XJVDCgThyeuf93iQ/f35jKB6wiip6CBJHG/DxxUIasiT8d64W6PP6ezZtVgOXcanQl5TEoid7sFyjPsTFCsYzPp3smH3/MN3KiI5cPGEFWKaZ9wXlCL0sNhIBqNgABt/rn/JFyluRlDF/LR0SFxv7BzohkJFuvvVql0ioKHx1Z2jU8ehT1lGLyL0rD2HbgKZpaka3fG2bezPvvt/buiRaSkagrn4ObB2NGoCFo3ql6vNKRV4qXFDux5FjZ1Ctvq7716rZbQ93dEOtZq1PGplrr2XhiAmbL5EAeOzj24a4NsJUTIC+kFuRfWdVJxf4K3qD7TJyd7IF2MwwzdT1Lajkw5/biglJCmZJJLU5l73ROjY2fuff33pOH1kVChplBUWPxbZTV50I6IP+eTKWDF186+LOfs54y1M6Ym35vcHDQOriaoEKF4VEDPsOOTZ/+zT+v+4f/pK64QnV3+gJhuNDq/ALAU0vVbFvxSNLUVnNU3MIsxnihKBeWLpc6ejKx890TLzwzlIn1peN+7BOg6BO/LQgEZTVvW6Fpc2Mu6BIANUwkU7MK9WDA3uFpyErWVYfmaI5KU/8oXy0JDXXCA+8g2pqzsoW6Qr6lhzmf9Xg9HlimJ86eeeiBuV3vbvLBpyvrgWFSQoLKiwQcqvA+Cjk1YC70rnN/HVNodnK6O5NTIWSpEFanPy1A0YuK+ARZkERzpi+Pralb7X7n2EN3906MDCZiATjA4Kp4m58nJEA3Rau5uGNivngTyXQEgj4gar67ADbQKYAulnZUxi2qTApZI2eff3b65b/0peJdhSwKWyubebuhTWogFrTA23m6pPFvI8oDdSBheoEDCoRtjHINcTrzC8iCoAAmUvA7yMirTw8eufeByNGj4blpw4u1Gbcg/zs8FRC2g/EtC1fNeqjtF9y0YDAQfyST2A4UCv50Yuypp4fCAdfXvuoxEF3IpDyNxYKatgEtlIWZZOaFHQMAlfYU+i/bSMvGMKhmkKz0vCMiiPqE24ZEHoptFQi6lupSsVJAlvb8QlICxqNKTPVChEQV8KQ19vBjsx+9tSXoDmJsTFgUTVhvDYuC4Wquva361lCaJmPesm3Tj3+hBtcrNxPyU8z1u/s2bpgSQJnqAFNWyEL2De2BH05cJguwz3Z0dfR7siO//7/Wf/9H6pZvKiPgAh2eFxwJdxbjgRspHpQnosbG1M7dp57bkT91dNhX8BcyVH6JsFeRbOsnTI3tkA2ex8NRVzJkEM4TZ86otesZfoYSs0K5DqZLJuS64dXdk79lSUCSIeOEviaSQzn6btm+AgWo29T0mHr1leN/ek6NHN/kdXuypoc5HRAr7WZyEXqKMSodmzZKCWSg5xGxi3o1IJw6daY7nlbBTkdKKLkEN+AsVUIY/C9w+Nwed95UCIPf8dzsy4/2jx4JZLJwNEWuFbBsV9Hrcarz6ck9H6RVpkNx3IPs6Wj+6MRH0bP51JX5xaUMRwFZuJDkK6dGTs8+/of4wT2R+FxH0OfGvCt69V61oURa7iFFemmw+ihLFcsXWuejcDG/QIdMqClujEg96YXwXYaqnj4FZuAIKSTdxbQam0Q23rHHng4dPxVFWmJ3xmXnzLxl0wwvzLa+hRJMdSKU+B1ISXc4KUATDDkLhTSDiekTDz+4CXuya69z9fazAPQiBQWohfYeHtmze1MBQU9oFRXiS+9eZdIiZxGLg5lIK0jYqF+1UJbYxYzU6t3TYC7Pe1m1zMi++FRibu7RB9Of7FkDQ4OZobyMrafUv3EEitbkvzpd4ZKg3ytiChxmmQPE654JBLZ/54fq0suL6ZwrAr2o1KJEooQo4v6h9rOZeN6WUHcczurdiCUtEWxQP+xngYA/PzvjCwbWeFyf3nd317GRtd/7sVq/xY2wMbAb7thJ+joapPqtFYufgLXQyxfCuBAlP1bRwA4Jdg9o5j94ZezlN1L7DvTG5oL5TD4VD4cDFgP/AZDWvTdniAsBdG6vO8pPxB8XJsa90Ocj7pnCIKUEdIfsfSkAQbkKmsYTekT0s6CueRxNt1tutupneRz5ILaeWBjwQdDE/o9OP/9ccteudbYVsC0YuhFwn8+B41Gjrvk+HkHQXW1I2FKAP8f3IvogPzqqEgmFDIxAM7pC2kE/Wkwi4hYeByyTPZdWU7HJR3bEdr27Pn0aW0OJmXFZLDGIHQlH9lyuiGXsUYFAnuAQjm2a0Z7OXHLKj1hMrpeNhAXOwiITdGvpFGh5ZefxF//sHf20u5juCPkLqRSyS/AVXOrgqboAWTqCQgmmulXzXAy13vviL8xx2PRLZXNgAH/RW4nn1Yemf+FDNLVgnwEOAzvmvgPH7rtvIJH0mxkDCzkyE0AlganJsFaMLKXhxfWrQlGaHvAUEI30CfbsZCSXOnLf3eusQuD6G1RHJ9FqGJAyAYzMWYJVYgUieeMD8JJzJ3bs6EOplVzWVfSjQR2PWurSqvzLMRWq5hIF7gCCh1PnBT/hF5IS2B/kyYa+wGVAOk7M2S/+Ob7zhZ74RBiRZhYFbfSWFa7I6vS8qmIQ1bvm1RbQSsNK/BeKWbeaDLiHb75J3XIrysBDBU3bj4CJbImB4WEGbUkiHAsJA0itWFrIm2zOAS3ur4xQxOnPh/B9UEbS3GQY6XffOfHJ/k3f/bG64QbVHVFBVIkKYzHzUMwiLeMB/HU4Ex7Wk9Ah8mpg9C0yKctH+WbE1UAyLbeC8+gQfmKop+bU5Lg6fmzy9ZfsM6fMsbFuy0R+PxRpDfo98FVkOfvKIeOo23Ear2b99ctABfBquFb9u2YAbjtg5ac+eX8II44K9ORWuADlPbMcaE7RCJJqHDrfy93AF+m37qlTOdoZFM4LaY+7kErz+laBSLgUGCVEhBOn8n/ZcfKNF7ty2e5CwYfsvBhz7L/JxaAfxe1Cb3RdRIYlUUVWeQSy/SqikJ8XygGtr33w0OwTT3T/5/8etG6mmXnY5cciALSIth4HhS7mhSpKkj58zMS0AW/50dHM66/Hdu3xnx3vm5pye+BkDqu/oJ8KYBzVFNWQ3upPtsBMdWstbtOXQD6wCwBaD9YVJnQvZicP716XvVV1daBveWQCxJRCbWPo56yiaZtRxDGZWY/hVdmU+mDP5NPPzn7w0TC8uNxFL/wusgU3hFe9SkAQ5HO1R3n9K19otoLWn19S32pf3Pq3WARApKizkD47ErSSyj3AIEbSuGwndE8srrwYdxr6YEI6MZF98umzb7/WmU+pYprhBPBFYGI9xhl5JL0k59f8wEOtzdXg1PVIJgUforVUpiH+L0T9SMGVLc6MHfnDb7aOHA989RbV36t6hrEGwO8KDopek64MeailRBfkw7zMu9RMQt37u76DB71J+C3qYBObcWickuVJXIOXOoha463FVbhWwLoBcTM5y5JXdOS4oI+FpASMhAi9hoF8Ojayjh986tE1malOlaFkKdMYAw4n8/PfS6ZQ1QChYGExHYwErrg08AOUcg4UdXIrsnQqMlmfvKPTH43aiTkuJJRpqVKj/qHthywWoNBQ3gwpM1QojD35WPLNV7f+4LvqkktUNE/1jCugDNioZdrUAMAZiP9rAKvnMFWPYShg6kZ0DdrCEoW5Cz9FfJ8YN9/feeKd9wojJ3rzmaiV8yGm1c6DXdFyLoxHC7Ui7YFwVwEbbUcv0SPQIhe6XZg7dFgdOqS2+lUkjP6AES2vD/opoACNAHN6EmukaJ5IIgLGyCJLvjgyJvJg0Q3k53JE++hY7LXXZna9H52bWZdMBuFTLYeMMu8Vc6Q0X3m8RAQtB5mPXAAHCqKs8RZH33mt++JL1DVfMMJdBhS5TCZdUsegq2AgMCAwCAWkCU6cM3Lp1POvnnz7TWNkJDw3F85TcrKR8JeSLA+xe+NozT1bX10Zdkpee+JkB6VP0ZXLxo/sR31ndemQJ9JLGRTuhyhKBP8euxgAb5wZRwS0OnVy6qWXp3ftgg1+rZkNI68wppgDC1Xhul8Yewln+es5EOhhq9iRY70wInjC3nAn5QTQMKeA/IX4i7EFTrJJ+623Pn3iuc7Z2f5sDiNrwfqnkydyDUYRNqFwYnjRTEbvNmWfWdIt6e+cnZA0OvJZBHKfeuYZ//EjG7/9bXWZ5fIbXsQrobqQG85o7iC9fwoQ7lhKbS5j7tiR270zMjMtfo6cidSX6AFZ7XkHCw602AzugHhiYeNNdl3l0n4B0sRCUgK2mUgfyjC5tDr46f5/+/VgOlFMxVwoCCYeRlWHcMhzpTCoQSWVRXB0x1wFpbqNhGG4Nl809NNfqKENLKMjh3Z8hUjDwLaujkBff35qDJXZDAMZcvEY/ZXo00u6r2m+bT/9BbMvO1s8OvbJ/7Kvd/ulQzd+WX3+82rrRaiCoUIdTskPBwDAo2cReGstQLigSVqvZ0LmGkgmM2ONSkxiM8dw/FRCfbIvtuv92OEzgUx+oGCGIQWgSZIqxHqkhsWLSu79i+pombtRD1L1RPk8zmm4FtXcSm6ibINXse+W13L3TmUyT/05+D99DmHQLm9QA6GRuIK3OH2RnYZGO5In2gb1T8LveDhA8GsKKsSCOn6k+NGekbfe9ExMBeKJqBc1o6rxo5/6q/+LPaW3kFvn9k4/+sfeqXGFMKJAv7IjRBPlAukgGDH2dVgrkVQnmyju+OOZPe/lZ+aC6VQwl+l2G9RjGwgFJUVW7yZL2CnhrZa3rCKNsenKyCpfV5cnl1mTN0Z+fe/6v+9Rl1+pwtgTmyIAQZmA7ampPv2o+PYbJ/Z9HHG5+pNxREwaHg98ZbAoIIHKUse+gaqhit2uYs9rSBI4l5dhAwW3s8hITD32kvr5D1F4QHmkdjMZL4bPR5f9MyPqo49PvfiCeWZkgxEMeSzs8sU8IdymlDdJrADlHjSdnfMwVsv/aqCkjb/P53encpn3Pxg5cbzvsiuCN3+Zw4RYvJ5hbpnyGZVLqMSsOnz45ONPWSdPrkVoulYEAjrdfoXA9MtXhb/xXVhl5I0esF8UxuTqo48lkcm5o4KFpAQQAoCB4vTsqWN33dWVmO1ECm9X0cpm3DY2wWVAzx3EtQRS9RsDgPUOHovp3t4Nd3xDXXIlt+mO/O7cB7svtV2QMbujOb/Pk0xCByU0DMoFTTk5WVu8ZSWXIMfEx88ORjuR+zdx6NDps+Oud9/suHR79LNXqU2Xqs5+sewi6p9eE/xQTg/Ns92BvMS0RfmN800KFeMLBXnMWNsL0XlqTJ08qcZPx/Z9lDh+tDAxGrVc/aYbwr4k7yAt0v6LmGcohOgntSTq1AgoU/ZK8LHSZwE3txLCdRCGG3Ub4weOBne9r75yC7HkFCjkW1ZOoJzdNfByqguXBAjAB/6CH42dLbzzzsl3XjVHTvRZli+d97sMv98HrfRKe3vhPQ+lKaw7djJhZPKnnnjQOrSn+/Kruy67Vg0Ok3MD6RwhpcamrGMjJ/ceiB35pD9xtsNKQU3fEQihHrbPb2RTSa+BOj7a2t2kk7UiQpPb2nd6HsEwoYjlmkx3WIHjv/3N5i/dpC7ezOwOiKw+fTb26eHciVOFk4cilgldPPodQFRnGjJEQbESdO12qpaIaqmqfX1YcUvkqNQwQs1K15lIwTX5zntWfK736iuMDRvIS8A64Nh1/OTkkeOx0yPhdC48OxXKmZY14+3ogKEBWx0tIsHLBHxmnnPPisHTDXBfblv5VCrqcXcbLiuZSO7ZNfXx3nxX/8AlV0aHL8rk8rnUrCs1M3t4fyA1N5TJmbm039DO7PVA6Hm6OvzN0VHpV2AlQmalJGRN/F45g6rvSbvOMJecg2v5pxZWXMXeaGbq9P/5f+Q//mDAnQvY8PVgpyBcVm0lq56r9kVoBma75zwW+UR6LhSKWDl3sruv/5c/VzfdrPrWFVhUQmotSC/RWSdOJpNUzz+799f/vF4VOg0wcASkIQsYa67AerWkhEuLCrwRPIBramyTKiiYcA6hBkHeY6e8gULvcGT9lqFt29SGYbXlIhaAAQ+C0gzWNLJaSgCcsHAPBu4hSdgwaKEBrIQws8XVxCwYFlKXzB3al5uZTM8hG2bBZ+b8toV6uwgCFlMx9wSwDzNjPKY+beKACC6LdqMsCHVj6oxa9SxqZmmqpaNmhLDC80QMxSaUgWFQQNEdOo0ceZdu3/Crf1DX3sDGA37Zy4guWwO+RND4CmmhWqWDkZDtAHTOaQXLK/bKmO0HjqZffd08OeKJz5qpOXhTIhcpsz0WfcC9hz7UELClrUUcdCyvHE2Arp5r7Z5Ti4CRt5AwXbbpzYOMsx6fCbncjppub2AwilmJ6DRk0CmkMrZZMOGzaRfgvAAtNMgP40UPDI0QMRthTZI9dHXHSz/reocymXUQ1jxYc70JDuta0SeqR4r7PyqJcXizhh9u0Vk4zgntwyrus2xYu3x2DrOMZ+B3qYMc9eiQn5RIqHrHIvlInMNBAn/pfW0jXUIF/mY9qYW58oLlfNObB4HHjZgCUcl7UfIq5XOjq5Y3DXr2oeqT5YaaAZcBMzAAVGDzwZUb81LidKDobUn2ld5UO3Q2wIBgseRjKNhj+gRijKwVUxxEIl5lqOiHCkOQ0UB9KCKKTAo47ymaSFiDWUnHIPBSsUbOcyGdx99aY6zZCLR+Cu/DgyR1251LGUY81L3uZ79Ut3+nAEVygybbSc8LQdbqev1Mm383XPDM7NTDD7qPHBvImwFE+9LCxK1sq1bPxzVEFOS8vpjH33fNDeoLN6n+AZ1Fp1p6razoIJH+PldnRzGZtM0MeRRJBLvzhRCykq7hFTLnMGcwwTDnfLL7xzLdUTATZ0cy42OHPngXPKgYiXi7O6P9g8GuLncw6IaFDbtRr4EUtqZZyOVyViFj51O5RDw1PWfGUuZsAqwqYLvgYRQ10yEr1wdHAzJiCBOcNtI7DxyooB8FZyZ/Q8SK+PITGE7olXTsfD7L9LH6/VCvBP3rQ+HxkbOHfv2b7f+QV9fA9JD0wiE9AB/S5STEBdb0TCWB4C3YFgJpSH6EjS/yPcMMl5pBZazce2+N7tyZOXhovdcIzSUNhIuTYWGWQPjEaqDbaD3nzycOl/1uSj+UeMmuQXtBeBdggYDs5HLnMlNAgh+JQzT1IUoQxYxQvBOPyGJJkgThOWIT0SXHhYIlbqMBG8DRsosbY4nBLATyhQDUBFz6CC4yesm/TGDsnOF0K/msOOqUC45balwv+FfLbcABhQDc7bKx5ehC/VJX3vaksMHxFxCRAlyAbUpICnHFJCy8V+7nNz3EVZLQgu9dzg3yLuFmMlKoFkl/M/wVls6r+HD9cmjsAmB6zha9JrPLcjq/us8stCjCqv3Sn5NvvDqUywW8Hiw4qPnBDErYfMJl2Znhqwtiw9ZpIRCxXV8FJIHOnjOzs/lLLl3305+q3rUstKXF/YYebJAL1q4N9Pa78mYhkca9PDTPWjXqAZCw0AqVyuQRyRK1d1FsDbQNF33w2U6PC5rpQiwBqcEeOZSBdT0YNq1CHFUZEUWEmGPDCPoNSAwoGGRYhQ6ouAt2KBiU4slQMWBwTPjz8mDeFhQSFP8GvIk1zb2owSGooxpBLBQCR0MUaRCb/hVJw2GU1TdBxi8rGHQ3V49FcmnRMIjrpyqMTXq7ugd9AWNiYvSf/7nnM5cHvv41tXWzQoEeBPTrVIxNe9T4AvrjdAAiAuJ+8RenoILe95E6fjC27+OZY0c77Hx3LtGHrVUuX0QyCsjRjImjjyNWRuVJYywkTHDZh0Mw8jzB0ZszPXrOXFh228t/UEMFBQk0yeJSgGQA4A2Ux+yAJLtF2kKK4ECJZQExOvaGAQ/60EZrEqS21DYgFZGr9Zrj9NphO45UsXzoWz9JmLSggAUSORwQl2LTg48+P1q2dp531CEYBUEHwqoxu+ATLfm2xZOfA9RkW6V7x66cP17aDA/aDx9OF+iB24JjDRGCEDB454JFGUib5CI/gVSAiUV9LfvP+tpQORgUmZjAlQ+LR0Kr4SJ3qqJw53sDYqgHVYsvUKiSbaMSQzEABQaHwW1bSGnqLbisAJM80gtVswppg9Bw4Kqhciit/h2rduavJei5jnOViRVf4G30yacjTz8ZnZvkzPT7ZLg1QS9qCFcDvSVqQvZ+zTVgM7NRKCYezxf6N1/6y1+p9RuVDyVGXfQX0wthxX+iBBHO9A0WO7vsqQnZ4It2hOS1qv2q1byBbPFurfWCpg5zBVmgyGOQzJL/4yi6ZmexpMPJi0UZET+TyRdTVNjCJcqDnwjlxooFA4rH7fPBxYLw04jEQGSgitjikDJHDaYKTYNMN0vt/EoHh2zAkRIqkgFPWtA/Egyp8aKPVcSq7gj6iQ2E14/9fQ6FJ3rw7uRccvfOkSOfDFx/XectX1MoDumLIlUGZRgNDoBvyLo0ZgSHWOeRl41UhK5ARj49jgpyYwePpkZOeMaPhzIJXyrdl8tEkbU8k0R+On8wAL06snBQfqXKTRinRL7JWxeLhzLD0tIAB5GgEp8l8xDalyBKHA17oRF/Dv7K20W3jN5xKSnCHo+jQEUvIkHxFWOEa/SJAVZL0NLmRlRLH7SGkt9boYiBrfLAyqmXL21+4BVc4DUllADGGVZP18ykevpwrmGEHNBkweMU5OxAJ5t0SA+xM4OIAUcGag7U+bjidAqvJj4YJUhhCBp76a9kaIUsxAgWqojQ8fLsKmUmEBrlwySS+i4I1y1xqtajX/+TGRXdAAAgAElEQVSwPlPmAHwFbVha4tQGLAgOBej+cA+FFTE9s0/na9Kgp1VIcHQJkv39Qj7mSQlENz8i+c4l1JnTn/7rb/tnpjp8UqoI8hnTDnAF4LTXyK7vnMO66i+04QwoDptv0IIBICE+arbhszL+wGmr/5pf/Gf1uRuV35On/z4S82tyaDRNccnj33b9jScO74PwA29G0j0oGeNVL1K0BNwZ6Zb3lC5SdiVFlFRMIA8gFrtNeCogFx+uYPNPOmKqHdhdDb8kX6oc2LRhDMpRGwDWY/gkiRAPTFWEPsqBu5jXXIcCa7qEfAAXiNLCjQmD0+Rj80i0Ea7QnIxphafPe4q6Cl5y+zO5LCLeUcPVcPtp1JRpqSsga6ja/Vc4kSwzhJsMCp2RJQobeJcrghQusXz6lZdHnn+2Y2BoA0JPB9colL6NRBAqycIByPRC1lLiGQ79g8gs1oNIphQqypw5CW/Q9JmxxNRMbGwSu0no2COWjdgqbJhg4ARzLJoFw4OkIV7UHvC6kGSR6eogL+lUfS5XiboW7j/7ghFxFg8ND05hbypTE+fJlOGrlcmHglFNsZQAcUkXgVj4Fe28A6AyGXaFu3MAOPkwGkLP2IGX30d1gxAbvTqEiwjHLJGcXJrHVRxOom+AaRw2C056VvYSbNQd1dTrTIS6exZ1gg3pFwj4IDOWLpQzWripnjX6e+URcsgSXyURSAvyt3TIbIKMJ9wAjyOAHzewggA5BO+tSnjiPKTzgVa3cg6+AxSWWhUMoGis/kKbZfnQIygSFbMhgOty9NkRoktGUONtvogwHx9AkgtVZ+mw7cRNOKspnbfKLVReWvqGmVU+yYHCzdR3awQCs3AJkutoTdrBISfk7SLBz+d+coczVo3GTV9f+d/yEokvybhwMHxqcFKGRL9Pw7Pydy+nhfm6BNIsbPPg7D6Vz5347W/752IRs6AVR9rN0Rn+5byrbc9oGMgwsesuWrN5a1QVL/3Bj9Q11yOfvF2EQgyHpox61AsYmMj+gGvb9pSt1qC2QpYxzZRBG/GetsEtDdW4RgI+dIczqwQp/20mgS0FlDoxjljRM7bcTKNJ0uIdgldBERhFaQJjlaRaOW7awa7uXHrWDx2HeBNhcnIPscooLbdf7kuJMyN7lhWBw7mZ6w8Y2emxib8chcNH+sWuQijkDfrdfjiHemBULa/K6Bcd8zEc+UIxb5rprCeb6cgkYQmC0IY8qp0o+WwJK+fOqZa0tKrTQZ8EiJec1WrvbI5iyYYrw0RSLKNO8pE4OHepeDKO4rnw65b0725JM9dsy9r8VW26Uk/PzeTsej63SPLTsxKdLHnLtwn0ls3oMStLANVk3AzsqmGuHvH6fvPFevpoEDh+GEioBp0ZuniCadmHdlyUjst239n0N1jNqvmVXiz45tLCvCAUxCd6TIJnxyWs3ZGuFny29gZOH2JR2tEH8a/HoDwS5x+/AiflZhzzo/Bqe3QB/K6WEqhKgn6GS1YslnjsYfPkQX8+7dX6wwsAVoCAlc8v1SI04VrIaWb4876+nu2fDX3li6oHxmAkcAHHJFclm24GNsgE2T02bQ6E+5JjZ4IGPExp2Ce5Nn2mWVuLP9+UONtSm7gajqVoODRU5RnUtDtYD2TTChzxZnxlPjM4LlluE4G/Q92+LRtzO99CgCyzOcFxSDesdxVNW135hSqsyhJbLZY43AHCZMGC82cArs9Tk3BvQmiICxkqMexS6bwiYWB5xnYVaXSQrZrJlQsRpM9D4LeWDGj4LL+OX5otGHqlrIZkSf0UHiLKSRAyCRK8mkiHeihftHrXblTZrEJCfGodQLe0JVXZd5b0qpXc3JSeGza6PCIvS0sgNkcTJoLdX8tRJ6xzNEvAU+LEhJJ9MAIHqMuEpoQnhZIvjKME7fJBqqaT2n5J3hZIuqhmAh8e0bqJ1AtUVAtSFwYq2gzFUrh0m1+9pOYcKUHU9/RJgT82/OLUB++ffvP1zkwCWVDcUMxeSEdpu8+KDIivyoXChcEtG/7xn9S6gbwXMgLicpzSGVz1ZS/bSEMglZNd7qGtlyVn5opFpCBkXjyx9IpR/f8/mmKAimIbebuhzGE2PfiFBBJGoOOyK9WlW9SHH6gs0go5nBD/isr2PByaG5HRQLZBfRlkh3AFoF3oBg9C/Kfkz8YlunpULTmgFhYqhHqXLogwmxQRAsMaN4hKxVqMB5e7yVksCko7Nt4PDDN6Elpc2vuxfGS83gkre/GNN6oPP1ZTE24rJ0nGy5vtWha82Jde4PfpASrJXPDXccO/5K/94ECjD9pA5rU93hTKuygVLhb8TB3x/4kD0h5IFjGlGWRVL6L/SMCJBQiGJfhIanFhtZSR3EMuW4pv7+Bg/mpFfXubbV9rlQVRBAXwf7pcHXrxxUhyrt9wRcBcxX5zoRxU5Ao8Lrdpo5JpJOPv2fDTn6tNF6mgD9lrDF/AK8YqkRDkI9tGfrhglT6sxQeB1RO57qaEL2rKIzCor0aO5gsFdQvAAUpYhHTEuQvuVsk95QpEJyCXbb3Y+AX9Rl3RTtnoiXPFvJ33Aq9v42XQBz9SZBaw6HgP1uwA8BalG9OF6GkfUgIXXQGEoyI/WPlDWxsi/r0B2+eHWzczkyNNFVZi+JFCsKANxflgD4QP93xt/1Dzyg2mZbBimeUxUOPSKnpjBde0L3jxr36lbv1aHvI8s20ow2ROAl36oY04PG9NVSNTgOAIyoejGfCYXgX/0Hw2RwGq5tMAaE3Vi6PtBo+v2ilx9qzybCwmbNdssKPnx38DR+wWioQLrydLRVFtD1LZpOnzzoYi3d/4RmjzxiwKfDAbGvg1XIAdEUF/qX1yqW8WBlfdSEuN1MrftjB8koTCpdJJRAgvfDfvOD/0jLc6h06awYTSlrcvGAhBuQmZvXJ9cb04B3dJKA6EbYifs5GedT/8mcIuFqE3pV1rST4QSb3ZQWnIq7o61eZtVu8gksCUtHwXkkjUDPjzd57zCvzNMckDV+54wcoODHbd8S2FulbR7mIoTDM5yQYpdJg2h4g954cWERjILUSATQNM2mLVJvD6owuBUnTAB0Yq3s3vOKPdKqjk5zzmzETH8TSscbgLQXH4rCahsG2EsCLzAFz2KNbYrqzHHwuH+79wvbrjdlwbmZqh4KsLTorccl7wfA4GlmiX4II86ih1+I21vdBM+wPBC2UjuGwUaMIjdaJKrZHwuAehItqwPt+I5/6/V/fOqrxJZLgeGlQ33+y67qpcyIeIb4jpf/XjuyBhoM4gVAjwpGaF0dVkJwtCstANjhQgVk+m+YHTPUKduzr7il436tUgQXdLgWuh5ldwHWgTzPGPfNegYr5AVwxrgZXpiPZ+/f9p781/5DqudMHIu+eeWRtrYRWruBYXURRF0aL2XdZqWbJlyVosWrZsd7fxugfzMMAAg+l/YDCD+W3wfmg8DDAYoBuYnp7X/fr1a7yt37SnbdmyW5ZsyZYsURS3YrG23Nf5vhP3ZmVVZRZrJbPkDF5mZd4l7okTJ06cOHGWp9XDT6h+xDum1Alb/2WKyCVCDiaMxsGxKRcnxhNHjpSxUc2pgPZhqwjym2jNF+RRzr5mCCwbBcMYP4sRb+jBu9TpEyocVckeIxEHN/c1DjIx3/jRrjsd+02AU1Ov7lloxcS0Svsl0v+CLhjYFcWB6Tb4xDYDbsPNIhjwZvpey1pWAmVifc/I/VvNuAN6J2pp/0EwMCYpYxlOInUNmx6njiW/9ixVfqVaOJ5QcPsEuVNeoRyz4ylMZk2MyoBgGsj3xbKMrcJ3ncilXcOR5eYKrcNOwoCobbUFDflQzLNGBmPPPaHiEWiPGg0hCa5ne76hd7lZTHu1LmhIRU03oXVO2MuG6pPPPa327VZfOjHrGfRiIwf5YpZmfkjLp2QSLm9M6NDBxe8MzpEyxYojLFImxiq2UeCY3XJuuCZk0L9cH7xdpAX/DxliwTCveXHv2InE08+qdIpzP0APtoxxh8xiAeNst5bFDJEpgiEPnzxJLR/bDqL9fdkR1Chd7yf2b/QjoHUommYtozLc7z3xONe1TliF4yHEgEKcKN0HuJfG+TdnwJNQxCRlmZiCn/p80HYtggq90UAQeyXCmeU2HJrzNiNqWYXrxeHS+yGFQFlQhOkE3h/gFsD4GkgoY6Cb+axSto8cGn/tNbV7XNnh0szsQjZTL2R9jbsWZ/ye2Rw4N+vp5lkh+A5VCs0zER5YWTnTyyDXwwMPXUYMfvivarOSmwXtlr4XYa0/L9cHn39BJdPQP3OOlNIQQwNxYkvfeoMrY2QFOUQt56/7YJEQsi6U67tuP6NO3sn0USOj5XS6hgQZlewNBvDGvk5LwCqPMZ9MQJfQKkD+jYVo1bf5IgwIk5YzoEfAD9D3jc0Z1TTcIbGOQrC5YKK9MY2RrV9wSSz1AJdv/YaTIDJ6S5vxghPOHzg89Nqbqm+EUVvAZwn34oSkVd5seENEWMFDMX+FXIvs5uCEFY/VS7PY/jW8sEIy9FauKR1uYLJqL2/ZRVFr08oDCVOuIuPd2K6Db35TJeMK5giQr6rhyOShqXf+CdGdJJJFkBVwy96/1ooAJxzcdSFnCp7j3I/vQhX8oqXjZjmSdIK7sKpdLtzgCuMtB4QkqNhsAZ3XzBxVGpUI00yCh1JSQQRgeHC6pUwBRJ+LeKFbDo388E9UrAfbOMz4WS65nl3NQalBGxE81YpgNwvbjXteVE9AbIBSikvATJkhxJFX0SoWjVxfz8TLLyqnX7k9BXvOLBXcOpJJBqUhYS0Cvbz7blxz1vIm9DIM9BjfJDSHlJOn71V33K0SiPrlNJQHK+mrmYzxkmaFgZYwO7nNlMExdmThaSJyPOE3ZpRtHLst/rU3VCiBsH1w2+m/5bZrn/yWmSJA21rdi1ubBqMvo8swXLvKpKMwwyaEEMvFqKHHISU40cUJqy3x3MwWBO8G3LKOIgNFB4wOZiJWFcF/bpLmB9lWtQeRP2Z8LsAYi59nC3OJnr2vva6QlMyGpz7wKqCTBAMcoxX6aId0GC9AfwAZCfq9aGT3qRPXQJWwY88h7vfN7I928HbMeaC6BHP7qudV+vr3PP6ImtijIlEyKSATttnpvgUGu6JNPtJGNObUGww/uhC6ekasWsFrcUkfPkigmcYpfGmmoqVA67t0tax5K5pERthkHUyjB20UadSKmRx0M/WBXeGjh0ffeEX1Y6HpKs9Wrht2bKRSZKBJQLGigVsB102oQ/eU5vt6JsAZfkGICi8aOXJUHT2mjEit7tSQiHk9evib0Ji1vBK7V/X6FOKmJvujDz6qoimyMY8OZdzearAyqUoT6Vpq7dh7KKyTVtFILh7qITOLEEjp3rEHHlIj4yqSLIZcFU32HT6Wg4Qe9dYuAXRsk1cCRhlJZGJ8Qmnk9vUhf2jTWnblEx1xponXNdgN1uT96fShw2XolMtiGX5jC7xm5XBx+BIo8cqZCKY9meG+8Ze+qvYMY1EF0JbPQyvlg4DvaylIf7JBuJOOktCihEIP3TebTMwUKkgZ3y2rYQCLALNcs2swChm+8z73gcdUaheiRMJLjwUi/8FD1UQ63zFsTU/tukUr9w5Wa+mNuIZ9DcOsREJQJITsug0DvVrBqhaRbxBpBWt2JZ66NLwrffY1NTKCVabyMHsgbQdSj5QrlZIq690xbRLP0bFDC0QBGGFIBsLF0WlWkV/S8BCIw4nU0+m+5x5TIz2Q6bElCp0fg1/5Ny8+spOaD+YD7ajlzif79z71VXXsVoWE72gb1mUSi6xZDKKIIMz5ultdy1lcx2BEuhjhLmqIBmHWzHLIxhbSrOXsPnkqdPqkioXRnTZsw6DcnTwY6RuaL4AgbvS8c+OwRYWhVQ3ZyaFh5YZVFeIidedNx42DZS1vWtETOIFFYcgaO3kqV7FKxZuwVBGSQqox5NuVePiczRGi1shZ1jXPOwAb77u/pNLxXCnvOy6SnlY0ZCngrZmoFhSwzTky6B7Yn3ciXK59galzLRSx6j3iB1Bd8Oz5/n736a+ogbF8RaIRgpNhzoqGEQI5Or63GJJ4S9WbQDyrgt95F+kajlBgpDptE4ptDaS7zZth+IYVR/fsfesttWdcxfqyhWKlUqS9AjYxZYNBOMsXogT7BXouaTIfNuF8dDlkDj70gBoeVB7c6bkiRZv1mmEnN94oV+v5aDKB/OZPPuOHcrNsbEEwvzj6VgsKtLWC2CCfO3owsYvBIGj0g95DDKV5w8707go99ojq6amVclhWMKI36Nq2B48eL0eTElG0fcHAkYCkO6uQT0LUx4cJ/2Uvkh5CFH4k5ZMoBJ1bVvQETsDBynGskXEnPVCzvDq8BJE6QI4b0w7ZmgUXBCvwXWbBFrOh0Lm6it9+u3Hf/SoWL4NFuo545XNEMXQ6OyDYdwj0B9cBWD+C7WDX2/vo41eVmRFx5DpP/R5frphmxotMxeP7vvW6GhxUoYhjR6vYKRcXAErDhjUMxheJ5sSjvUmbvpOwBnq7btmK9gBlNCzQgil2MRD8IG5GTSOx4CRLx4/3fP8tdWASaljwkagVEeN3LEIgfsG/mrEhyXORvwHHDkW0IFHGb1PwCZwyzVyxjHBSU5Zh33mrevIRIgH71m7EiUfyCDq5xig04CGNYys6bLN1GEYul4OsA13RJSguR/cMnT2rEkgpElHMxmKq/sFIKqU9ePP5HF6HPucMiyNQJ+xEcYFdjAwLFsVcyHmw/8rYkUNff0HtRQ42G1p3Tp+GKqKdyaRzy62XoLE0Hb1JoTeetAQpbZdR4xf9vfnMal3UqORm4RBjFe0PIbdoCDm3w8lJ+PB7cBdYEtx9tRbcnGsNdIscJ8bSlHTcmOob9vp3Ocn0Fu3Arr95XC9B8UajuHK1lkPY/clbBl5+XQ2PIR5OOeRAg6W1jlheiVixjsL7tSSBIUgPeUsdmuw7eLASiTGmYLe0wgAmzrJlf2Y6+1/8pjo4SV1ZkG0F62BR6KBPbDVxsGza4WjccbwiMjR2S3sMyNoCoi1SfyImAjhIKFc1z2On7+CxiVe+rfbsh4VHSc9zqARZvoBlBJmORnRcSJzTi872b9gRVzgNwtcDSNCWm9lMNtLXl49FamPDfS88RUUCllz5EpSKjGwlmWZ2RMOWAZnLZJDJFW3NINzL8NCurz6v+rASMxHlnAZSnPwcLx6HCpWp2uCeTTPuwE13JzZ4EWYE9ED/IhBYDXaJF4zq6EP3h+65u+p4WFeQcQgrd6wII9/CNX1ggPGqm0ugcNrRaIB8ZLquYSMmhGm5cTUwBGs49ntnmx8HPaFnRlqlM6q2gfBz6ZHhI8dnsWSRtbU4HVDDKVLY1qs6fWVjQAIMsGiUlFlQqgj6qdQMd2j35Gtn1Z59CI1XC3ncxpKJHhOTSDZ6jC0lrFUJyhcsRFaowwmnZ2j4zjvnTPHiaxR/r3SF9cOqNX+BL1bCsZGHH1f3PqwicOBBmEJiUWMSdEG1GbSme/f2j+7BtiLWugig9gXGxrqa5lN4Y8r3H8Yaulg1ixWzVDarc0bo05Dy7rln6LvfU3tvqRSQjDXqmC6dARkYFNwEWTOUSvWY8LCGj7XWRDCn+Doof11g35ibtUcDLDdFIw3FQeJCdv5q3N0Nc4SDEwiOksWOdTzOTXv8gCYFXGoHlkgs5rouROecY088/YQ6cStUHeBAiKNZ5j4DrBK8ZKoXhtWVetVCSHEMKI6rRV3CTmi0gLuczkG14OKQEtSCa5SOjXtfeQRkHAqntHyEdqGhzHuJkErDw7tO+97pQXv97qZUvcNLDREBDataN/qHdqs+SAkYxRIIsINLE3MRRQIKT6FPsU109JZpy0EkGbq+wbctkN85sW6nKA8wGCzZLHFtgbg92MFK9PZ95Wuw8Zkrlkow42LeGPBL2NBr1GoRYX1oltGnmw9j04haKKi776uOjpUsZNsDLjC96X0vGhP9PhYZ55zbarS1KVrutXDUPnwk9dQLKt6nXDG5FysrMSEVecoMleAXYxjRw5P5aDhfr3lehPzi97747D4I3kCbXD+OGdzDsMyqQBbPWnYmnUp96Uu73/wOrb4TTpmB7UM1GCpKeCg8LcsOQ8VjyCyBDWzNNBEDiuYi/vDdobg2TWhKuKxkvvNcyLgSMnruvkvdcRqr63lmOYdCHjuDYSMac2wvAiaws4qMJsg2C7V6JppIn7jd/vKTKh5FaCwqCxqqkZBlJ5NVy4UchKzxEr1GL4bks+MLiBl2SqBM4ZloMuQe7ShHN3UY3GSt6LSbOPTmd9VAPxKtInUZ+YN4PIKBlMolaM4qudzo3fdlbYvhyUVFyXYzsUrHt38NAM7NzBThyhwJh/cfQDwl6k46XsRfIiXoNrIvdISik6fDBw8j9zkYGrRfCBiAzHrIk8M1I6bOLRIU/Ik+wC9+Qi6pmLVivYCZer4AW7nUwOtvqNNnaPIRicESFkBTRYdxw9S5UOFRjBGiDI5GSwLC0rTW+GzqTakMFUTjKtG/75tvzFtuAYmfaohUTU4E5Qq0f1AFL4NzDfSwk2/h1A4RQQYwYwd4xWR/5tjx6GtvqF2DIhWg+3lP0BciC3DHIYTk3erW4xdjUQRepRAh0ufKoxOwIykeNlg2DD+win0EbJmBaTK4Yr1u2m6mZEyH3MFHvzz0B3+khkZpqacYzZJIhawADwh67mKqYOY8IBnxWOAhCHZMQa1Wg/W4pCxZR9kw/NvxoInZseqadbdohGZUCeaxA3fcmfz6WRXfXat70ZDrMcYkAsNakcFho4547BJSfScULRFyKNWR0snMRmK5/Ucir7yhYklZ5nBkyFwh4QTg4zm2/8p8FlOriAiyGoLSCNPJijmywYE7hzWhCfDTKSGpGoVWK1RzcAhntsBhF/Le50bv5Jv/UvVN5COpEtQnIaTZ8xdroGXPhmhkWbE08vIkD+3LRpwc8s1KGj5N3RgF/sqbLN9sJnfNjoLPzqWMVCKGXdjPITXdcxeDFHE+Q+s6F2BARjbTXECswu65ckEbho/fVtC7/zjFhIlcZpN6ZXGzJUVDoGvTdK/NVfCWvG0jNEL/I4+pO+9S6SQoTS/w8Ugz3ABkvbDg8eXyA+KZxOJq/2R8/6FSLE7zKMgGWEgjL1RTcqMtafJOqgTBDwxrKmReS/aMMZ/ThEIIPF/+9VEIZPpaFzQMXYgd1onR1C3Hco4b8rA9tJOau02wkrw1Hji3+YEdtfKuYnizIbe0e3Tf089GvvKc7OMsH5eL0wDrqSPCR3xoV9FyAktbLYNtE+w3pFox5keBc2DODld2jw5/+zsq0VfyEhXsViMbCPkOVwVuKlWhDdgOipEqvSexSj/PlXI9A6Nn31Qje+DaikmSEjg1o3rtI0TSt0sl0ojHLRt4ZHVoNybdlvx2q5ZqW9nHUJnohQHj4JHaceDMPAL+9w7t+/LT1A9Fe+ohV2yZoLX2qVtTvYmGY9lmOrvO3LUQjkBqdMK+3gjSREskbCXw219XyPaytWrqyKQaGaDEz2aL0X0Hl8XZVvcVoYUAq+fhuvKOHzPT/fPQIKAhEpEO9IpA/Yxjv+lWoUJ9NNcE6dopKw97N7Z5oVIN3/OQ+urXVU9cuZBSqL1a8loyTR/YZVeuC10gaiyKHBytXrjvwcfne3oyVqFUmWPAR5Im9cPLOfd1X7Cjb4B0hOhJNB01cqYzNzo88d1vq/2Hya7a6sdE/8B/hurrG7n7dDkSy1LaWqSxHY2SDQOv5/BAd0qvBLtacmoFGya5qrZQ96YiA8Ovv26+9IJK9KhoGi+CPU7b8YUJMhZPj+8ve7E6NZayuuLu9s4tcKZFip8F+AbWDc/oHxt59qtq9yj2GgqBLwNXnGiiYyf6+yqmUexsz7ElPcFIOmBnFSy3aqP7937z22pir2LUIOziQjW0tOMwuEaGnV6EmPRIAfgp2rhVyKGTep0px2zkMEVCeXBO5OQzC3UzF1JZRPAtpeORE0fNbzypwkjmhAhKIYjDDLAoZTl7hQbl1L3W6ERB5RSlKeCCfJg3itZyxxYkgwFjtfecPqVSCSYpNLTJbkcb2izHOH/riRjfSiXVm4rvO7DgREtQeNKgnd67ItMtf3Az3bZSVtCeQukTp/q++Tqjkjk6jAEET1hBLxUUNvPilc9Cu3vipHngwFzUmjOKAIPygZ7+Vt78hT4DsR1bP/Oe83ncO/i9N9WRwwpxfxARoc2sTw2QIATTYbVaxKZD4tBkIcK0Dgwi3C3ADAYNwgprxUuoBmn7mmcZk0cP/dF/A6pDDKECpDLLKEBKbodlCG4Q2CNhe3g05yL9ZpBZq02ndDLWMUsugmcY+UopY5lXvPDQvQ+pO+9RXnQ6lw9J6H9doGlQthVKJsuWWULei/ZyVKe1Gub6C45xNeJMPPucOnOvSqfz8GOFceLKJSQk7P6BeqqvYoXh9wIpYWs57TZjhuEssFHCYClwz2UQ4krRqpYsY861qnsnYs98WSXsglWrm2LqJuJt6+DEEH9Nd/TMPd7ILmynEU9fCBYC595MyEzvO6iOHlHwdJX4H9TNb3PHbLJ6TvZ6rROMRflL0Q37orZKxmInbptywznumLFBmNHptrIVAh1GgT4abSjReEVly/mrkLIPHen/2ktqbK9KJGklQDLRvhVtUKopqflzA7iBCijiDn/tudxQXyYeyzBwDae4ner4vwEMBI+EorFsJPzZQGryh99T+/Zxk9xBv7etEZoebh5S7EdgNZp6DN1/30IsBvUalDTw/6nsJC1x22Zu4IIWqMuVohm28455rVauOU4pHLuciJRPHO39H/97ddttKjVkxfq9WALjzoMYgQHYhGrUoA+83bJjjMC478CsFYZxg1yhL9lOZKPQttdkEWWCw4SshXhq/PmvhqBTicQLykzAwkuMhtA2bnfqHdz+3ppn1ex1Oz9voCrsTFkAACAASURBVOM2/wjals2VrpWrF1PxoWefUPfdreIues9Ex0GZgFAvciz2LybNXC558NB8OQRnOQjc/obdjjGLYrJ4hGfXc3pOVRYQIiLdV9mzb9cbr6mjk8qLefSgpquKViULklcozoCH3rQ6ebLQ13MFjIPxphrJQkXbvfLYfG9tfw3IMDAddhInT6jBkartwtwvmHxXYGD7gVn7GzQH4/1L+D8VerCqgorPUHedcfbvg9VxNl+A9otRRLFTjZ3CrRAUNIFwt0kEqgqCxThmKRXO9MXHv/GqmrwVN5QLMIfw0wAvGgOvvYnruhMRvWBMPdC77/En8v0DBYSChbMFrMN0Uul1VbWTb4YCYL5evxqLHf3BWxirKt2Lsb/6elXPa/qzgnhKMLk6dSJx5BAGBmeCes31PGOZD/RORtF6YffiYdj9FqrV+XpoJhL52LIHHntsGKEVI0mF8CQGgqtI2gu9smjLNOQyBIXBEad/sCK+5jKNbo3gvt5GbeZ+6AYyCwv4hAQwXy4XBnbvefwZ9djjTAvCdon4I/yJawnNoLBGccy+kaEqY4K3l1g3A9aWPgsBOefa+Z6egXvu9x5/Ug31I1IS7MFNa1FHsuSFmB1j8d5DRyrYjo+lmQ9FtLZ6ebaloG1DZcHqEdYWEBQItR2ZN6MLPUNDZ99SB4+QzqlJo8iDzkPDzHaTCK5BZ5aMjj7y5Ur/oM6TiaUaWPFO6Pa2uAUzdPZPYEpVFvZRqHMhmtre3ikXlkC5OOwwLBEJC59QkPYm+07elrONWDJBhRKmTLSv0iTZbaItIBd6NATM0Y1GCmHrnFU88PXn1K1nlMcMKCa9KiBuwshZXIO2tcDx0q6jyfbpu8KHbq3YDkKmInEkYWguMh6C4PPbCtAWV75yc6flCxAM+3I8tv8HP1AnblcWZH9Y44vAT1VN6xmMfi/BmiAWioSsKMZ57zNfTg0P0TcG4ZWwHITX1+9lgfFApVYulIqIK2MneuZ2jx166033zR+o4QnEr+RWRJW2wb52vaEPa4WrOu1F6qpvcPSW2+ohrrFa3dUB5xqrPR8WTUGLBABFQiyZRNSHSqWSc7zk/Q+qr7/EdBVlut56YDWLDzbpOy2r98A+6BW4tAiKVN3AQ9OLaM0QHDcDJUUoSwYGk7fdnvraq6p3qFxDNIAynLJYWloeQibwoghZFukZyBVK3LwTu4QQNPSdXwTVWj0MYwzk4on2jGQi/aOv/qE6dEqZCHdBobZcqyE0BBFAstetWknDyJhZ4P7mHfckD5+AzCSRtMCExUahZZ8GMkon4wm2KX1nTqlDe2ED7loRaqlFbmrqXZxYiY2b3KbrAFSGws+IDDz4sNXbn8FK398HRT9pi5LNQo8BgLiKXDKQR6qca56rVfc+9gTzqHoQPIkxA+nGfTBvwIKpxsCg2GjoHZp4+Mla/2jGdPMSVp2FhCgewI2OlAzXm8XCTXoecEM+w1YZPulOR4sTVTCta27kYiR2AEbmh48xOZ1Lh7yAJ7du7LKzcrOl0rvUxETswQczyfRsubawkIEgIXuWnTgStqMT/NkL+d/qaqZQulKqLERi1dHxvd99M/Twl1UorKwUndz8IiIwOaDerGwJUQh5cIqFPO6LTh4uWFbRtGBKrGP6tnzg5pxsll2C74wjyFCC0kpIjpgsTPNqvpDr7R+878HUN16ulaoqnKDBIqcErT3wwV8kMARhHD2YNWN0tBOENSyLV5DmihPbjgvpcIrLsO82MpY1Ax+fAwf6vnVWJXvLzNBRdyEcgZ9I8KiVBWdh1U99ybHJUjKOgck7GbK+48z7dVP9JmDJBDM8fUinQN2ctbxPytVb/+CHamxcGYgMRu/Oao0REnADWQS72A+WsAIVYBK2QrC7aG/8nkdnnYjEDtFLFEGdlqTlMRA/lpr+1syKim7KCYBIpko6x4Bm9xUNa86xroYt+94zqljwjY6DdsCK8zoz8U1pRvBS80//9E/xXXpWMK9nA3FEFT2mgRAJIcNJT12eP38+VKaNOyJy0+WbtwZzx0bbAH1aoVZzXMf0rIKqfGYavWfu73nxrNq1l/FoG/Y9gI8kgj+Qq7dVrMYqBRI8bGs8lRxIp0Y+e/eDeqUQdZCroIqWh+rIQcWFDHN2GDClhFebQLlZTGwUg2t+jiTb6DChYGpxYDIQDi9k5hBPOYQ4wYYz50anR8cn/+hP1N4DKpHiygbDW2L7ac89/UI8Lp3hF/miCYJ3inO3nIN4NTJSnp29/NEn6ZDjMMwGvJwDB+GWy6k1t6iTb9SkirVPsVhxbTeEYNXRWL63f+zJJ9Lf/pYaHVc24k2JixfwBIqGaCrb70EvtaUoI4R06W4Iwfpso/ru+2Yxt5CZtm0s3RazDUs9N61o62ZuuxMO2X0HsYRg8Y6FZsgOx2rFEhQr0LrDFn7Kcfuf/orx2rdUPBWKwurbArtBktHA/QkPsshOt4RFgcAVHZr6yS+i8zMujGQRxk4cleXQ049mZrr5nIiCY3txQn8oJClAbGWMrFq15HlXPdu59fjIS6+r3ePQMCNaJoz22NUElo1q9FCjs3EBMZasUsFIRX/9o39wcgteGdIF5hBEa0bjm5sWPN367OLY3AY64DAucxcWO4swnaARInMvSXAkMG38vFqphfbvG/uDt9S+cSZ8QcZLDbzECUXv0jOH1IEZpiWpg2wk1gK0ZeFwdDZz8dzvItgLLkOIouEjaB24YkgyQxVssjLsR1CmWsqXlrV9CQVsBzlQICahVg3ElyPdY3ceklCxWluwrSu9kaPf/Y4a26cQEEJmsWC0627Vz7brrmUct91t23LelxIaGPO/yB+/DbRCRWQP89LP37HzBQdBhjAS4CnHiEabxTRW7agby4pSuXxR1SOnTg299m0VHyrWHMvz11hwwOQERGjwCT6zrVIXpUCybQi/iBcxOBwt5rNXL1VyCzZtMiDXo3cBhqgQ+AmwpHc3i4lt6d3mShs9q7sVFCworWcyC6aNf8Z8TeUS6cLuPXtfe4ORsFM9zNTAmFWoRo++xfo0XTc3GmekSn+ik1vFitl23HS6cP5iZX7BKpcRKJD8ARXuDPuz9fYLBzPmRZ8wHCdXr2Ws+jXXqY+N7/nWG8bD96lUEvpGpMXTdMyJASKC5nqajHTXtHkzqQ03kB/Vw4bx2c9/FoU4DT87Sq5+ublSgji7cN9d6AsgaTM1pjUkGZXrlmMbkXDOMqa86OjjT5ivvM6NBhAbpw+ZRJqLiLdaxoXVEEen8rwrM6WP3o8gZGWwCCNKRB4hi2iNujanW9+87rMio1DZWDJDC6Y15TnJ208OvvwqpO26g6aJ3yOKRguqX+wujhr9PoCO7VUrBBW7WZ+6Uvr0d9EqlH0QmrAy4SzYAqzWZ4MaWzyw+VPEszZmR1CwRbSyewGpeQkzxuShvpdeVDDTS/dipueowFVBgLhKS+E6lOdaACRYYtVAmu0YA72Xfv1eKDePfSgRCQ1Mw6B32P7hFogImI9gCeFv2MnYa1mWnG93U8sn13rSrxTIqYrKFP4caGbeceaSieidd8SfeEK5SYXkw9K+AFLdrasDtJZ71grleu/zpQQ8Bhh9MFdCC6OzVLzw8W/UZ58mEAqLRI3l9has6dHXNpI51Su5cKw6sX/sre9B1U+vcYioMInQtLUUuNZUtd52t72fdnYyJ0o8NLdi799dOneuvDBrlBYsVQAX0EpF+QSmRBOoV45t67zJF5oYEyHR3UsTk6qya7VIzIWQsJCv56K96vZTI2ffULfeRiR4iHe3lF9LO7RMq5tEPAUHZy8eHMSLDaZIB+LpgZv7uXfftYoFp1o1OZrB33eAaLXOngNuuMgBPYCFQU+TrVQLMe+jsBp56pGBr72oDk9ytePFZWcV/FEvghfRRa65loK70DUQWIeGZt79ee3i+UQFc9PieNzmMXIdELHCo9gjhy8msMcpN8C/Dfr4XKm0EKp95rpjr5y1nn+BUYpNTIXaj2lp5Xq0kdNq6pIIJiHLsYyZf/iviTItluiZz8kGC1wQG8lPkAgJHg83E3Azta4Nz9dp6JLLsqoG4mt5y7rak4jccXLoO3+okohlHgX0vjIOTzR6u7WUAON/mF+ZRiQWr9dnfv7TcLFo1qHJZFLpZmXe4rtvgpTA5RrSGlI3RBxj9xnOiugLbCEZ2dSu2aHR3d+FR8MRFUYmT5h20W9VJIQG1MIqpLSmVbmID8oioJuU3TeQmP7Vh8Z8zoEQBRsoggBzX9xUc2p1iCEcUUFp17tLzre7abGa9X8jq9U0Dy0L4qoycm3BMmcjYfPQ5Mi331LxXtIDk2SjcFDIl0VstH+lppvtpeF2b1+UEtrdUSZbh0NPJh6PX/7Hf4iVyzInQlBqMYW0q6T9eXhSVHOulx3eveebr6tjJ5QHZzDMI+QK1CKsKK2pasVtmzgRrFugw8LQ94xoOjVz7ne5uSsWIzXTMhVyPbtW1nQNat/EG7f30cZwaEGM0N0hKEI1tBDrG37wscTL36B6EIw4EhdybzGSGtQKoJsvL7216Z2YvaCFdZ3+gb5P3n9PVUumKiO5YdPSd3ubfwNrlzEM1Toij5n2vGPPRMLW4UNHf/C98J1nVAxhP2LMkrXIHnA/vYka4tIapQQtjGAuAV9Oe8bUu++EK7QAbgzI7R8jqyFVpi1pk6YCvV3ApT5SqYWKjnUF09343gMvvGg++oSKJ5iRFalECXQrliIEBwEA3ABKR/nLQOCf//u/j1cQ9Bgms8A5NkB5F/c4OCKlI1haVSj1ydWtLQbCPeUs92o4vOuxR/ue/zp365L9EGECEYHxJRdf2VpK0IkNIFYgorEX+ujD7OUpt27buLmud7pXwHwTpASR/bhcQD43zIacn+F+UHLqV71oee/R0e//EVJCF8MR0wxj95a8vP3GeztapeZENBZYlNehuE/EwrnC7IUrdrFK1YTQF4L8aZ2u3Hh9Xryk17eDBILOEWCwgYutB8SKcAq7x8ZeekWNHSjbEWw8yV2aEtYORBPl+G9Z+7MraGadJ64vJRA6dJjjhBCB+uL5hc8veEhZVixa4q20yYJxNVerXY5G9r/6ujp8VMX6aY6AImt2X0cHOmoqm3zjqo+LOEoplZpPIUQx2+9JJk8en/rVe2XYqIdCDkK7lCEe60lUywo3rsNWhb/NRUAnRwNKxKUoYvXpOSXHmi7WZ+I9+1593Xj+qyrdV3KRlRgqPOpyfWbLnlhsYIO6l7V56c/GL+FhCOIei6ihHhh6fPjr98x8zkLAFQZb6ii8ke1tbP4IhcO1EjbNoAGvlVUhb9VykfB0Kj3ylWf7nnhGHT6lwn3KSjLcHPduMWtw30q/j7yOb5X1cJsObD6Np3DQNhxyuusq1yx99vH85UsRLLGp8mVpx3nXUP0W3KI5OyRshuITaTCEWN2w4XHD04X8+YhRO3xo/2vfV6fvU/FICXmrkJQBC0SZelrDT5xJ34hqilsSjgNOceW3H8WBydwCJXeqvyy8D0Z0km5el+2VEsplpCdimgHDtuAOtuB40+mBgUeeir30GjTtlUikzJlOB9KSThbFoz4Wv+H5oOdFdKZUBb5j2oYXCn32s3fCNbgYVUKUEhoYCtrHv1jKNFfWqL/lzc0Pbvw73jE3O+2GvTqUBwWETbLnTetczHDPnB76k/9B9e2GhGSaHhwdtBMD7gc0estlKTvHlRZFhga9HqGDwCYDOJHheub4aPbKleynnzn5sgPL0KtX3KhXhUEknO6gUNJ7wVLZykpFrmjgvtUdS6HQY5NUFRyiyCENtgB3xakqTHOh8nC9ou1d8WIHXodX/y0Iq4o4H6JG0LW2hHRFXf6Jlb25JkjaVbeu89eXEoSCKaszB5PjnP/Jj2vZuVQioaDu23Qp2DZEhMlXXlV3n1EDozQFCIpP+Zt+xXoq0D1BksZApVpLD2lQqeX0TuxbOH8hl8kVMlkH+lFyZAxbyBMr+28977xR93KcBJwY0a+NKOzp7Iv1emTyttGXX1OnEVw9VnSxX07iE7bcRIUBF8Oldq1dSrONX8LZ6FULjbKtehJDg7s+/eUvoYuDupL2PU013yhMtHtPo/fb3dD6PKJBwLLVsG3LcaqmOR9xZuKx/tNnhl553bn9dC3RF4J8gDznXA5r6ZMWW5w/hbr0PKaxvZZxrzXpQnzIoZe1w04sGbv0mw+dTDZM43qWm4hVCjEGNdHg3VC/o6NpJ4CGJ2IzuexCKhm/68zeb39PDY6reLoI8RHrTBERFqmzGX40UmjRbxaFDkwaIr+mey/+9GfWzDUPlnG1Ah5HHAnUAutjkaN02V4pAXhGJmi8KVOtTlvWbKrvwAsvO48gwmAqjywb0hXYmW1YSrTt32AUyF8ylIqq2NCnJ3tDn18pXLxgFXNQ6EqzV5bWhhhtRIqVj2/kDJQ6nucisU65FsoC4p6Ba8nExPNPp559QSVHSO1aVRhATEJvdOMaXihTMnUncITn7fDyKBTNaDg+Nlr55Fwtm4HCzmUaUew8lOswu0Zr8UYKCiwr8QzE6SGzhpfLC1fcF+BzZd0rbuUQCNU9c0aphUTPgVfPqttuV+kBCMOBpWaj+jXVJi9oBVGLN2/LqetLCZqZydirIOCJunypculcpJRjryztDn1niy5qAznG2EI0mnrsy+5Tz6hkShnQckN8pPcAy7rIqs0r1nlahH2Z/rH/CSgIAoY5crbB2rZnMDm0Z+aTc9Vs1i1XYJYiHIirg7U3eZ3wrHa7xjb1cmt4P8YcbHxQdK7tTDmfC5ufhHK7v/xICoHlj9+BaIChcAS3YTnGIb5s/t64lEAM4r3C6lFxTe0Z3TU8dPGDD5xCyUGqdV5f+1BZDSGbvIbZDH25jKTXUicmLQgKZTgzlErYZcgfPrb3xVfsp7+ihkbgx1WDIwMtfRmxnqRNvxKwQK6yITJoqaHx0rUgQs+B6EwcDqqtZGAzhEzD2V99EIc9vBSNUtqLBSVAMtdDAIct5a7ZWmjHr2KN9CZN4BYADMqgKjZp8g9NUhSGCDO9sYmvPBN/5iU1MF6PxmtwZ+BmA1inyEuiNNZDSUOr4dOfGlBqEhqDzbF7w/aFn/w4XsnDCIRtrkuiSC5fl0gJwLovq8o7OMRlJl79WMvaEV1fxYasaVbiyct9g4fPvqnuvEP1D4I1gDsCVLROiz8aiW37t2kIcKQQuiJNNSM9kVTvlX/8D9EarFPpRdyqsDd1u5rrD2a1Vk+0P7dGmqCcho1DbAEhyXVP38zo8Pir3zTvuVf1HaBXQoBZoAC+Gdhx1Nlh5bVtcbAUKHQZkwVJkll0bQgpAoq1spvui+xOXf4Q+sgClGdGDfeAscHfAvtQ0G2vJiWs/d24cyWm1yUl0DnTMjKJxPhLr6o771WxAQYX92m3QZybhqh9P27tletLCWhTMHpJQhHHvvruL2GQo0pV2vw3pOAAr42hvgxQetNSsCBHgNluARZzjmdNHkm8dhZbtiUDHA+KBFnAoyrUoo+tbe6aaiOEFEzZNvSscHf8hWYxmUyPjeanrs5dmwZdQpAFV8K2GSiaHU6xQbgvfaJkxtm24jM5EVKAMOGvwfuYk032aanuY6/gIv5wR5cwGSXLng7bsz3JY6++5D78mBo7WrPsCnzp6MEo6k4Z5Usm781ICQKaDyCtm2tqcKh3ZLh45WpmPgOOLgyHaKOCGugmC5f7txF/yzuGA5c4JXUGLE4A4QG0BQW4pSwRdDQMt0LIKWDlnfCVat0Z29P7yGOp199U+w7Br085iDOBWGseXBdJ11QiUxUudMXGiZSp65J+WluL9eAAxoC3uirDkg8d7Q7smv3n90sLc1RZQNMPiQf41C8iOQuhcLRyCPMrN8w0gteEZR8pfLA1vfElAhDbRadO2i7yR8guWtbvysXavvGxl19U99yv4gNVL8bYrcLU+YdkGbBOAceXcjTdyqfGWBOscDIz4TYZunxh+vx5D56CrICThHYY4Q6OxPQl5NKzGt9BX16/1XpWEJ0iACAxyJodbAwCEGzTWHXFtK4WC7lIxDwwOYqU3wcmVU8PlSMiImgqaY5R2/atTeNL6APvhMAXCiHsbDTaE7HPf/hrp0ozfvIlTprSDpHzyFL93xr5hFWwqlstTV9bQXVa2gCuyET0y0TGkkOzNL4U0SBmy/U55MtND9T37hv+3nfUwYPI4Ulvcfq+ERKBhlAKJHhKn26Lg+UwyuSizcDQry6iwVbKEaA27KWO3XrtV7/JzM7CV9KCyaQQD3qc1rFSNME0V6hxseZ3++OxUQO7Uptq0imXV4FjYVPY/4LrJwzWatCvQCyEpQaiCi049uVwZN/rb1BEgH+vw8znUijONgG2YYhQx9qfbcbERr5fR0oQMuRBa2w0zzWQwbn8yeXZTy8lYJlRhb8Dlt36mk+1/hBf2gS6tepJlKg0qk74smllDhwc+Rd/jDU6zD4NwyE7FuJnwd/WfrQbaeQ6nuH78Z+TvQxy7hn75E53JEslovHjx2pzc5c+v4SIu67jls0Spzc9qMgZIDdACcbpb/sEBUIlhI8XUlD3py0SLkQXiAjwFILNB1J0IdAZl2yuXSoXcHKubkxFwukHHxh949vqngdU1VFOHDyN+BY0+VyI0pFe6wbsLhjkQgf+DNBYCktLVzmkahTUaTjKcuFi6h06XC9Xrk1Ng/3VsguYScu09cH6QJtDke70iNLy5Qa4XvDWFn+DoS4DnpKRz1I5x+AHxT9ODPIdj/szBIkC7vmGHYrEKqU88mLPl+tZL14e3Tv6xDMe5F0EBPMiyo2QVKCFot+BsCz8E/zqU/iqD9YtReMu+LXirw+d3NfoKWJHqkHwGTeC4P9XLlzIX72c9sxKOSNqWJj4YDYWfGLciaE5uR0z1WI6YB+z69dQ+GI9yqFU5PKQU7CBTWlgCTuthgGHDjrK019PBo7nVrBnb9uzyrwUiw4+98zA2bPq0GFlIxsIVFZAA27jJMCWEQBZZ/ELw2lofGii0lQo0C4lMLzcMr2J0an333PzZatQrhvGQi5nwTcHMHG6k8S17FnBkqBORjT59KqHXqloeahBDCLSYIVjFIvljGObIdu+Viobe8Z7H3ow/MZZNTKhonGar6MRmhsIupuLPtHis7nDBQ/Sy9isoAoKGVa9ZM/V93/lFguzRaTNxIYhmBE6kfFaKIniTr8biXwtcQlSGy/nhHbdA+9C5SBacbxEyFl4f6N6JrQUHAKlCIpVLVZzRiQ+Y6RLg/uHn3g89so3VU8vwmEp7Lpj0wet133mk7jgXT/OzzUWPWB06g4+BkDClsOMg0iS1jcU37376oWL1fkM1Lo0rmfj6AscjF++UYYup6elo6cFAJqdaQrRnGHJTbpWuUCBgOGjBFOMlOObZcJND4E8sMdmRZJFO3LRjU3+y/9Onb6HJEF0ivhCPqOx0aie7Cc4ll1aBqcQrLTIP1a/vUUrN37qOlICWqCxRkkIGUDLWXRUdGTvhZ/9PJrPwquNPBZXqPCRvtC8UG5uLpobaHRUDPsShvGhyYk//hfUyppIospFLEUzn5DlcZmgb0KRXgg6RGBorJ/AwbAJatuRk7f3h6PnPj5fLZdq9QIpBwQE/khOKnM2h9k2NoBgadoHuQq2QOiI+Y4vsgCQpY+qZ7ILFnbvTCsP97NI5AKiAR8+MvbKy+EHHlB7JpSJoEnY5UEVAfEuDih2yCrI1y9f7Y7WD8vgp027hd0r99YTacf95PxnEMVxe5n6w7oFzYLMIILDYJXENqJNrSvdwFkNv/+giAhEmfzmIhifnEoFrVw88AoChUhUIKzdmVZ8wXWmLdse37/r/gficOe77aQaHuRkjOCAbCNGzDJw2aTmYwNg4xEOkcWq8VWYMd4Yj6YnJkoXL0xfvGhxCqc4jvtF4YcWIQiYjCnhpKyHPG7tXFvoTWZeQRFhgC5N+iRoZj2UySLeIHwvLIyKbDh6AfHzjh7Z9+or3mMPw5ytbnk1O6xzNHCksz78Y2W6bkHIEqS1RVfjrlQ8HTIu/vqjmOOWigXbpYO2biL1Ezomh9QiHxySaziIY33I2loaqVsKQdapl2qVApa2tpcfHhl+5ivGk09hlwExMEQ0FMh88uKrVh1G0uJlRSrwsQryh3EnnJXTaWd+YX5qKhyJgleKi52soXkzxRe/VegfvFq/XbfTr9wHaPm7lv5GT3CiZW9Q2NHOI3SY5lukLcnkfKlQiSU+rdYG73p0CCbPZ06reEx5YXQ1zQLwvFYlaQYqPQvMCTuShq2j+A3Qj+FTSA/gOaFiTSXi6T0wZrxYyOetSk2VIKaKHo23kJqkKXwzHmw0vh0E/nn50wJTYOXgAThQuCSTl/gji82Si/USPB5D5jVE2xzds/dP/lt15KiICEISAF0IaNVyncvLn13n7csfX8/vNUkJghG2ExZJFqL6Q89kqOlffZCA7QpIKLCZAhZkuiFKpKuaCqXrsqDJzNpeaWzP7te/pQ5NctXl45w3ByMK962fqNbT7DXcKzAEBTBqOgGvNaHqRFq3yWO9B4+c++R3VmbOg4BfQQ4XOjSDIoy6C58QEfZbkNwaXn2dWxZrFSQB3VBFUuPKuZZzPs5yQySEsIoReDVnVW02Ers2MHbgay8mX/qG2r9X9Q8J2aJTKJ/pcbX8rauyN92wTRAq9bZICaWOHes7cHChUp6endsVjtSzeRNxi+mMTYs2Di+8yR/p/NPUJ8vhXddv3bv6k57uZCmcrhhZnnvq/KwZWI7TsJwKZnA/C2KYVUAIBERSC0czI+P9Dz2aevFr6swdarBHJRBuGVOUMAX2QzNu9PdNYKu5bS2rgSiAYei50X37pi9drs/lbYYSQCaWIiiXGhDJgkI3CBIIxC94sLWsqBUWG1Qs9IYD3MDGAgH0JlM8/oP8EPLAQw8aJgJJ2hBAeQAAH+xJREFUzSBc3sCevV//evoV0NsELXuccMiBNh7ESdcWvaaX/qQsI6DoulsB0OIc2LK46UNwT/fALefypctixYiARqUQphEYDMD6nbFx0RUir/sCDmXiNR1+RwpkQg9i/VCGAUrVi3/ihIeffLbv7HfV5BEV70GkQcPyGsTJBgZHC9hXP0VYG5MS8UOEOY595BYFVcmFq+ZCxoW6kMIfIEObRXuhR4mMff6gROhvH0hz9TbT6u2mnFwVy1PGzZPNNLggylIdTiio0JgplLPJnvmB3Qeef9F78Xm1fw8NRm0s8wRJfLdI+D4w8jsoi99Wb/7qVwGiqUpFaPkNtXsoNjkxl8vOXZoJIZdwvQbVGReaxAGNf/TiTgDTW2FN0Cx9iw+b/FnJsmXJgn/cD6XVC/XE1NViE7qqKrCbLYONmqFS2J1Kx3seuHfw+3+g+gZgiyOkfV3hYKMY2hqEro5u/+r1pQRgjcgh8qrFehk2GCHPMVKJzLvv16HwAW+CForjB4Sos91L1csnSNo6IyNWBp4hkcjEN19mttxwAsjWkoUGh/TdKDcQC01vbf21AYsMX8PEugGKcTfef9uJeKmAkTqTzZRoFgaCwi8oXEBaQIuWP1vXueGzyxDjY9qnbmrKMWjxbtj7lMLxT4uF0q6h/rvv3X32Lev4baonxSA0oHPLg+octlc0vCDeV6B7SWcsB3aTUgJ1UJhTXbuC8TU0FJ/Y37dnfObihVyxkjfMMnysBSQddZUrQo1JoFeUqMuh2dxvVsf2YDzjD+UFMBjyOzkwOQCeomlmTScbjcy4bs/xW9LPv9Dz6lkHqbDS8Rz2pyORItL3EYeaSQlrWiz6+xaB3aaa8sycGY2qdDq9b1/xyrW5uTlaLZAmwcgxfGXe8OOlUkOD1gbL+LWhL3gvnySe5Cn/B9sLLJUj0XOFYmlw18CZ+wbOfs+89QToLYOdW8sz7GS+MFepIlcoXZ2b1RhtGrQaVLC6YIID9A6sWaIxa3TUrpYufvw7F1rvGmzZxIGOnF1exW6kFkVDvFq9S66JVplIw4SDadkoWAo7DRkn7Ewe3fP9H9p33ad276lHkphHDduj7LMlxWcaBFvXR8gBSLXmHpyMISHI9FSlXKJo6xOZLPtxe9BYztlCuk3Fr2oVAGFgy3mVO1N4GqQh6MUGoHLKhlO0bOSkqIyMjjz0aO+r3zKO3woVQjaXd7wI2Q3fLdKBvJTASAlwrr/7Jzf1R2o2HVSMrYeSijjxW4+nkgNz0zNwSa0iTiWDe3OXDQgIXqSzb/PJJShpgsM/L39WYko/yQol/LYIQvhkK+EZvxAKZWw7F43Cy+PId74bhaVXsidLLzIOubavbHp78LUddC1u5al13t6mljWdppnT6jdSiMQdtIWqlRAoQGQ0Dz30T++c+9/+VfLypST6rLiAWmoKTkHooRazIyophsrTIWM+PXD0699Q996n+ofhRu3nGA9AoOzVKM3fVwdxu682MMTZ1ycjMZRSKldSpYx67+cz/+FvL779492mFc4VQyVwZXAvkCzYzLY0Y4lk4LMnWtDAmBLOGWYkMlc28/H0bCI5cPsdPfAyPXCIaVv9RLw1BPwgzmCMTH4AgvNNa5YgcrupUAYcxAWqqYDJQlFNXVTvvfPbf/fX5pVL1tWFFAAsFzzXLKpCJpNNeDG4ZetcOYDzunS7dqLgsozdhN6tIAVouYoNJOwq2BVs01RLVdcIxeNzyioleicfeNg6cFgdPKRiCA/q6B1h8AwsK6Q1PLSVSPD2ben9Fk1DE7j9J+pnKLquXi79x/946d//tXXxUqRYT9oON0pg51UqCQeH/w5N+whtg7ZbVLriVHBzHRnemRINVF7hmI9GM5VQIZaeSaQHTt2RRGLc/Qd9eiNmsPDFO2nvhRpl9qKst6L29Z1gZkHCjwYja8Kcmc2qv/tPH/7Fn/dlZ1LU6qG5jGQQtJAUDhsKf+Cs/irOApwQYB5J1Tvyo87OeMO9M05oIRm75annaJ2696AKI84uZ1Yq/4kZyV6yZWXZAgM/0X0VlS+o8xd/9b/8r7vmZiMzUx7kfKTDwJSOACSc3WG4Kh0M7xJpatC/bZcrekaHKQJ6BB0KesfIgtQDv178LJYqthudM52F/v4U9gcfekD196pknHRmQ+dHs1wWvFPUFTDcDhBA89TN93ILdOINOPR4rZYM5PIoltX09NX//c8K7/8qVayYCwthLFwZ4L9cyGMG584YBb6lpN48MjVVaLlKN6Ah6EjrIDvxNDfywNOr6IR8BOlIQmq6XFiIhcsjuwfO3JN+6nnYeMFnHq42MNxpjoW6ZPdc67R0w9ZLMM1NWO+zLVC51lPXkxIIluCNnBR0Wi1LxrMo1H3zmel/9WeV//cf+ovZamUBI7CGuPKUvluki0QG1WuhSqav78Bzz4dO363GJkohj0EM9Z5XAG2nSwmAUwQFXUh2OHI5rnTnZ9Sv3rv4V3+pLl2pz872YMVUysNRBz5yuHk7ZIVFQQHM14L5GMJH16FszZWqFScc3j226/YvqbvvUwODqrcPMGiwCTO+UTrjSMd0yJXI0vHjN2+7qVBeqqPOYsSSi+NMfkHNXlVv/9Pcj9++9pvfRsr5Uma2VismPM8rVKnlxp1+5l0fzM3/oZSAohFqWVXTLoRsRPsp1OsL9Wo14aX3jw+eupMW7ANDTDfguDVssXOfR8BG0XZy8lXwukgj+vr2f0oIQshaWLdL3lI1O6V+/s7Mv/07WINHSqVotRqjSgHzWbnMFJUAkrbo65MS8AI8KXMRFrNCb+AIoTLC6wyPDgBFpLddmt5wL7CAnqUAg9fAaU5TmixzNzt/aDLWdAsnI7BlVVDnptTbb5/7f/4vb+aauZBLmIZVztMalptHGIekMgCyhiYbFeQ6h3E2Fqy2W3TcjOdlE5GRUyeSzzyJMA8qEiMZ+G7F0vlEy9ZKhA0SIu3gh9igcvIyCgX1m08zf/PXsz/9cR2CQhiat5qLvZdK3cEED6FMxrOWEoKhvaS2JdQow5w2VEAjGBlaDWTB+MIOFxFKEgljnfAEDC/uvQd260xBAqqhA7MEsNeQaUbBTwgKCB7C09qzY7O9vARQ+SGI4F/wLqEu/q7UkPNMZWbURx9d/vO/zH/yST+mtbk5ZKQKexZMx8ifZW5u7vq1SwlUq4DN5zMpOLCYdj5bNCOJ2WIJqvFyKrb79K32XXerIyeR/0q5KQwN8icgAehsFJGP/fKFkxKE+tFYoAlI5crP1zzA/lUVsurq1Nz/9D9X3v95xCibQE+1rZSAjFiX04mRRx6JPPssci3W7BgMZ20SFaptLd9v8aBb7KV1f9MjTHMkjlJWAMzIaZyFLR4EfFxA1KBr5FPn//G/Lvzy3dFiNlbCrvBWrnqbQW9gDRvQebOesxVCIMw70f7jdw0cO2kdvwXmbMqyETQTHA1CARVggJYAazmOCEYlnCtubPE5FlCo1XaECLwFBln4W1d5qGeQGbmqLnym3n/303fevvjeez2V0u5ayC0Sn42yVbIXJDlh9EXoV7GtPW+GS/GerBcZ2H94+ORJdXCf2tWvEDxnfkH1pJGvGBRLpQ2NFbBrwjVK88AHeAH7DL5uM3olPig6lhTKnQXxMkCKSIXwCZl59esPrv7931/76S92VcuxSs6o54t2Hph3qh7CGW0AtFIdNu61LEgubCy40aHj9w7dcru65Rg3YrGb4EreJqxoxYgXHyUYdonCH/MqBatm9ryB1+tHUI9oCiimwbyOEyV2fmyOxIufzfzbfzfzo7eTs3M9xVyomlEW3B+Y5UG42FqkBAwQsxxy8m40k4zPxpN77r2v58Rtany/ymdrYYwpGGjCEgM9T1NCmR9lYtiixknD/FEi3/kDjRQ3cTgelNT8PAfPJ59f+Zt/M/XLHyVK+WTZSCDL6MycvwDAM0vY6pLadJ1LPhGlCFsaEA5Mr2JFFqzYgu0l9x0cuO24uuMUHLtUGDa5iIMG2RL6PMp7WGjAxYICH0UGSkyYmnmPDOrtkhI0B9MmYFSGCuZxAJpqlmpdkP1Hvz3/l/936befmJev7I7Hqvl5fxmwtOubyfA6ugTycMxXkDZgc2Neq5jZRDoysXfszBn79uOIFAfjTWVg58WrYS/EDtLYAS+Y3kR2/2LrEgIpwR9fwomEIwKtMGTxMgvqZz/5/F//mTc7FWFiWJpvoZ8aIhtGJszWsWCd9rzIPXf3vfiSGoIxcAJcA7tYFgMXEYWysF1eOkpKQFdr/iZSgogIlE+FQMFqxbinVCjAbxvaceS8UO//svajHxXOn7t25bJVrdqVMvIq4QAzA8miwWtnlQ0Kxisw/LRaDPMZuBjWOpIywCjF3fT+PakTR6gL3XMMBhOylKgVuETgRr4l4WsILfFt5Ak9/eSgzrlZUoIvb/o9r+N40qkuf2Um7Fgq6qpSlmBem1aXr6qPf1v7xTu5S5fmrl6tV8tUBAsaGWqmhgB/bJZGlKzqVysSx5eqF/IWvVkgTOdaZj7W15sY2+v0D0VPnVEjYyqNbQVTDVITQ+5jGGWEwIPPiEQMrIIzwTec01Sw5y1t0XQScPm19/NqMK9+TbMiLSXo/X4MKM7/0DsvgEVW1fRV9eEn+R/96MI//9SpF+oIVlKvhash6GYAHyVFmfH0dzzXUL1qesOnpjd4yeMSwv0UI2bP3tG+E4dJbxMnSG9cLWFH0oSuFcXWO/o4hbCb9NgjirA3waw8W4ISjjfBCtBPgxA0olIqI4hT1YJP7dS0+uUHU3/7d9VzH5vZa6F6js6bHHp8Ihh9/k/dXkRwYSQcWOqIrysGV9YI9x6cHPzSHerwITU6AetLevBC2wURNgQjbna2wTYhEq90vHxsSeNY0XIpwQ91jH0HBN2oV/NmASt/l6P3Fz+qvPOTcz/959rU1Vil5mFhXYfzM2ZuSYa0omjmzD4V2Vzn3S6oKiTHCsxH4NbrxSfuuMs4ekwdnFSphAo7eUSE4WM1OEJi+of7Nxpb4k6ST+0U1UhFwiZ9HiXTxKb3lVaA7zdJZg76Efl4AiTUk0GVBiEKeoWM+vC36mfvXvnFL7OXLzgwwWRMqopwYCCHXd/cUw0eK/WRQMgftCwiQg+QXnOtuXIl3jcyMHnURdgP6Gh7UlBOVYA2JGcJhfl+MlkBSbO13w8pQWZB6fimIujFFJSvGp6prnxe+pu/uvxX/6Ynv1AszkRt1wLtMl0YcU2dlWPOGNX06Tt6/vCPESEEboSYsMQGHyTE2sX4RVRpxO3im7ZuvDUDv8HvjeEWQNU0/jBWgskbkXpFwQq+jWkvpBYy6tfvz/36/c/f/v/CuYybncdq2MOGgKg9mYedSy6YYeEBWMdjLS2oQHwOFr6CHBxW9rgNgeKt0EIJancjZFslNzprJuuJ/oH9E2lkGjy4X6VilGpBpUgWgDkCNQFW3+AAP7SA0CBe/tY/dItW8pPtxv/SN+pfosTUXymEyV47VMVAJg5sM8/OqKnL+Jz6xS8qswuZman63DyS5llQKjI9IHL/0F8buBWrdhjuiREWpAGiVL7UEVPWATesulbJMcqO6fWnUkMDdv9A4tY7mI8USkUgRkIV8QudNsUsyy9LoA5sI7Zgl73xgo19aYCle41mB9LhJEggUBaK/JyeVx9/fOXd969+8msjc9GpZMxixWKU3aJT4RSOeUVLBiBqKFArkDXhOeAAV9E5tyc6vHtw71hsuN9AhEGEQLPFoxXjHfQWeH7qLUR2AQCAZzkpz5/hdOjArZFKUXkTRVPLTiFY+glzgG4sqOKzzwrv/vyjt39qzs84s5ftUqHOxQyIxHB89kNVX1FBO6IWrJDZ21OORPrGx/r3H3HvfwIWvmJ6gsAMWCECtQ1KwBglyikQ6SHWGE5t+8+n8LbXr3ehqYvJH4heNJpjBGJYVc1eU7/5IPvhezMffTh/8RwzSc4WIQhapsWGBsZnaIALKbleL3BzqlZ0ELoGqhHyE2fk4PgtpywYlWNnwYPNDZsLYqixBnSaRjf+gLTo8kN4RLnBcSIMbfGeYLw08/OmQXS9pra9voiDRWwGZADKlRUC/moOLJ9Qd3x0Xn30u/PvvXPt49/EKzm3lMVecKhcwD4FwNRyDD5lMYV22chrXqmb+VCtCP1TxKmHHTsWLsTj4/c8GkFIjOERkjqsfED5XBQDTSR0OUjwTbA3oOWFtm1a1wW/E+SZ5letq5L133w9uwTWyNbiv0aDP70AXMjy8ASpY+k8o/78L67843/x8jO1+XnPCZtVOI1ZRcPKh6MXa9XI4X3jP/yBGhhG9gvdK83mcjtCSlgFsY0RuOSeeqgEL95CzsXcD4rMzavPP4MqTF36/MqHH9Rz+WIuV8kXI7YLsyPsfdMUDP1OyYpoJsVqwq1D+858rJAMKrYR7e/xkrHYrj6V6le3nFGDY6qvh6MCb8EOIlZMsowT6Uto1KdaTVBNZLU4tHz6baZo3ZAtoutVMLf2Sxz8pewcxB8yJCzrYTxbxDinOZ6amlIzs+rqNHYE5i5epg8X5AXuIiDAgbQT60gmpmPzscRKpIeMZK8iDuNqqJ9WTp6twoj2g2Skru7NgEoFY21Go+4y3QZ/qlh7g7b5zpY0Sb4Og4Qi1ICQGLLqygdq/rK6Mq1mM9O/+8yDlIC9bUGYFhGgBUzs6jXSUdXfp9L9agQGiQgYhc1XzJpgkbDZRJXUPos1N9BEdtl4NfUsQZEpxV8JbI2UsBSB/kub1hugExOSJYCCuJ7PQzZSn/5GzU7nr17Lzy/UCyXK3yI4Yv3nJhJuf8pIpdTYmBofR8oJWiUnBhgBTJe1rInb0EkAqR5hWzOqBHAWEDhWvTAfJ/KLc2rhKjto+rL6zcdqtqjmMmp2IZfJ5IEBKWh1JZuPRGKR3rSRjKrBAY4CjIUkBsIAc5bCg1s0ZQhxVmK/IiAuOpIvEN0ppQRdVfPMp70ItDZPmI8vsG2PlNAah3rfLYDN/4uVPnJsqALWGNiPyKupz9XMFaxs1dzc/IUL+ias0UA/+C8/YbgZ9uLJcG9aAT8ju7jbkk6oJLYakxULKS5hP011GVduujSb//8eSwnLML/4s5AtejDo90Lqwu+u/B//Z+1n70Znr4lhExi1lzMj87FUaN/B8eeeUvvHYRkLJ+2lUoImPh/d6KV2A601XbSF64ZeaObIeoT4r4dHbb5oQeCHxSd2ZkFM0ElhjMGYH0cmq/LF2sxMeS4zf222mIGdHGVhjR86R1BMQDAvq2d01I2nQtBugXn1iPUQ9jcgw0JjGEeaQaOeyYWwMYYz9FrHUNVhgQSK60kJuKUhH3Q2/jV08E8uq2pBbGnB5pFfQzZIcRB5FCa4EYh7uUWKxulP3OzraXgShk+MHABMGSrssUIceMSA/lY0ByjNs0IbotxZUgLXfEAGcSXTNXFVhOjFhuMkfF6INDnYfJkCQM1cJDImARACdX7dsh2oFpB/gStwagNxn55CRPXPh1eREqTqLdpx0HUFn/qlHH0afr5G9gSrxXKpbMNOIptjDhosLkWGVJmc3ClU5MJGA1aKEuuiBGKQTRFMjrDpwZzgI6QNETSD0faWxghbCvRm1pdNVTK8QbUM3xza88F6BqMD9IwbqoicKKODnEdImgiRpTZahX7kri/uQy+DOCAPwQsGdwJFchWKIlmxNMpqUkID7UI1KMEmTBNS2uJnGVo2+HOllCB2TiImanRhJYboBkjayr2BBqnLWCCKBEsoaDVUR9STofmiyITTEBxA7HCI/q4r5qKulHD9HgPesX9cnle5bPUv/va3//k/W/Ushh4SQ2XNyPjd96de/gbc4uvYiIBqi9xGiEX4i3Aj9AM//cHY5n0reqbNfTfjdDspgatZqKSQhic7H4VdNJpYL5G1alU26U90hhylmO2wzitxlOqRTJLFKUgDWLRh9sJmqUgY4HRiNlRGJlmclY05KhDo/xQs3bS9jEbFmqWEHYV/8jy0D8OX5tx1pBRkysWWna/bJbxQG8FgDezvZlKcAtqw2VqtMKqiyGW+ReQXS0qgalWKDp/sW4kSdWCIgkuhtSUFQ05GHVS2BYZmgqUYTTVRhzzGv8QXpxhdOz6J7JssJRBkaQnN6NBu9DVaiLAgZUQGAZ3Al9a/xW9vDTsQ2KYWdQhLpYqUvzay9+E7R6s/MFpTl37E/2x7i36T/mzmZJvgaoudBfgg6+DdujasSSDVodUBN8B1ED6mRc1PIPZQPNDN9SGGlIFW0zYRnQmGg6tayG4eBXyN9K98SlmEH2TQKJ0lJSzCxW+FfInbBTbDSOMnsLiyD+BAS76qJSTZ/OXNwLBQfYvSlRJaIAWn/JGjvwDVYNc5GO+pLAyMr1z5p7fnZmaiA7uGT9yq9u8X5aRQXvMo8qUE4h003votTWevf8d1q7jhNzStNUWD0hhIxIOMbV30eX423dMMLWUrcj1++qOX+NA7NXwMz6J+rdVtTfm6uvVhcZERtRpLzQBu93dAgiY22JNW9gETmjdBuNc3AIwGzNJU4nQJ//J7Qe4iBfIGnwssa4PmCM0Uu+wG/uwcDLUAbhl8bKkYpGvKA364uaBpD9eWtVTCqeIiXePkC64zsiB+yJ0UzYJHhDrFn2FpaR7XS642Xrrsve3OL6+47W/RI6EASnYNwBKmg5fjkMGlX9HcWGkTir+lvaRuTUQrW9YGgGU4XLyrmU6an11zzStf2MCVPwz0u+Wz0WH6qUaTcXHxuu499Jp+kDeJwi0QjORr8NrFhmlBITi/CP+SljT340rI9Zm2uGr3wPXPN+sSAng05jVA0iKM62BSZ0q0YAxr3oI7ABcFX72jg8sNyYDY03xYIGknMSxpV3O/b6Kvm5vejNttwGE7LK/FLmHFsxpW/Un0gadQt4XopVTnAjn0x65wi0uv8XAP0Nrcqi+6lCBD1V+8gvCWxCQgY/J7e02004Iy2hEIXoujXa3tzq/oXzmxDTTe+kXXPSvIBIFh7IKvcSzzk6Zb8ihO0MVEVOk8x2aSKkXrKWNen5CzDWTyLuIK2ggZ/Q2siVJal3Zo9i93DoZ8gJb90fChxcQDm8uFP/AohrXQDTTDv/ho4ymcEtUWCx5HeGpiT3CiscipRsI3yg3La7vBUoJ0PRkRc+7IrpL0IvNdLQIt8Ot2NMANLmsCwGl94LRU0G4+4LWlpS21LMdM8FhAZssrWsPv5TxB/w4gaPrl78VoY0OpGFjCp761ISVoEOU5fjQ0czjfzLh3oJSAFjQ6JpAShDX4jMFnGn43Q2mw6BgCTDT3PllJUFk7qlhCA839vom+biaH5f3efG0bv2/EYZrIkvGmC9yp4OkENmLbLn2eIKxFYCWu0Y9hK5OlvnkRifi2RYjbRuRssOpgyKGBekAKWybSqA8oSzAWXAt0ggHTXVQGNL+XZokrcEXsQxUMzKJW1IPPAKFfQKxKk4Az5psPMAfyktPABLcViVjsnuNoiGY+zTUZaVA0bS5MsU1mgXNNV5aKs0uf2Fm/NP1pIqEcBdaIXTDswoskL4jSa8olQ7GJgLSpB24Lzmk6w6csC1i4UdMRWJHGQhwHu2EMf26l+AoO7RwajDIBVjdfj1PdPAwikJJsqeyE4iN/Gag0OsCpKgOws1kQpkH+oi5f7KSVbWz4sOEmvaoWTy2/6CG3Q/CyBGah28DzhVco9DIqp+icMM7xFXdI13P69XeXEHVDT8ZyuTEv+ztrjd8Bfn4f/m5ISiBGg1En5KdJCrQJb9WiFaoUa1YlBFMEmeFwR0ByTSj/fUCuEKFuu3xSDtBn9KDTn43xuEGUAKkBD2i8boNV7ezHRF+FMa8R2m446+mNmBKsgTX40kMTHnc2HpZCr1nh4jk0E/oWEae0kjlQusstLbGmT6IifQSo6zQsBUNL5BYQAxd8bWW+xtjTX3QTZXzqE53WuNXhQYv9ngu2XTTbBY0HvEEq8NvW6NBVa935AyKY5NEStFy8optUvIs97csHJBvBiOCMqsgmUvd9c1oOEHnoC1w2tOOwFB+CepZmeiQ5tkToEqJdrEhz9p04QNsRR2PyX6aM1egSNPgWMu1qaDrfhJgA18vQ3nTHRnC5kWfWAPfW3QIAmzCKAd6gLjIzbbTRdkrYOjB2Xk1+z2p0NQZqk2iwcrPAb+RKtWqbwdtJSOGmg4wFoRARHH3G1MSkNE6a+ZNu2eIgalzbsibfgBFGa5KVZQNyz8p6djBnXtqVWt0i9NGmaJppc/H38/QWSAlrRVzTKF35yA0YQytf+gU9sxFcbuSZLyj6us3qYoAYWJVfrR9F3RG2fpx1n+gMDGx0x2ED0G+ZVL6Bd3cf6WKgi4EuBtaDgS6/Wg+2uvd+gTHQVu/yBW5zt2ldDHQx0MVAFwNdDHQxsBYM3MAdh7WA072ni4EuBroY6GKgi4EuBjoGA11dQsd0RReQLga6GOhioIuBLgY6DANdKaHDOqQLThcDXQx0MdDFQBcDHYOBrpTQMV3RBaSLgS4GuhjoYqCLgQ7DQFdK6LAO6YLTxUAXA10MdDHQxUDHYKArJXRMV3QB6WKgi4EuBroY6GKgwzDQlRI6rEO64HQx0MVAFwNdDHQx0DEY6EoJHdMVXUC6GOhioIuBLga6GOgwDHSlhA7rkC44XQx0MdDFQBcDXQx0DAa6UkLHdEUXkC4GuhjoYqCLgS4GOgwDXSmhwzqkC04XA10MdDHQxUAXAx2Dga6U0DFd0QWki4EuBroY6GKgi4EOw0BXSuiwDumC08VAFwNdDHQx0MVAx2CgKyV0TFd0AelioIuBLga6GOhioMMw0JUSOqxDuuB0MdDFQBcDXQx0MdAxGOhKCR3TFV1AuhjoYqCLgS4GuhjoMAx0pYQO65AuOF0MdDHQxUAXA10MdAwG/n/5Vo1b5L4bDAAAAABJRU5ErkJggg==;" vertex="1" parent="Q1vvUf1jKi_2m8FqPl4--11">
          <mxGeometry x="11.32" y="90" width="114.71" height="41.76" as="geometry" />
        </mxCell>
        <mxCell id="Q1vvUf1jKi_2m8FqPl4--29" value="" style="endArrow=classic;html=1;rounded=0;exitX=1;exitY=0.5;exitDx=0;exitDy=0;exitPerimeter=0;entryX=0;entryY=0.5;entryDx=0;entryDy=0;entryPerimeter=0;" edge="1" parent="1" source="Q1vvUf1jKi_2m8FqPl4--8" target="Hh5hC5YUvbBkTPlvVYgq-15">
          <mxGeometry width="50" height="50" relative="1" as="geometry">
            <mxPoint x="810" y="680" as="sourcePoint" />
            <mxPoint x="860" y="630" as="targetPoint" />
          </mxGeometry>
        </mxCell>
      </root>
    </mxGraphModel>
  </diagram>
</mxfile>
